<svg width="69" height="71" viewBox="0 0 69 71" fill="none" xmlns="http://www.w3.org/2000/svg">
<path d="M16.4141 60.4822C-6.31801 50.2303 -5.17759 17.5182 18.2131 8.87969C20.5761 8.00703 22.8099 6.81729 24.8535 5.34303C45.0831 -9.25064 72.795 8.09469 68.5683 32.7048C68.1413 35.191 68.053 37.7236 68.3058 40.2335C70.8084 65.0791 41.9561 80.4458 22.792 64.4742C20.8561 62.8607 18.7105 61.5178 16.4141 60.4822Z" fill="#20204D"/>
<g clip-path="url(#clip0_311_1658)">
<path d="M35 31C34.6685 31 34.3505 31.1317 34.1161 31.3661C33.8817 31.6005 33.75 31.9185 33.75 32.25V46C33.75 46.3315 33.8817 46.6495 34.1161 46.8839C34.3505 47.1183 34.6685 47.25 35 47.25C35.3315 47.25 35.6495 47.1183 35.8839 46.8839C36.1183 46.6495 36.25 46.3315 36.25 46V32.25C36.25 31.9185 36.1183 31.6005 35.8839 31.3661C35.6495 31.1317 35.3315 31 35 31Z" fill="white"/>
<path d="M43.75 26C43.4185 26 43.1005 26.1317 42.8661 26.3661C42.6317 26.6005 42.5 26.9185 42.5 27.25V46C42.5 46.3315 42.6317 46.6495 42.8661 46.8839C43.1005 47.1183 43.4185 47.25 43.75 47.25C44.0815 47.25 44.3995 47.1183 44.6339 46.8839C44.8683 46.6495 45 46.3315 45 46V27.25C45 26.9185 44.8683 26.6005 44.6339 26.3661C44.3995 26.1317 44.0815 26 43.75 26Z" fill="white"/>
<path d="M26.25 36C25.9185 36 25.6005 36.1317 25.3661 36.3661C25.1317 36.6005 25 36.9185 25 37.25V46C25 46.3315 25.1317 46.6495 25.3661 46.8839C25.6005 47.1183 25.9185 47.25 26.25 47.25C26.5815 47.25 26.8995 47.1183 27.1339 46.8839C27.3683 46.6495 27.5 46.3315 27.5 46V37.25C27.5 36.9185 27.3683 36.6005 27.1339 36.3661C26.8995 36.1317 26.5815 36 26.25 36Z" fill="white"/>
</g>
<defs>
<clipPath id="clip0_311_1658">
<rect width="30" height="30" fill="white" transform="translate(20 21)"/>
</clipPath>
</defs>
</svg>
