<svg width="27" height="26" viewBox="0 0 27 26" fill="none" xmlns="http://www.w3.org/2000/svg">
<path d="M13.4483 26C6.02021 26 0 20.1805 0 13C0 5.81953 6.02021 0 13.4483 0C20.8763 0 26.8966 5.81953 26.8966 13C26.8966 20.1805 20.8763 26 13.4483 26ZM17.1728 6.59395C16.7079 6.53047 16.0513 6.5 15.2055 6.5C14.21 6.5 13.4141 6.7666 12.8153 7.2998C12.2164 7.83301 11.917 8.58457 11.917 9.55195V11.2531H9.71848V13.5637H11.9196V19.4848H14.5593V13.5586H16.7499L17.0861 11.2506H14.5593V9.77539C14.5593 9.39961 14.646 9.12031 14.8194 8.93242C14.9927 8.74707 15.3237 8.65312 15.8175 8.65312H17.1728V6.59395Z" fill="#303033"/>
</svg>
