<svg width="27" height="26" viewBox="0 0 27 26" fill="none" xmlns="http://www.w3.org/2000/svg">
<path d="M18.9816 9.00656C18.8644 8.7144 18.685 8.4491 18.4549 8.22777C18.2248 8.00643 17.9492 7.83395 17.6456 7.72146C17.2277 7.5724 16.7863 7.49361 16.3406 7.48854C15.5995 7.45604 15.3773 7.44792 13.5 7.44792C11.6227 7.44792 11.4005 7.45604 10.6594 7.48854C10.2133 7.49346 9.77135 7.57225 9.35297 7.72146C9.04957 7.83426 8.77407 8.00702 8.54422 8.22859C8.31437 8.45016 8.13527 8.71563 8.01844 9.00791C7.86365 9.41037 7.78183 9.83544 7.77657 10.2646C7.74282 10.9782 7.73438 11.1922 7.73438 13C7.73438 14.8078 7.74282 15.0218 7.77657 15.7354C7.78167 16.165 7.86349 16.5906 8.01844 16.9934C8.13559 17.2856 8.31498 17.5509 8.54508 17.7722C8.77517 17.9936 9.05086 18.166 9.35438 18.2785C9.77231 18.4276 10.2137 18.5064 10.6594 18.5115C11.4005 18.544 11.6227 18.5507 13.5 18.5507C15.3773 18.5507 15.5995 18.544 16.3406 18.5101C16.7867 18.5056 17.2286 18.4273 17.647 18.2785C17.9504 18.1657 18.2259 17.993 18.4558 17.7714C18.6856 17.5498 18.8647 17.2844 18.9816 16.9921C19.1364 16.5896 19.2182 16.1646 19.2234 15.7354C19.2572 15.0218 19.2642 14.8078 19.2642 13C19.2642 11.1922 19.2572 10.9782 19.222 10.2646C19.2174 9.83507 19.136 9.40952 18.9816 9.00656ZM13.5 16.4775C12.7858 16.4775 12.0876 16.2735 11.4937 15.8914C10.8998 15.5093 10.437 14.9662 10.1636 14.3308C9.89032 13.6953 9.8188 12.9961 9.95814 12.3216C10.0975 11.647 10.4414 11.0274 10.9465 10.541C11.4515 10.0547 12.095 9.7235 12.7955 9.58932C13.496 9.45514 14.2221 9.524 14.882 9.78721C15.5418 10.0504 16.1058 10.4961 16.5026 11.068C16.8995 11.6399 17.1113 12.3122 17.1113 13C17.1113 13.9223 16.7308 14.8068 16.0535 15.459C15.3763 16.1111 14.4578 16.4775 13.5 16.4775ZM17.2533 10.1982C17.0864 10.1982 16.9233 10.1506 16.7845 10.0613C16.6458 9.97202 16.5376 9.84512 16.4738 9.69666C16.4099 9.54819 16.3932 9.38483 16.4257 9.22722C16.4583 9.06961 16.5387 8.92483 16.6567 8.8112C16.7747 8.69757 16.925 8.62019 17.0887 8.58884C17.2523 8.55749 17.422 8.57358 17.5762 8.63508C17.7303 8.69657 17.8621 8.80071 17.9548 8.93433C18.0475 9.06794 18.097 9.22503 18.097 9.38573C18.097 9.60122 18.0081 9.80788 17.8499 9.96025C17.6917 10.1126 17.4771 10.1982 17.2533 10.1982ZM15.8442 13C15.8442 13.4465 15.7067 13.8829 15.4492 14.2541C15.1916 14.6254 14.8254 14.9147 14.3971 15.0856C13.9687 15.2564 13.4974 15.3011 13.0427 15.214C12.5879 15.1269 12.1702 14.9119 11.8424 14.5962C11.5145 14.2805 11.2913 13.8783 11.2008 13.4404C11.1104 13.0025 11.1568 12.5486 11.3342 12.1361C11.5117 11.7236 11.8121 11.3711 12.1976 11.123C12.5831 10.875 13.0364 10.7426 13.5 10.7426C14.1217 10.7426 14.718 10.9804 15.1576 11.4038C15.5972 11.8271 15.8442 12.4013 15.8442 13ZM13.5 0C10.83 0 8.21987 0.762436 5.99981 2.19089C3.77974 3.61935 2.04941 5.64967 1.02763 8.02511C0.00584931 10.4006 -0.261496 13.0144 0.259405 15.5362C0.780305 18.0579 2.06606 20.3743 3.95406 22.1924C5.84207 24.0105 8.24754 25.2486 10.8663 25.7502C13.485 26.2518 16.1994 25.9944 18.6662 25.0104C21.133 24.0265 23.2414 22.3602 24.7248 20.2224C26.2082 18.0846 27 15.5712 27 13C27 9.55218 25.5777 6.24558 23.0459 3.80761C20.5142 1.36964 17.0804 0 13.5 0ZM20.4891 15.7909C20.4772 16.3528 20.3664 16.9087 20.1614 17.4349C19.9808 17.8846 19.7046 18.293 19.3506 18.6339C18.9966 18.9748 18.5725 19.2408 18.1055 19.4147C17.5595 19.6119 16.9827 19.7186 16.3997 19.7302C15.6488 19.7627 15.4097 19.7708 13.5 19.7708C11.5903 19.7708 11.3513 19.7627 10.6003 19.7302C10.0173 19.7186 9.44053 19.6119 8.89454 19.4147C8.42755 19.2408 8.00345 18.9748 7.6494 18.6339C7.29536 18.293 7.01919 17.8846 6.8386 17.4349C6.63379 16.9091 6.52301 16.3537 6.51094 15.7923C6.47719 15.0692 6.46875 14.839 6.46875 13C6.46875 11.161 6.47719 10.9308 6.51094 10.2077C6.52256 9.64636 6.63287 9.09096 6.83719 8.5651C7.01778 8.11503 7.29409 7.70629 7.64839 7.36511C8.00269 7.02393 8.42715 6.75786 8.89454 6.58396C9.44062 6.3872 10.0174 6.28097 10.6003 6.26979C11.3513 6.23729 11.5903 6.22917 13.5 6.22917C15.4097 6.22917 15.6488 6.23729 16.3997 6.26979C16.9826 6.28097 17.5594 6.3872 18.1055 6.58396C18.5726 6.75801 18.9968 7.02416 19.3508 7.36533C19.7049 7.7065 19.981 8.11516 20.1614 8.5651C20.3662 9.09088 20.477 9.64628 20.4891 10.2077C20.5228 10.9308 20.5313 11.161 20.5313 13C20.5313 14.839 20.5228 15.0678 20.4891 15.7909Z" fill="#8F8FB8"/>
</svg>
