<svg width="26" height="26" viewBox="0 0 26 26" fill="none" xmlns="http://www.w3.org/2000/svg">
<path fill-rule="evenodd" clip-rule="evenodd" d="M13 0C20.1797 0 26 5.8203 26 13C26 20.1797 20.1797 26 13 26C5.8203 26 0 20.1797 0 13C0 5.8203 5.8203 0 13 0ZM15.3436 8.125C14.681 8.12468 14.0454 8.38379 13.5769 8.84528C13.1083 9.30676 12.8452 9.93277 12.8456 10.5854C12.8456 10.776 12.8691 10.966 12.9076 11.1492C10.8979 11.0482 9.02589 10.1125 7.7565 8.57457C7.54006 8.93984 7.41665 9.35887 7.41665 9.81577C7.41578 10.6394 7.834 11.4086 8.53046 11.8645C8.12115 11.8492 7.73479 11.735 7.40176 11.5523V11.5829C7.40009 12.755 8.23837 13.7655 9.4049 13.9975C9.1959 14.0506 8.97078 14.0812 8.7469 14.0812C8.58442 14.0812 8.42938 14.0659 8.27496 14.0433C8.60396 15.0449 9.54244 15.7303 10.6111 15.7493C9.72654 16.4329 8.63403 16.8032 7.50967 16.8006C7.30068 16.8006 7.10718 16.7926 6.90625 16.77C8.01263 17.4712 9.32738 17.875 10.7426 17.875C15.3362 17.875 17.8497 14.127 17.8497 10.8743C17.8497 10.768 17.8497 10.6618 17.8416 10.5549C18.3288 10.2032 18.7521 9.77307 19.0938 9.28252C18.6363 9.47948 18.1516 9.60795 17.6556 9.66367C18.177 9.35832 18.5675 8.8762 18.7539 8.30764C18.2643 8.59437 17.728 8.79545 17.1688 8.90197C16.7123 8.42186 16.063 8.125 15.3436 8.125Z" fill="#8F8FB8"/>
</svg>
