<svg width="26" height="26" viewBox="0 0 26 26" fill="none" xmlns="http://www.w3.org/2000/svg">
<path d="M11.2684 15.5037L15.5238 13.0053L11.2684 10.5068V15.5037Z" fill="#8F8FB8"/>
<path d="M13 0C5.81953 0 0 5.81953 0 13C0 20.1805 5.81953 26 13 26C20.1805 26 26 20.1805 26 13C26 5.81953 20.1805 0 13 0ZM19.5 15.3258C19.5 17.5652 17.2605 17.5652 17.2605 17.5652H8.73945C6.5 17.5652 6.5 15.3258 6.5 15.3258V10.6793C6.5 8.43984 8.73945 8.43984 8.73945 8.43984H17.2605C19.5 8.43984 19.5 10.6793 19.5 10.6793V15.3258Z" fill="#8F8FB8"/>
</svg>
