<svg width="112" height="108" viewBox="0 0 112 108" fill="none" xmlns="http://www.w3.org/2000/svg">
<g filter="url(#filter0_d_1553_970)">
<path d="M9.3999 33.4004C9.3999 20.1456 20.1451 9.40039 33.3999 9.40039H70.3999C83.6547 9.40039 94.3999 20.1456 94.3999 33.4004V66.4004C94.3999 79.6552 83.6547 90.4004 70.3999 90.4004H33.3999C20.1451 90.4004 9.3999 79.6552 9.3999 66.4004V33.4004Z" fill="white" shape-rendering="crispEdges"/>
<g clip-path="url(#clip0_1553_970)">
<path d="M52.6881 44.9258V47.3831H52.1572V44.9258H52.6881Z" fill="#F8F8F8"/>
<path d="M33.8645 38.0503L33.6326 38.5319L33.4302 38.4328L33.6621 37.9512L33.8645 38.0503Z" fill="#F8F8F8"/>
<path d="M71.4153 38.4331L71.2123 38.5322L70.981 38.0503L71.1839 37.9512L71.4153 38.4331Z" fill="#F8F8F8"/>
<path d="M71.0966 38.2912L52.4227 47.3838L42.9839 42.7875L60.9392 33.3447L71.0966 38.2912Z" fill="url(#paint0_linear_1553_970)"/>
<path d="M71.7069 38.2909L52.4225 47.6808L42.3921 42.7964L60.9345 33.0449L71.7069 38.2909ZM43.5753 42.778L52.4225 47.0863L70.4858 38.2908L60.9436 33.6439L43.5753 42.778Z" fill="#F8F8F8"/>
<path d="M60.9394 33.3441L42.9841 42.7868L33.7495 38.2905L52.4228 29.1973L60.9394 33.3441Z" fill="url(#paint1_linear_1553_970)"/>
<path d="M61.5307 33.3353L42.9883 43.0868L33.1387 38.291L52.4225 28.9004L61.5307 33.3353ZM34.3597 38.2909L42.9792 42.4877L60.3475 33.3537L52.4225 29.4949L34.3597 38.2909Z" fill="#F8F8F8"/>
<path d="M71.2998 38.3895V61.2827L52.4229 70.4739V47.3837L71.0968 38.291L71.2998 38.3895Z" fill="url(#paint2_linear_1553_970)"/>
<path d="M71.565 38.2216V61.4511L52.1572 70.9007V47.216L71.0964 37.9941L71.565 38.2216ZM52.6881 47.552V70.0477L71.0342 61.1149V38.619L52.6881 47.552Z" fill="#F8F8F8"/>
<path d="M71.565 38.1914V38.3888H71.0342V38.1914H71.565Z" fill="#F8F8F8"/>
<path d="M52.4225 47.3837V70.4739L33.5459 61.2827V38.3895L33.7483 38.291H33.7492L42.9837 42.7873L52.4225 47.3837Z" fill="url(#paint3_linear_1553_970)"/>
<path d="M33.8102 38.0234L43.0994 42.5464L52.6882 47.2158V70.9005L33.2808 61.4509V38.2216L33.6879 38.0234H33.8102ZM33.8116 61.1148L52.1574 70.0475V47.5519L42.8686 43.0286L33.8116 38.6187V61.1148Z" fill="#F8F8F8"/>
<path d="M33.2808 37.2471H33.8116V38.3894H33.2808V37.2471Z" fill="#F8F8F8"/>
<path d="M73.4614 48.0625H74.0472C74.4682 48.0625 74.872 48.2312 75.1696 48.5314C75.4673 48.8317 75.6345 49.239 75.6345 49.6636V68.4736C75.6345 68.8983 75.4673 69.3055 75.1696 69.6058C74.872 69.906 74.4682 70.0747 74.0472 70.0747H62.1518C61.7308 70.0747 61.3271 69.906 61.0294 69.6058C60.7317 69.3055 60.5645 68.8983 60.5645 68.4736V49.6636C60.5645 49.239 60.7317 48.8317 61.0294 48.5314C61.3271 48.2312 61.7308 48.0625 62.1518 48.0625H62.816" fill="url(#paint4_linear_1553_970)"/>
<path d="M60.2988 68.4738V49.6637C60.2988 49.1681 60.494 48.6928 60.8415 48.3423C61.1889 47.9918 61.6602 47.7949 62.1516 47.7949H62.8158V48.3304H62.1516C61.801 48.3304 61.4648 48.4709 61.2169 48.7209C60.969 48.971 60.8297 49.3101 60.8297 49.6637V68.4738C60.8297 68.8274 60.969 69.1666 61.2169 69.4166C61.4648 69.6667 61.801 69.8072 62.1516 69.8072H74.047C74.3976 69.8072 74.7339 69.6667 74.9818 69.4166C75.2297 69.1666 75.3689 68.8274 75.3689 68.4738V49.6637C75.3689 49.3101 75.2297 48.971 74.9818 48.7209C74.7339 48.4709 74.3976 48.3304 74.047 48.3304H73.4612V47.7949H74.047C74.5384 47.7949 75.0096 47.9918 75.3571 48.3423C75.7046 48.6928 75.8998 49.1681 75.8998 49.6637V68.4738C75.8998 68.9694 75.7046 69.4448 75.3571 69.7952C75.0096 70.1457 74.5384 70.3426 74.047 70.3426H62.1516C61.6602 70.3426 61.1889 70.1457 60.8415 69.7952C60.494 69.4448 60.2988 68.9694 60.2988 68.4738Z" fill="white"/>
<path d="M63.5964 55.4247L63.1991 55.7799L61.8838 54.2828L62.281 53.9277L63.5964 55.4247Z" fill="white"/>
<path d="M65.0175 52.9684L63.6348 55.7241L63.1611 55.4823L64.5439 52.7266L65.0175 52.9684Z" fill="white"/>
<path d="M63.6799 61.0387L63.2826 61.3939L61.9673 59.8972L62.3645 59.542L63.6799 61.0387Z" fill="white"/>
<path d="M65.1009 58.5817L63.7178 61.3374L63.2441 61.0956L64.6273 58.3398L65.1009 58.5817Z" fill="white"/>
<path d="M63.5915 66.4696L63.1942 66.8248L61.8789 65.3278L62.2762 64.9727L63.5915 66.4696Z" fill="white"/>
<path d="M65.0127 64.0123L63.6299 66.768L63.1562 66.5262L64.539 63.7705L65.0127 64.0123Z" fill="white"/>
<path d="M72.7066 53.957V54.4925H66.9053V53.957H72.7066Z" fill="white"/>
<path d="M72.5225 59.7725V60.3079H66.7212V59.7725H72.5225Z" fill="white"/>
<path d="M72.1314 65.5869V66.1224H66.3301V65.5869H72.1314Z" fill="white"/>
<path d="M71.6405 46.2109H64.6374C63.6314 46.2109 62.8159 47.0334 62.8159 48.048C62.8159 49.0626 63.6314 49.8851 64.6374 49.8851H71.6405C72.6465 49.8851 73.462 49.0626 73.462 48.048C73.462 47.0334 72.6465 46.2109 71.6405 46.2109Z" fill="url(#paint5_linear_1553_970)"/>
<path d="M73.1964 48.0482C73.1964 47.1815 72.4997 46.4788 71.6403 46.4788H64.6372C63.7778 46.4788 63.0811 47.1815 63.0811 48.0482C63.0812 48.9149 63.7778 49.6176 64.6372 49.6176H71.6403C72.4997 49.6176 73.1964 48.9149 73.1964 48.0482ZM73.7272 48.0482C73.7272 49.2107 72.7928 50.153 71.6403 50.153H64.6372C63.4846 50.153 62.5503 49.2107 62.5503 48.0482C62.5503 46.8857 63.4846 45.9434 64.6372 45.9434H71.6403C72.7928 45.9434 73.7272 46.8857 73.7272 48.0482Z" fill="white"/>
<path d="M42.9372 60.4552C42.9372 59.7737 42.8042 59.0989 42.5456 58.4693C42.2871 57.8397 41.9081 57.2677 41.4304 56.7858C40.9527 56.3039 40.3855 55.9217 39.7614 55.6609C39.1372 55.4002 38.4682 55.2659 37.7926 55.2659C36.7751 55.2659 35.7804 55.5703 34.9344 56.1405C34.0884 56.7107 33.429 57.5211 33.0396 58.4693C32.6503 59.4175 32.5484 60.4609 32.7469 61.4675C32.9454 62.4741 33.4353 63.3988 34.1548 64.1245C34.8743 64.8502 35.791 65.3444 36.789 65.5447C37.7869 65.7449 38.8213 65.6421 39.7614 65.2494C40.7014 64.8566 41.5049 64.1915 42.0702 63.3381C42.6355 62.4848 42.9372 61.4815 42.9372 60.4552ZM43.4681 60.4552C43.4681 61.5874 43.1352 62.6942 42.5116 63.6356C41.888 64.577 41.0016 65.3108 39.9645 65.744C38.9275 66.1773 37.7863 66.2907 36.6854 66.0698C35.5845 65.8489 34.5732 65.3037 33.7795 64.5031C32.9858 63.7025 32.4452 62.6824 32.2262 61.572C32.0073 60.4615 32.1196 59.3105 32.5492 58.2644C32.9788 57.2184 33.7062 56.3243 34.6395 55.6952C35.5728 55.0662 36.6701 54.7305 37.7926 54.7305C38.5379 54.7305 39.276 54.8786 39.9645 55.1663C40.6531 55.4539 41.2788 55.8756 41.8058 56.4072C42.3328 56.9388 42.7508 57.5699 43.036 58.2644C43.3212 58.959 43.4681 59.7034 43.4681 60.4552Z" fill="white"/>
<path d="M45.7323 59.2567C45.533 57.9049 44.9964 56.6262 44.1728 55.541L45.3327 54.3691L43.6538 52.6756L42.4661 53.8715C41.4333 53.1235 40.2384 52.635 38.9807 52.4466V50.7617H36.6046V52.4478C35.2602 52.6489 33.989 53.1925 32.911 54.0273L31.7431 52.8481L30.0642 54.5434L31.2593 55.7497C30.521 56.7894 30.0391 57.9916 29.8536 59.2567H28.1655V61.6538H29.8536C30.0534 63.0119 30.5939 64.296 31.4238 65.3843L30.2504 66.5663L31.9308 68.2616L33.1326 67.0497C34.1622 67.7926 35.3523 68.2774 36.6046 68.4639V70.1759H38.9807V68.4639C40.3197 68.2637 41.5863 67.7233 42.6614 66.8936L43.8272 68.0701L45.5076 66.3751L44.3171 65.1743C45.0606 64.1317 45.5458 62.9248 45.7323 61.6544H47.3446V59.2567H45.7323ZM37.7926 65.912C36.7226 65.912 35.6766 65.592 34.787 64.9924C33.8973 64.3927 33.2039 63.5404 32.7944 62.5433C32.3849 61.5462 32.2778 60.4489 32.4866 59.3904C32.6954 58.3318 33.2106 57.3595 33.9673 56.5963C34.7239 55.8332 35.6879 55.3135 36.7374 55.103C37.7868 54.8924 38.8746 55.0005 39.8632 55.4136C40.8517 55.8267 41.6966 56.5262 42.291 57.4236C42.8855 58.321 43.2027 59.3761 43.2027 60.4554C43.2027 61.172 43.0627 61.8816 42.7908 62.5436C42.519 63.2057 42.1204 63.8072 41.6181 64.3139C41.1157 64.8206 40.5193 65.2226 39.8629 65.4968C39.2066 65.771 38.5031 65.9121 37.7926 65.912Z" fill="url(#paint6_linear_1553_970)"/>
<path d="M39.2459 50.4932V52.2181C40.3882 52.4221 41.475 52.8668 42.4355 53.523L43.6538 52.2964L45.7077 54.3681L44.5221 55.5659C45.25 56.5831 45.7407 57.753 45.9577 58.9882H47.6099V61.9213H45.9578C45.7558 63.0752 45.3141 64.1731 44.6619 65.1428L45.8828 66.3743L43.827 68.448L42.6355 67.2455C41.6279 67.9785 40.4692 68.4725 39.2459 68.6907V70.4428H36.339V68.6909C35.2021 68.4887 34.1201 68.0476 33.1632 67.3964L31.9306 68.6394L29.8748 66.5654L31.0734 65.3578C30.3398 64.3373 29.8454 63.162 29.6277 61.9207H27.8999V58.9882H29.6276C29.8286 57.8395 30.2671 56.7463 30.9145 55.7798L29.6888 54.5426L31.7429 52.4684L32.9363 53.6735C33.947 52.9356 35.1104 52.4385 36.339 52.2193V50.4932H39.2459ZM36.8698 52.6779L36.6433 52.7118C35.3436 52.9062 34.1146 53.4318 33.0724 54.2389L32.8877 54.382L31.7429 53.226L30.4392 54.5425L31.6059 55.7203L31.4749 55.9048C30.7612 56.9099 30.2953 58.0721 30.1159 59.2951L30.0824 59.5236H28.4308V61.3852H30.0823L30.1159 61.6136C30.3091 62.9266 30.8316 64.1681 31.634 65.2202L31.7762 65.4067L30.6257 66.5656L31.9307 67.8822L33.1039 66.6992L33.2868 66.8312C34.2821 67.5493 35.4326 68.0179 36.6432 68.1983L36.8698 68.232V69.9073H38.7151V68.2322L38.9415 68.1983C40.2361 68.0047 41.4606 67.4823 42.5 66.6802L42.6846 66.5377L43.827 67.6906L45.1321 66.3743L43.9697 65.2019L44.1015 65.0172C44.8202 64.0093 45.2893 62.8425 45.4695 61.6144L45.5031 61.3858H47.079V59.5236H45.5032L45.4696 59.2953C45.2769 57.9883 44.7581 56.7521 43.9618 55.7029L43.8206 55.5168L44.9573 54.3684L43.6534 53.0532L42.494 54.2207L42.3111 54.0882C41.3126 53.365 40.1574 52.8927 38.9415 52.7105L38.7151 52.6766V51.0286H36.8698V52.6779ZM42.937 60.4545C42.9371 59.4282 42.6354 58.4249 42.0702 57.5715C41.5049 56.7181 40.7014 56.0529 39.7614 55.6601C38.8213 55.2673 37.7869 55.1645 36.7889 55.3647C35.791 55.5649 34.8743 56.0591 34.1548 56.7848C33.4352 57.5105 32.9452 58.4352 32.7467 59.4418C32.5482 60.4484 32.65 61.4918 33.0394 62.44C33.4288 63.3883 34.0882 64.1987 34.9342 64.7689C35.7803 65.3391 36.7749 65.6435 37.7924 65.6435C38.468 65.6435 39.137 65.5093 39.7612 65.2486C40.3853 64.9878 40.9525 64.6056 41.4302 64.1238C41.9079 63.6419 42.2869 63.0699 42.5454 62.4404C42.804 61.8108 42.937 61.136 42.937 60.4545ZM43.4674 60.525C43.4586 61.2528 43.3122 61.9725 43.0359 62.6453C42.7506 63.3398 42.3326 63.9709 41.8055 64.5024C41.2785 65.034 40.6529 65.4556 39.9643 65.7433C39.2972 66.0219 38.5838 66.1696 37.8623 66.1785L37.7924 66.1789C36.6699 66.1789 35.5726 65.8432 34.6393 65.2141C33.706 64.5851 32.9785 63.691 32.549 62.6449C32.1194 61.5989 32.0071 60.4478 32.2261 59.3373C32.4451 58.2268 32.9857 57.2068 33.7794 56.4062C34.5732 55.6056 35.5845 55.0604 36.6854 54.8395C37.7864 54.6187 38.9275 54.7321 39.9646 55.1655C41.0016 55.5988 41.888 56.3326 42.5116 57.274C43.1351 58.2155 43.4679 59.3223 43.4679 60.4546L43.4674 60.525Z" fill="white"/>
</g>
</g>
<defs>
<filter id="filter0_d_1553_970" x="-9.72748e-05" y="0.000391006" width="111.8" height="107.8" filterUnits="userSpaceOnUse" color-interpolation-filters="sRGB">
<feFlood flood-opacity="0" result="BackgroundImageFix"/>
<feColorMatrix in="SourceAlpha" type="matrix" values="0 0 0 0 0 0 0 0 0 0 0 0 0 0 0 0 0 0 127 0" result="hardAlpha"/>
<feMorphology radius="4" operator="dilate" in="SourceAlpha" result="effect1_dropShadow_1553_970"/>
<feOffset dx="4" dy="4"/>
<feGaussianBlur stdDeviation="4.7"/>
<feComposite in2="hardAlpha" operator="out"/>
<feColorMatrix type="matrix" values="0 0 0 0 0.742582 0 0 0 0 0.742582 0 0 0 0 0.742582 0 0 0 0.25 0"/>
<feBlend mode="normal" in2="BackgroundImageFix" result="effect1_dropShadow_1553_970"/>
<feBlend mode="normal" in="SourceGraphic" in2="effect1_dropShadow_1553_970" result="shape"/>
</filter>
<linearGradient id="paint0_linear_1553_970" x1="42.9839" y1="40.3643" x2="71.0966" y2="40.3643" gradientUnits="userSpaceOnUse">
<stop stop-color="#811849"/>
<stop offset="1" stop-color="#D81C5C"/>
</linearGradient>
<linearGradient id="paint1_linear_1553_970" x1="33.7495" y1="35.992" x2="60.9394" y2="35.992" gradientUnits="userSpaceOnUse">
<stop stop-color="#811849"/>
<stop offset="1" stop-color="#D81C5C"/>
</linearGradient>
<linearGradient id="paint2_linear_1553_970" x1="52.4229" y1="54.3823" x2="71.2998" y2="54.3823" gradientUnits="userSpaceOnUse">
<stop stop-color="#811849"/>
<stop offset="1" stop-color="#D81C5C"/>
</linearGradient>
<linearGradient id="paint3_linear_1553_970" x1="33.5459" y1="54.3823" x2="52.4225" y2="54.3823" gradientUnits="userSpaceOnUse">
<stop stop-color="#811849"/>
<stop offset="1" stop-color="#D81C5C"/>
</linearGradient>
<linearGradient id="paint4_linear_1553_970" x1="60.5645" y1="59.0688" x2="75.6345" y2="59.0688" gradientUnits="userSpaceOnUse">
<stop stop-color="#811849"/>
<stop offset="1" stop-color="#D81C5C"/>
</linearGradient>
<linearGradient id="paint5_linear_1553_970" x1="62.8159" y1="48.0482" x2="73.462" y2="48.0482" gradientUnits="userSpaceOnUse">
<stop stop-color="#811849"/>
<stop offset="1" stop-color="#D81C5C"/>
</linearGradient>
<linearGradient id="paint6_linear_1553_970" x1="28.1655" y1="60.468" x2="47.3443" y2="60.468" gradientUnits="userSpaceOnUse">
<stop stop-color="#811849"/>
<stop offset="1" stop-color="#D81C5C"/>
</linearGradient>
<clipPath id="clip0_1553_970">
<rect width="48" height="42" fill="white" transform="translate(27.8999 28.9004)"/>
</clipPath>
</defs>
</svg>
