<svg width="112" height="108" viewBox="0 0 112 108" fill="none" xmlns="http://www.w3.org/2000/svg">
<g filter="url(#filter0_d_1553_1007)">
<path d="M9.3999 33.4004C9.3999 20.1456 20.1451 9.40039 33.3999 9.40039H70.3999C83.6547 9.40039 94.3999 20.1456 94.3999 33.4004V66.4004C94.3999 79.6552 83.6547 90.4004 70.3999 90.4004H33.3999C20.1451 90.4004 9.3999 79.6552 9.3999 66.4004V33.4004Z" fill="white" shape-rendering="crispEdges"/>
<g clip-path="url(#clip0_1553_1007)">
<path d="M56.2119 42.4463H35.7131C35.2941 42.4464 34.8924 42.6144 34.5962 42.9131C34.3 43.2118 34.1337 43.6169 34.1338 44.0393V71.0728C34.1336 71.2819 34.1744 71.4891 34.2537 71.6824C34.333 71.8757 34.4493 72.0514 34.5959 72.1993C34.7426 72.3473 34.9168 72.4647 35.1085 72.5447C35.3001 72.6248 35.5056 72.6661 35.7131 72.6661H56.2119C56.4194 72.6661 56.6248 72.6249 56.8165 72.545C57.0081 72.465 57.1823 72.3477 57.329 72.1999C57.4757 72.052 57.5921 71.8765 57.6715 71.6833C57.7509 71.4901 57.7918 71.2831 57.7918 71.074V44.0393C57.7919 43.8301 57.751 43.623 57.6717 43.4297C57.5923 43.2364 57.4759 43.0608 57.3292 42.9129C57.1825 42.765 57.0083 42.6476 56.8166 42.5676C56.6249 42.4875 56.4194 42.4463 56.2119 42.4463ZM40.7943 69.9115H36.6936V65.7786H40.7943V69.9115ZM40.9776 63.2303H36.8758V59.0965H40.9776V63.2303ZM40.9776 56.5488H36.8758V52.415H40.9776V56.5488ZM47.941 69.9118H43.8398V65.7786H47.9401L47.941 69.9118ZM48.1235 63.2303H44.0216V59.0965H48.1226L48.1235 63.2303ZM48.1235 56.5488H44.0216V52.415H48.1226L48.1235 56.5488ZM55.0875 69.9118H50.9871V65.7786H55.0866L55.0875 69.9118ZM55.2693 63.2303H51.1681V59.0965H55.2684L55.2693 63.2303ZM55.2693 56.5488H51.1681V52.415H55.2684L55.2693 56.5488ZM55.2693 48.2988C55.2692 48.5635 55.1649 48.8174 54.9792 49.0046C54.7935 49.1918 54.5416 49.297 54.279 49.2971H37.6475C37.3848 49.2971 37.1329 49.1919 36.947 49.0047C36.7612 48.8175 36.6568 48.5636 36.6566 48.2988V45.7517C36.6566 45.6205 36.6822 45.4906 36.732 45.3694C36.7817 45.2482 36.8547 45.1381 36.9468 45.0454C37.0388 44.9526 37.148 44.8791 37.2683 44.8289C37.3885 44.7788 37.5174 44.753 37.6475 44.7531H54.2781C54.4082 44.753 54.537 44.7788 54.6572 44.829C54.7773 44.8791 54.8865 44.9527 54.9785 45.0454C55.0704 45.1381 55.1434 45.2482 55.1931 45.3693C55.2429 45.4904 55.2685 45.6203 55.2684 45.7514L55.2693 48.2988Z" fill="url(#paint0_linear_1553_1007)"/>
<path d="M56.2118 42.21C56.4501 42.21 56.6859 42.2573 56.906 42.3492C57.1261 42.4411 57.326 42.5758 57.4944 42.7456C57.6629 42.9154 57.7965 43.117 57.8876 43.3389C57.9787 43.5607 58.0256 43.7985 58.0256 44.0386V71.0734C58.0255 71.3134 57.9786 71.5511 57.8874 71.7729C57.7962 71.9947 57.6626 72.1962 57.4942 72.3659C57.3258 72.5356 57.1258 72.6702 56.9058 72.7621C56.6858 72.8539 56.45 72.9011 56.2118 72.9011L35.713 72.9011C35.4748 72.9011 35.2389 72.8538 35.0188 72.7618C34.7988 72.6699 34.5988 72.5351 34.4305 72.3653C34.2621 72.1954 34.1285 71.9937 34.0375 71.7718C33.9465 71.5499 33.8997 71.3121 33.8999 71.072V44.0386C33.8998 43.5538 34.0908 43.0888 34.4308 42.7458C34.7708 42.4029 35.232 42.2101 35.7129 42.21H56.2118ZM35.6797 42.6818C35.3348 42.6905 35.0059 42.8325 34.7615 43.0791C34.5091 43.3336 34.3674 43.6787 34.3675 44.0386V71.0723C34.3673 71.2505 34.4021 71.427 34.4696 71.5917C34.5372 71.7564 34.6363 71.906 34.7612 72.0321C34.8862 72.1581 35.0346 72.2581 35.1979 72.3264C35.3612 72.3946 35.5362 72.4297 35.713 72.4297H56.2119C56.3886 72.4297 56.5636 72.3947 56.7269 72.3265C56.8902 72.2584 57.0386 72.1585 57.1636 72.0325C57.2886 71.9066 57.3877 71.757 57.4554 71.5924C57.5231 71.4279 57.5579 71.2515 57.558 71.0733V44.0386C57.558 43.8604 57.5232 43.6839 57.4556 43.5192C57.3879 43.3545 57.2888 43.2049 57.1638 43.0789C57.0388 42.9529 56.8904 42.8529 56.727 42.7846C56.5637 42.7164 56.3886 42.6813 56.2118 42.6813H35.7131L35.6797 42.6818ZM48.1738 65.5422L48.1748 70.1468H43.6059V65.5422H48.1738ZM55.3202 65.5422L55.3213 70.1468H50.7532V65.5422H55.3202ZM41.028 65.5422V70.1465H36.4597V65.5422H41.028ZM51.2208 69.6754H54.8535L54.8528 66.0136H51.2208V69.6754ZM44.0735 69.6754H47.7071L47.7063 66.0136H44.0735V69.6754ZM36.9273 69.6751H40.5604V66.0136H36.9273V69.6751ZM41.2113 58.8601V63.4653H36.6419V58.8601H41.2113ZM48.3562 58.8601L48.3572 63.4653H43.7877V58.8601H48.3562ZM55.5021 58.8601L55.5031 63.4653H50.9342V58.8601H55.5021ZM51.4018 62.9939H55.0354L55.0346 59.3315H51.4018V62.9939ZM44.2553 62.9939H47.8895L47.8887 59.3315H44.2553V62.9939ZM37.1095 62.9939H40.7437V59.3315H37.1095V62.9939ZM41.2113 52.1786V56.7838H36.6419V52.1786H41.2113ZM48.3562 52.1786L48.3572 56.7838H43.7877V52.1786H48.3562ZM55.5021 52.1786L55.5031 56.7838H50.9342V52.1786H55.5021ZM51.4018 56.3124H55.0354L55.0346 52.65H51.4018V56.3124ZM44.2553 56.3124H47.8895L47.8887 52.65H44.2553V56.3124ZM37.1095 56.3124H40.7437V52.65H37.1095V56.3124ZM54.2781 44.5167C54.4388 44.5167 54.598 44.5486 54.7465 44.6106C54.895 44.6726 55.03 44.7635 55.1437 44.8781C55.2574 44.9927 55.3476 45.1287 55.4091 45.2785C55.4705 45.4282 55.5022 45.5886 55.5022 45.7506L55.503 48.2982C55.5029 48.6254 55.3739 48.9392 55.1444 49.1706C54.9149 49.402 54.6036 49.532 54.279 49.5321H37.6474C37.3227 49.5321 37.0113 49.4021 36.7817 49.1708C36.552 48.9394 36.4229 48.6256 36.4227 48.2983V45.751C36.4227 45.5889 36.4543 45.4284 36.5159 45.2786C36.5774 45.1288 36.6676 44.9927 36.7814 44.878C36.8951 44.7634 37.0302 44.6725 37.1788 44.6105C37.3274 44.5485 37.4866 44.5166 37.6474 44.5167H54.2781ZM37.6473 44.9881C37.5479 44.9881 37.4494 45.0077 37.3576 45.046C37.2657 45.0844 37.1823 45.1406 37.112 45.2114C37.0417 45.2822 36.9859 45.3664 36.9479 45.4589C36.9098 45.5515 36.8903 45.6507 36.8903 45.7509V48.298C36.8904 48.5003 36.9702 48.6943 37.1122 48.8373C37.2542 48.9804 37.4467 49.0607 37.6474 49.0607H54.2789C54.4795 49.0607 54.6719 48.9803 54.8138 48.8373C54.9556 48.6943 55.0353 48.5004 55.0354 48.2982L55.0345 45.7507C55.0346 45.6505 55.015 45.5513 54.977 45.4588C54.939 45.3663 54.8833 45.2822 54.813 45.2114C54.7428 45.1406 54.6594 45.0844 54.5676 45.0461C54.4758 45.0078 54.3775 44.9881 54.2781 44.9881H37.6473Z" fill="white"/>
<path d="M54.2782 44.5166V44.5166C54.439 44.5166 54.5982 44.5485 54.7467 44.6105C54.8953 44.6725 55.0303 44.7634 55.1439 44.878C55.2576 44.9927 55.3478 45.1288 55.4093 45.2786C55.4708 45.4283 55.5023 45.5888 55.5023 45.7509V48.298C55.5022 48.6253 55.3732 48.9391 55.1437 49.1704C54.9141 49.4018 54.6028 49.5319 54.2782 49.532H37.6475C37.3228 49.532 37.0115 49.402 36.7818 49.1706C36.5522 48.9393 36.423 48.6254 36.4229 48.2981V45.7509C36.4228 45.5888 36.4544 45.4282 36.516 45.2784C36.5775 45.1286 36.6677 44.9925 36.7815 44.8779C36.8952 44.7632 37.0303 44.6723 37.1789 44.6103C37.3275 44.5484 37.4867 44.5166 37.6475 44.5166V44.5166H54.2782ZM37.6474 44.988C37.548 44.9879 37.4495 45.0076 37.3577 45.0459C37.2658 45.0842 37.1824 45.1404 37.1121 45.2112C37.0418 45.2821 36.986 45.3662 36.948 45.4588C36.91 45.5514 36.8904 45.6506 36.8904 45.7508V48.2978L36.8907 48.3168C36.8956 48.5122 36.9748 48.6987 37.1124 48.8372C37.2543 48.9802 37.4468 49.0606 37.6475 49.0606H54.2781C54.4787 49.0605 54.6712 48.9801 54.813 48.8371C54.9549 48.6941 55.0346 48.5002 55.0347 48.298V45.7507C55.0347 45.6506 55.0152 45.5514 54.9772 45.4588C54.9392 45.3663 54.8835 45.2822 54.8133 45.2113C54.743 45.1405 54.6596 45.0843 54.5678 45.046C54.476 45.0077 54.3776 44.9879 54.2782 44.988H37.6474Z" fill="white"/>
<path d="M41.2103 52.1787V56.7839H36.6421V52.1787H41.2103ZM37.1097 56.3125H40.7427V52.6501H37.1097V56.3125Z" fill="white"/>
<path d="M48.3559 52.1787V56.7839H43.7876V52.1787H48.3559ZM44.2552 56.3125H47.8882V52.6501H44.2552V56.3125Z" fill="white"/>
<path d="M55.5017 52.1787V56.7839H50.9341V52.1787H55.5017ZM51.4017 56.3125H55.0341V52.6501H51.4017V56.3125Z" fill="white"/>
<path d="M41.2103 58.8604V63.4655H36.6421V58.8604H41.2103ZM37.1097 62.9942H40.7427V59.3317H37.1097V62.9942Z" fill="white"/>
<path d="M48.3559 58.8604V63.4655H43.7876V58.8604H48.3559ZM44.2552 62.9942H47.8882V59.3317H44.2552V62.9942Z" fill="white"/>
<path d="M55.5017 58.8604V63.4655H50.9341V58.8604H55.5017ZM51.4017 62.9942H55.0341V59.3317H51.4017V62.9942Z" fill="white"/>
<path d="M41.0282 65.543V70.1475H36.46V65.543H41.0282ZM36.9275 69.6762H40.5606V66.0143H36.9275V69.6762Z" fill="white"/>
<path d="M48.1736 65.543V70.1475H43.606V65.543H48.1736ZM44.0735 69.6762H47.706V66.0143H44.0735V69.6762Z" fill="white"/>
<path d="M55.3202 65.543V70.1475H50.752V65.543H55.3202ZM51.2195 69.6762H54.8526V66.0143H51.2195V69.6762Z" fill="white"/>
<path d="M62.7296 27.127V27.5983H62.7192V27.127H62.7296Z" fill="white"/>
<path d="M69.2329 32.2654V68.9335C69.233 69.1294 69.1948 69.3233 69.1205 69.5042C69.0462 69.6851 68.9372 69.8495 68.7999 69.9879C68.6625 70.1264 68.4995 70.2362 68.32 70.3111C68.1405 70.386 67.9482 70.4245 67.754 70.4244H57.7915V44.0384C57.7915 43.8293 57.7507 43.6221 57.6713 43.4289C57.5919 43.2356 57.4756 43.06 57.3289 42.9121C57.1821 42.7641 57.008 42.6468 56.8163 42.5667C56.6246 42.4867 56.4191 42.4455 56.2116 42.4455H38.479V28.8532C38.479 28.4578 38.6348 28.0786 38.9122 27.799C39.1895 27.5194 39.5657 27.3623 39.9579 27.3623H62.719L62.7293 27.3701V32.2362H69.1953L69.2329 32.2654Z" fill="url(#paint1_linear_1553_1007)"/>
<path d="M62.7967 27.127L62.8588 27.1734L62.8692 27.1812L62.9635 27.2519V32.0008H69.2754L69.4671 32.1499V68.9338C69.4672 69.1606 69.4229 69.3851 69.3369 69.5947C69.2508 69.8042 69.1247 69.9946 68.9656 70.1549C68.8065 70.3153 68.6177 70.4424 68.4098 70.5292C68.202 70.6159 67.9793 70.6605 67.7543 70.6604L57.5581 70.6604V44.0387C57.5581 43.8605 57.5233 43.684 57.4557 43.5194C57.3881 43.3547 57.2889 43.2051 57.1639 43.079C57.0389 42.953 56.8905 42.853 56.7272 42.7848C56.5638 42.7166 56.3888 42.6815 56.212 42.6815H38.2456V28.8535C38.2456 28.3956 38.4261 27.9564 38.7473 27.6327C39.0684 27.3089 39.5041 27.127 39.9583 27.127H62.7967ZM38.7132 42.2101H56.212C56.4502 42.2101 56.6861 42.2574 56.9061 42.3493C57.1262 42.4412 57.3262 42.5759 57.4946 42.7457C57.663 42.9155 57.7966 43.1172 57.8877 43.339C57.9788 43.5609 58.0257 43.7986 58.0257 44.0388V70.1891H67.7544C67.9179 70.1891 68.0799 70.1567 68.231 70.0937C68.3821 70.0306 68.5193 69.9382 68.635 69.8216C68.7506 69.705 68.8423 69.5667 68.9048 69.4143C68.9674 69.262 68.9995 69.0988 68.9995 68.934V32.4722H62.4959V27.5983H39.9583C39.6281 27.5983 39.3114 27.7306 39.0779 27.966C38.8444 28.2014 38.7132 28.5206 38.7132 28.8535V42.2101Z" fill="white"/>
<path d="M69.4671 32.2373V32.2657H68.9995V32.2373H69.4671Z" fill="white"/>
<path d="M69.2329 32.002V32.4733H69.1953V32.002H69.2329Z" fill="white"/>
<path d="M62.9632 27.3623V27.3701H62.4956V27.3623H62.9632Z" fill="white"/>
<path d="M69.1957 32.2371H62.7295V27.3701L69.1957 32.2371Z" fill="#404041"/>
<path d="M69.8995 32.4732H62.4956V26.9004L69.8995 32.4732ZM62.9632 32.0018H68.4917L62.9632 27.8406V32.0018Z" fill="white"/>
<path d="M54.6663 33.7666V34.238H41.7896V33.7666H54.6663Z" fill="white"/>
<path d="M54.3787 38.3037V38.7751H41.502V38.3037H54.3787Z" fill="white"/>
<path d="M66.449 44.5176V44.9889H59.0103V44.5176H66.449Z" fill="white"/>
<path d="M66.4384 50.3467V50.818H59V50.3467H66.4384Z" fill="white"/>
<path d="M66.449 56.1748V56.6462H59.0103V56.1748H66.449Z" fill="white"/>
<path d="M66.4384 62.0039V62.4753H59V62.0039H66.4384Z" fill="white"/>
<path d="M66.449 67.833V68.3044H59.0103V67.833H66.449Z" fill="white"/>
</g>
</g>
<defs>
<filter id="filter0_d_1553_1007" x="-9.72748e-05" y="0.000391006" width="111.8" height="107.8" filterUnits="userSpaceOnUse" color-interpolation-filters="sRGB">
<feFlood flood-opacity="0" result="BackgroundImageFix"/>
<feColorMatrix in="SourceAlpha" type="matrix" values="0 0 0 0 0 0 0 0 0 0 0 0 0 0 0 0 0 0 127 0" result="hardAlpha"/>
<feMorphology radius="4" operator="dilate" in="SourceAlpha" result="effect1_dropShadow_1553_1007"/>
<feOffset dx="4" dy="4"/>
<feGaussianBlur stdDeviation="4.7"/>
<feComposite in2="hardAlpha" operator="out"/>
<feColorMatrix type="matrix" values="0 0 0 0 0.742582 0 0 0 0 0.742582 0 0 0 0 0.742582 0 0 0 0.25 0"/>
<feBlend mode="normal" in2="BackgroundImageFix" result="effect1_dropShadow_1553_1007"/>
<feBlend mode="normal" in="SourceGraphic" in2="effect1_dropShadow_1553_1007" result="shape"/>
</filter>
<linearGradient id="paint0_linear_1553_1007" x1="34.1338" y1="57.5557" x2="57.7918" y2="57.5557" gradientUnits="userSpaceOnUse">
<stop stop-color="#811849"/>
<stop offset="1" stop-color="#D81C5C"/>
</linearGradient>
<linearGradient id="paint1_linear_1553_1007" x1="38.479" y1="48.8929" x2="69.2329" y2="48.8929" gradientUnits="userSpaceOnUse">
<stop stop-color="#811849"/>
<stop offset="1" stop-color="#D81C5C"/>
</linearGradient>
<clipPath id="clip0_1553_1007">
<rect width="36" height="46" fill="white" transform="translate(33.8999 26.9004)"/>
</clipPath>
</defs>
</svg>
