<svg width="112" height="108" viewBox="0 0 112 108" fill="none" xmlns="http://www.w3.org/2000/svg">
<g filter="url(#filter0_d_1553_1053)">
<path d="M9.3999 33.4004C9.3999 20.1456 20.1451 9.40039 33.3999 9.40039H70.3999C83.6547 9.40039 94.3999 20.1456 94.3999 33.4004V66.4004C94.3999 79.6552 83.6547 90.4004 70.3999 90.4004H33.3999C20.1451 90.4004 9.3999 79.6552 9.3999 66.4004V33.4004Z" fill="white" shape-rendering="crispEdges"/>
<g clip-path="url(#clip0_1553_1053)">
<path d="M50.8484 62.3067V35.0156H52.5968V62.3067H50.8484ZM56.7332 43.203C56.6052 42.1227 56.0864 41.2841 55.1767 40.6871C54.267 40.0901 53.1512 39.7916 51.8292 39.7916C50.8626 39.7916 50.0169 39.9479 49.292 40.2606C48.5741 40.5733 48.0127 41.0033 47.6076 41.5506C47.2096 42.0978 47.0106 42.7197 47.0106 43.4162C47.0106 43.9989 47.1492 44.5 47.4263 44.9193C47.7106 45.3315 48.0731 45.6762 48.5137 45.9534C48.9544 46.2235 49.4163 46.4473 49.8996 46.625C50.3829 46.7956 50.8271 46.9342 51.2322 47.0408L53.4497 47.6378C54.0182 47.787 54.6508 47.9931 55.3473 48.2561C56.0509 48.519 56.7225 48.8779 57.3622 49.3328C58.0089 49.7805 58.5419 50.3562 58.9613 51.0598C59.3806 51.7634 59.5903 52.6269 59.5903 53.6503C59.5903 54.8301 59.2811 55.8962 58.6628 56.8485C58.0516 57.8009 57.156 58.5578 55.9763 59.1192C54.8036 59.6807 53.3786 59.9614 51.7013 59.9614C50.1377 59.9614 48.7838 59.7091 47.6395 59.2045C46.5024 58.6999 45.6069 57.9963 44.953 57.0937C44.3063 56.1911 43.9403 55.1428 43.855 53.9488H46.5841C46.6552 54.7732 46.9324 55.4555 47.4157 55.9957C47.9061 56.5287 48.5244 56.9267 49.2706 57.1896C50.024 57.4455 50.8342 57.5734 51.7013 57.5734C52.7105 57.5734 53.6167 57.41 54.4198 57.083C55.2229 56.749 55.859 56.287 56.3281 55.6972C56.7971 55.1002 57.0317 54.4037 57.0317 53.6077C57.0317 52.8828 56.8291 52.2929 56.424 51.838C56.0189 51.3832 55.4859 51.0136 54.8249 50.7293C54.1639 50.445 53.4497 50.1963 52.6821 49.9831L49.9956 49.2155C48.2899 48.7251 46.9395 48.0251 45.9445 47.1154C44.9495 46.2057 44.452 45.0153 44.452 43.5441C44.452 42.3217 44.7825 41.2556 45.4434 40.3459C46.1115 39.4291 47.007 38.7184 48.1299 38.2138C49.26 37.7021 50.5215 37.4462 51.9145 37.4462C53.3217 37.4462 54.5726 37.6985 55.6671 38.2031C56.7616 38.7006 57.6287 39.3829 58.2683 40.25C58.9151 41.117 59.2562 42.1014 59.2918 43.203H56.7332Z" fill="black"/>
<path d="M58.0605 41.4904V44.6725H54.8783V43.1715C54.8783 42.8413 54.5781 42.5711 54.2779 42.5711H48.0336C47.7334 42.5711 47.4332 42.8413 47.4332 43.1715V47.8847C47.4332 48.2149 47.7334 48.4851 48.0336 48.4851H55.899C57.0698 48.4851 58.0605 49.3857 58.0605 50.4664V58.5418C58.0605 59.6225 57.0698 60.5232 55.899 60.5232H52.7468V62.9248H49.5646V60.5232H46.4125C45.2417 60.5232 44.251 59.6226 44.251 58.5418V55.3597H47.4332V56.8607C47.4332 57.1909 47.7334 57.4611 48.0336 57.4611H54.2779C54.5781 57.4611 54.8783 57.1909 54.8783 56.8607V52.1475C54.8783 51.8173 54.5781 51.5471 54.2779 51.5471H46.4125C45.2417 51.5471 44.251 50.6465 44.251 49.5658V41.4904C44.251 40.4096 45.2417 39.509 46.4125 39.509H49.5646V37.1074H52.7469V39.509H55.899C57.0698 39.509 58.0605 40.4096 58.0605 41.4904Z" fill="url(#paint0_linear_1553_1053)"/>
<path d="M56.7916 53.6077C56.7916 52.9299 56.6035 52.4006 56.2448 51.9978V51.9978C55.8669 51.5735 55.3647 51.2229 54.7302 50.95C54.1432 50.6976 53.5123 50.4731 52.8372 50.2769V57.256C53.372 57.1799 53.8688 57.0479 54.3283 56.861C55.0994 56.5402 55.7002 56.101 56.1402 55.5476C56.5738 54.9954 56.7916 54.3522 56.7916 53.6077ZM52.3568 60.1869C52.1425 60.1967 51.924 60.2016 51.7015 60.2016C51.4939 60.2016 51.2896 60.1972 51.0889 60.1884V62.0665H52.3568V60.1869ZM52.3568 57.7902C52.1429 57.8058 51.9245 57.8137 51.7015 57.8137C51.4943 57.8137 51.2901 57.8065 51.0889 57.7923V59.7075C51.2891 59.7165 51.4933 59.7212 51.7015 59.7212C51.9247 59.7212 52.1431 59.7161 52.3568 59.706V57.7902ZM44.118 54.1891C44.2316 55.2348 44.5758 56.1541 45.1478 56.9528C45.7739 57.817 46.6339 58.4952 47.7367 58.9847C48.5721 59.3531 49.5284 59.5848 50.6084 59.6764V57.744C50.1181 57.6797 49.6464 57.5709 49.1936 57.4171L49.191 57.4162C48.4112 57.1414 47.7585 56.7229 47.2391 56.1583L47.2368 56.1559C46.7587 55.6215 46.4718 54.9622 46.369 54.1891H44.118ZM51.0889 57.3105C51.2895 57.3256 51.4937 57.3332 51.7015 57.3332C51.9255 57.3332 52.1439 57.3249 52.3568 57.3084V50.1399L51.0889 49.7777V57.3105ZM51.0889 49.278L52.3568 49.6402V47.5923L51.1713 47.2731V47.2731C51.144 47.2659 51.1165 47.2586 51.0889 47.2511V49.278ZM51.8294 40.0318C51.573 40.0318 51.3262 40.0431 51.0889 40.0656V46.7527C51.1583 46.7722 51.2265 46.7908 51.2936 46.8084L51.2942 46.8086L51.2949 46.8088L52.3568 47.0947V40.0488C52.1852 40.0375 52.0095 40.0318 51.8294 40.0318ZM52.8372 39.6123C53.7721 39.7302 54.5977 40.0196 55.3087 40.4862C56.2174 41.0825 56.7646 41.9127 56.9416 42.9627H59.0383C58.9645 42.0096 58.6439 41.1551 58.0759 40.3936L58.0756 40.3931L58.0752 40.3926C57.4626 39.5622 56.6295 38.9044 55.5679 38.4218L55.5673 38.4216L55.5667 38.4213C54.7512 38.0453 53.8422 37.8124 52.8372 37.7254V39.6123ZM51.9147 37.6865C51.6337 37.6865 51.3584 37.6971 51.0889 37.7184V39.5831C51.3282 39.5619 51.5751 39.5513 51.8294 39.5513C52.0086 39.5513 52.1844 39.5567 52.3568 39.5674V37.6952C52.2113 37.6894 52.064 37.6865 51.9147 37.6865ZM51.0889 37.2365C51.3592 37.2162 51.6345 37.206 51.9147 37.206C52.0637 37.206 52.211 37.2088 52.3568 37.2143V35.2558H51.0889V37.2365ZM59.8307 53.6503C59.8307 54.8742 59.5093 55.9856 58.8651 56.9782L58.8651 56.9783C58.2263 57.9737 57.2938 58.7582 56.0802 59.3359L56.0802 59.3359C55.1459 59.7832 54.0635 60.055 52.8372 60.1563V62.547H50.6084V60.1585C49.4678 60.0656 48.445 59.8221 47.5428 59.4243L47.5426 59.4242L47.5423 59.4241C46.371 58.9043 45.4402 58.1754 44.7587 57.2346L44.7583 57.2341L44.758 57.2336C44.0834 56.2922 43.7038 55.2006 43.6156 53.9659L43.5972 53.7086H46.8048L46.8237 53.9282C46.8909 54.708 47.1508 55.3387 47.5942 55.8346C48.055 56.3349 48.6379 56.7116 49.349 56.9625C49.7511 57.0989 50.1708 57.1979 50.6084 57.2591V49.6404L49.9298 49.4465L49.9296 49.4465L49.9294 49.4464C48.1989 48.9489 46.8122 48.234 45.7826 47.2927C44.7329 46.333 44.2119 45.0758 44.2119 43.5441C44.2119 42.2756 44.5559 41.1591 45.2493 40.2047L45.2495 40.2044C45.9334 39.2659 46.845 38.5379 47.9776 38.0192L48.0317 37.9947C48.8295 37.6335 49.6888 37.3971 50.6084 37.284V34.7754H52.8372V37.2432C53.9066 37.3315 54.8839 37.5776 55.7667 37.9844H55.7667C56.8937 38.4967 57.7945 39.2031 58.4611 40.1063C59.1378 41.0136 59.495 42.0455 59.5321 43.1952L59.5401 43.4432H56.5199L56.4948 43.2312C56.3752 42.2214 55.8955 41.446 55.0451 40.8879C54.4187 40.4768 53.6844 40.2114 52.8372 40.0969V47.224L53.5123 47.4058H53.5123C54.0902 47.5575 54.7301 47.7662 55.4316 48.031L55.4994 48.0567C56.1978 48.3244 56.8644 48.6843 57.4991 49.1353C58.1753 49.6034 58.7316 50.2049 59.1678 50.9368C59.6142 51.6858 59.8307 52.5943 59.8307 53.6503ZM57.2721 53.6077C57.2721 54.4547 57.0212 55.2041 56.5172 55.8456L56.5167 55.8461L56.5163 55.8467C56.0183 56.473 55.347 56.9576 54.5123 57.3048L54.5114 57.3052L54.5106 57.3055C53.9916 57.5168 53.4335 57.6615 52.8372 57.741V59.6741C53.9997 59.5742 55.0102 59.3155 55.8727 58.9025L55.873 58.9024L55.8732 58.9023C57.0189 58.3571 57.8773 57.6279 58.4608 56.7188L58.4611 56.7182L58.4615 56.7177C59.0535 55.8059 59.3502 54.7856 59.3502 53.6503C59.3502 52.6595 59.1474 51.841 58.7551 51.1828C58.3526 50.5075 57.8429 49.9577 57.2256 49.5303L57.2244 49.5294L57.2231 49.5286C56.5998 49.0853 55.9466 48.7364 55.2634 48.4811L55.2626 48.4808C54.572 48.2201 53.9476 48.0168 53.3889 47.8701L53.3874 47.8697L52.8372 47.7216V49.777C53.5799 49.9872 54.2743 50.2309 54.92 50.5087C55.6075 50.8043 56.1713 51.1928 56.6036 51.6782C57.0551 52.1852 57.2721 52.8357 57.2721 53.6077ZM44.6924 43.5441C44.6924 44.9547 45.1664 46.0783 46.1068 46.9381C47.0671 47.8161 48.381 48.5013 50.0618 48.9845L50.6084 49.1407V47.1123C50.3575 47.0355 50.0946 46.9485 49.8199 46.8515L49.8184 46.851L49.8169 46.8505C49.3187 46.6673 48.8425 46.4365 48.3884 46.1582L48.3872 46.1575L48.386 46.1567C47.9189 45.8629 47.5323 45.4958 47.2288 45.0557L47.2274 45.0538L47.2261 45.0518C46.919 44.5872 46.7705 44.0383 46.7705 43.4162C46.7705 42.6705 46.9847 41.9988 47.4135 41.4093L47.4141 41.4085L47.4147 41.4076C47.8484 40.8218 48.4457 40.3674 49.1962 40.0404L49.1966 40.0402L49.197 40.04C49.6295 39.8535 50.1003 39.7211 50.6084 39.6416V37.7682C49.7554 37.8786 48.9627 38.1005 48.2292 38.4326L48.2286 38.4329C47.1406 38.9219 46.2793 39.607 45.638 40.4871C45.0094 41.3521 44.6924 42.3677 44.6924 43.5441ZM47.251 43.4162C47.251 43.9583 47.3791 44.4107 47.6252 44.7843C47.89 45.1677 48.2276 45.4893 48.6409 45.7494C49.0672 46.0106 49.514 46.2271 49.9814 46.399C50.1987 46.4757 50.4077 46.5457 50.6084 46.6091V40.1284C50.165 40.2032 49.7583 40.3212 49.3873 40.4812L49.3873 40.4812C48.7031 40.7794 48.178 41.1844 47.8017 41.6923C47.4347 42.1971 47.251 42.769 47.251 43.4162Z" fill="white"/>
<path d="M51.9 32.0566C42.0449 32.0566 34.0557 40.0457 34.0557 49.9007C34.0557 59.7556 42.0449 67.7447 51.9 67.7447C61.755 67.7447 69.7437 59.7556 69.7437 49.9007C69.7437 40.0457 61.7551 32.0566 51.9 32.0566ZM51.9 64.4952C43.8396 64.4952 37.3052 57.9609 37.3052 49.9007C37.3052 41.8404 43.8395 35.3061 51.9 35.3061C59.9604 35.3061 66.4941 41.8404 66.4941 49.9007C66.4941 57.9609 59.9604 64.4952 51.9 64.4952Z" fill="url(#paint1_linear_1553_1053)"/>
<path d="M69.5879 49.9004C69.5879 40.1316 61.6691 32.2124 51.9002 32.2124C42.1313 32.2124 34.2119 40.1316 34.2119 49.9004C34.2119 59.6692 42.1313 67.5884 51.9002 67.5884C61.6691 67.5884 69.5879 59.6692 69.5879 49.9004ZM66.3384 49.9004C66.3384 41.9263 59.8744 35.4618 51.9002 35.4618C43.9259 35.4618 37.4614 41.9263 37.4614 49.9004C37.4614 57.8745 43.926 64.3389 51.9002 64.3389C59.8745 64.3389 66.3384 57.8745 66.3384 49.9004ZM66.6504 49.9004C66.6504 58.0468 60.0468 64.6509 51.9002 64.6509C43.7536 64.6509 37.1494 58.0468 37.1494 49.9004C37.1494 41.754 43.7536 35.1499 51.9002 35.1499C60.0468 35.1499 66.6504 41.754 66.6504 49.9004ZM69.8999 49.9004C69.8999 59.8415 61.8414 67.9004 51.9002 67.9004C41.959 67.9004 33.8999 59.8415 33.8999 49.9004C33.8999 39.9593 41.959 31.9004 51.9002 31.9004C61.8414 31.9004 69.8999 39.9593 69.8999 49.9004Z" fill="white"/>
<path d="M64.7724 66.0388C67.3262 66.0388 69.3964 63.9686 69.3964 61.4149C69.3964 58.8612 67.3262 56.791 64.7724 56.791C62.2187 56.791 60.1484 58.8612 60.1484 61.4149C60.1484 63.9686 62.2187 66.0388 64.7724 66.0388Z" fill="url(#paint2_linear_1553_1053)"/>
<path d="M69.1562 61.4149C69.1562 58.9939 67.1935 57.0312 64.7724 57.0312C62.3513 57.0312 60.3887 58.9939 60.3887 61.4149C60.3887 63.8359 62.3514 65.7986 64.7724 65.7986C67.1935 65.7986 69.1561 63.8359 69.1562 61.4149ZM69.6366 61.4149C69.6366 64.1013 67.4588 66.279 64.7724 66.279C62.086 66.279 59.9082 64.1013 59.9082 61.4149C59.9082 58.7285 62.086 56.5508 64.7724 56.5508C67.4588 56.5508 69.6366 58.7285 69.6366 61.4149Z" fill="white"/>
<path d="M40.371 41.8406C42.9248 41.8406 44.995 39.7704 44.995 37.2167C44.995 34.663 42.9248 32.5928 40.371 32.5928C37.8173 32.5928 35.7471 34.663 35.7471 37.2167C35.7471 39.7704 37.8173 41.8406 40.371 41.8406Z" fill="url(#paint3_linear_1553_1053)"/>
<path d="M44.7548 37.2167C44.7548 34.7956 42.7921 32.833 40.3711 32.833C37.95 32.833 35.9873 34.7956 35.9873 37.2167C35.9873 39.6377 37.95 41.6003 40.3711 41.6003C42.7921 41.6003 44.7548 39.6377 44.7548 37.2167ZM45.2352 37.2167C45.2352 39.9031 43.0575 42.0808 40.3711 42.0808C37.6846 42.0808 35.5068 39.9031 35.5068 37.2167C35.5068 34.5303 37.6846 32.3525 40.3711 32.3525C43.0575 32.3525 45.2352 34.5303 45.2352 37.2167Z" fill="white"/>
</g>
</g>
<defs>
<filter id="filter0_d_1553_1053" x="-9.72748e-05" y="0.000391006" width="111.8" height="107.8" filterUnits="userSpaceOnUse" color-interpolation-filters="sRGB">
<feFlood flood-opacity="0" result="BackgroundImageFix"/>
<feColorMatrix in="SourceAlpha" type="matrix" values="0 0 0 0 0 0 0 0 0 0 0 0 0 0 0 0 0 0 127 0" result="hardAlpha"/>
<feMorphology radius="4" operator="dilate" in="SourceAlpha" result="effect1_dropShadow_1553_1053"/>
<feOffset dx="4" dy="4"/>
<feGaussianBlur stdDeviation="4.7"/>
<feComposite in2="hardAlpha" operator="out"/>
<feColorMatrix type="matrix" values="0 0 0 0 0.742582 0 0 0 0 0.742582 0 0 0 0 0.742582 0 0 0 0.25 0"/>
<feBlend mode="normal" in2="BackgroundImageFix" result="effect1_dropShadow_1553_1053"/>
<feBlend mode="normal" in="SourceGraphic" in2="effect1_dropShadow_1553_1053" result="shape"/>
</filter>
<linearGradient id="paint0_linear_1553_1053" x1="44.251" y1="50.0161" x2="58.0605" y2="50.0161" gradientUnits="userSpaceOnUse">
<stop stop-color="#811849"/>
<stop offset="1" stop-color="#D81C5C"/>
</linearGradient>
<linearGradient id="paint1_linear_1553_1053" x1="34.0557" y1="49.9006" x2="69.7437" y2="49.9006" gradientUnits="userSpaceOnUse">
<stop stop-color="#811849"/>
<stop offset="1" stop-color="#D81C5C"/>
</linearGradient>
<linearGradient id="paint2_linear_1553_1053" x1="69.3964" y1="61.4149" x2="60.1484" y2="61.4149" gradientUnits="userSpaceOnUse">
<stop stop-color="#811849"/>
<stop offset="1" stop-color="#D81C5C"/>
</linearGradient>
<linearGradient id="paint3_linear_1553_1053" x1="35.7471" y1="37.2167" x2="44.995" y2="37.2167" gradientUnits="userSpaceOnUse">
<stop stop-color="#811849"/>
<stop offset="1" stop-color="#D81C5C"/>
</linearGradient>
<clipPath id="clip0_1553_1053">
<rect width="36" height="36" fill="white" transform="translate(33.8999 31.9004)"/>
</clipPath>
</defs>
</svg>
