<svg width="112" height="108" viewBox="0 0 112 108" fill="none" xmlns="http://www.w3.org/2000/svg">
<g filter="url(#filter0_d_1553_1068)">
<path d="M9.3999 33.4004C9.3999 20.1456 20.1451 9.40039 33.3999 9.40039H70.3999C83.6547 9.40039 94.3999 20.1456 94.3999 33.4004V66.4004C94.3999 79.6552 83.6547 90.4004 70.3999 90.4004H33.3999C20.1451 90.4004 9.3999 79.6552 9.3999 66.4004V33.4004Z" fill="white" shape-rendering="crispEdges"/>
<g clip-path="url(#clip0_1553_1068)">
<path d="M41.9053 57.3799H34.8301V71.6957H41.9053V57.3799Z" fill="url(#paint0_linear_1553_1068)"/>
<path d="M42.1083 57.1748V71.9003H34.6279V57.1748H42.1083ZM35.0331 71.4906H41.7031V57.5845H35.0331V71.4906Z" fill="white"/>
<path d="M50.8579 48.71H43.7827V71.696H50.8579V48.71Z" fill="url(#paint1_linear_1553_1068)"/>
<path d="M51.0604 48.5049V71.9006H43.5801V48.5049H51.0604ZM43.9852 71.4909H50.6552V48.9145H43.9852V71.4909Z" fill="white"/>
<path d="M59.81 39.043H52.7349V71.6955H59.81V39.043Z" fill="url(#paint2_linear_1553_1068)"/>
<path d="M60.0131 38.8389V71.9011H52.5327V38.8389H60.0131ZM52.9379 71.4914H59.6079V39.2485H52.9379V71.4914Z" fill="white"/>
<path d="M68.7627 31.7148H61.6875V71.6955H68.7627V31.7148Z" fill="url(#paint3_linear_1553_1068)"/>
<path d="M68.9652 31.5107V71.9011H61.4849V31.5107H68.9652ZM61.89 71.4914H68.56V31.9204H61.89V71.4914Z" fill="white"/>
<path d="M38.5739 57.7703C40.9342 57.7703 42.8475 55.8356 42.8475 53.4491C42.8475 51.0626 40.9342 49.1279 38.5739 49.1279C36.2137 49.1279 34.3003 51.0626 34.3003 53.4491C34.3003 55.8356 36.2137 57.7703 38.5739 57.7703Z" fill="url(#paint4_linear_1553_1068)"/>
<path d="M42.4467 53.4494C42.4467 51.2868 40.7129 49.5337 38.5741 49.5337C36.4354 49.5337 34.7016 51.2868 34.7016 53.4494C34.7016 55.6119 36.4354 57.365 38.5741 57.365C40.7129 57.365 42.4467 55.6119 42.4467 53.4494ZM43.2488 53.4494C43.2488 56.0599 41.1559 58.1761 38.5741 58.1761C35.9924 58.1761 33.8994 56.0599 33.8994 53.4494C33.8994 50.8389 35.9924 48.7227 38.5741 48.7227C41.1559 48.7227 43.2488 50.8389 43.2488 53.4494Z" fill="white"/>
<path d="M65.2253 36.948C67.5855 36.948 69.4989 35.0134 69.4989 32.6268C69.4989 30.2403 67.5855 28.3057 65.2253 28.3057C62.865 28.3057 60.9517 30.2403 60.9517 32.6268C60.9517 35.0134 62.865 36.948 65.2253 36.948Z" fill="url(#paint5_linear_1553_1068)"/>
<path d="M69.098 32.6271C69.098 30.4646 67.3642 28.7115 65.2255 28.7115C63.0867 28.7115 61.3529 30.4646 61.3529 32.6271C61.3529 34.7897 63.0867 36.5427 65.2255 36.5427C67.3642 36.5427 69.098 34.7897 69.098 32.6271ZM69.9002 32.6271C69.9002 35.2376 67.8073 37.3538 65.2255 37.3538C62.6437 37.3538 60.5508 35.2376 60.5508 32.6271C60.5508 30.0166 62.6437 27.9004 65.2255 27.9004C67.8073 27.9004 69.9002 30.0166 69.9002 32.6271Z" fill="white"/>
<path d="M56.3264 44.3611C58.6866 44.3611 60.6 42.4265 60.6 40.0399C60.6 37.6534 58.6866 35.7188 56.3264 35.7188C53.9661 35.7188 52.0527 37.6534 52.0527 40.0399C52.0527 42.4265 53.9661 44.3611 56.3264 44.3611Z" fill="url(#paint6_linear_1553_1068)"/>
<path d="M60.1991 40.0392C60.1991 37.8767 58.4653 36.1236 56.3266 36.1236C54.1878 36.1236 52.454 37.8767 52.454 40.0392C52.454 42.2018 54.1878 43.9548 56.3266 43.9548C58.4653 43.9548 60.1991 42.2018 60.1991 40.0392ZM61.0013 40.0392C61.0013 42.6497 58.9083 44.766 56.3266 44.766C53.7448 44.766 51.6519 42.6497 51.6519 40.0392C51.6519 37.4287 53.7448 35.3125 56.3266 35.3125C58.9083 35.3125 61.0013 37.4287 61.0013 40.0392Z" fill="white"/>
<path d="M47.3205 51.159C49.6808 51.159 51.5941 49.2243 51.5941 46.8378C51.5941 44.4513 49.6808 42.5166 47.3205 42.5166C44.9602 42.5166 43.0469 44.4513 43.0469 46.8378C43.0469 49.2243 44.9602 51.159 47.3205 51.159Z" fill="url(#paint7_linear_1553_1068)"/>
<path d="M51.1927 46.8381C51.1927 44.6755 49.459 42.9224 47.3202 42.9224C45.1815 42.9224 43.4477 44.6755 43.4477 46.8381C43.4477 49.0006 45.1815 50.7537 47.3202 50.7537C49.459 50.7537 51.1927 49.0006 51.1927 46.8381ZM51.9949 46.8381C51.9949 49.4485 49.902 51.5648 47.3202 51.5648C44.7385 51.5648 42.6455 49.4485 42.6455 46.8381C42.6455 44.2276 44.7385 42.1113 47.3202 42.1113C49.902 42.1113 51.9949 44.2276 51.9949 46.8381Z" fill="white"/>
<path d="M52.454 36.9482V42.5167H51.6519V36.9482H52.454Z" fill="white"/>
</g>
</g>
<defs>
<filter id="filter0_d_1553_1068" x="-9.72748e-05" y="0.000391006" width="111.8" height="107.8" filterUnits="userSpaceOnUse" color-interpolation-filters="sRGB">
<feFlood flood-opacity="0" result="BackgroundImageFix"/>
<feColorMatrix in="SourceAlpha" type="matrix" values="0 0 0 0 0 0 0 0 0 0 0 0 0 0 0 0 0 0 127 0" result="hardAlpha"/>
<feMorphology radius="4" operator="dilate" in="SourceAlpha" result="effect1_dropShadow_1553_1068"/>
<feOffset dx="4" dy="4"/>
<feGaussianBlur stdDeviation="4.7"/>
<feComposite in2="hardAlpha" operator="out"/>
<feColorMatrix type="matrix" values="0 0 0 0 0.742582 0 0 0 0 0.742582 0 0 0 0 0.742582 0 0 0 0.25 0"/>
<feBlend mode="normal" in2="BackgroundImageFix" result="effect1_dropShadow_1553_1068"/>
<feBlend mode="normal" in="SourceGraphic" in2="effect1_dropShadow_1553_1068" result="shape"/>
</filter>
<linearGradient id="paint0_linear_1553_1068" x1="34.8235" y1="64.5297" x2="68.2412" y2="64.6038" gradientUnits="userSpaceOnUse">
<stop stop-color="#811849"/>
<stop offset="1" stop-color="#D81C5C"/>
</linearGradient>
<linearGradient id="paint1_linear_1553_1068" x1="34.8336" y1="60.1746" x2="68.251" y2="60.2487" gradientUnits="userSpaceOnUse">
<stop stop-color="#811849"/>
<stop offset="1" stop-color="#D81C5C"/>
</linearGradient>
<linearGradient id="paint2_linear_1553_1068" x1="34.8439" y1="55.3206" x2="68.2613" y2="55.3947" gradientUnits="userSpaceOnUse">
<stop stop-color="#811849"/>
<stop offset="1" stop-color="#D81C5C"/>
</linearGradient>
<linearGradient id="paint3_linear_1553_1068" x1="34.8523" y1="51.6363" x2="68.2697" y2="51.7104" gradientUnits="userSpaceOnUse">
<stop stop-color="#811849"/>
<stop offset="1" stop-color="#D81C5C"/>
</linearGradient>
<linearGradient id="paint4_linear_1553_1068" x1="34.3006" y1="53.4491" x2="42.8475" y2="53.4491" gradientUnits="userSpaceOnUse">
<stop stop-color="#811849"/>
<stop offset="1" stop-color="#D81C5C"/>
</linearGradient>
<linearGradient id="paint5_linear_1553_1068" x1="60.9517" y1="32.6268" x2="69.4986" y2="32.6268" gradientUnits="userSpaceOnUse">
<stop stop-color="#811849"/>
<stop offset="1" stop-color="#D81C5C"/>
</linearGradient>
<linearGradient id="paint6_linear_1553_1068" x1="52.0527" y1="40.0399" x2="60.5997" y2="40.0399" gradientUnits="userSpaceOnUse">
<stop stop-color="#811849"/>
<stop offset="1" stop-color="#D81C5C"/>
</linearGradient>
<linearGradient id="paint7_linear_1553_1068" x1="43.0469" y1="46.8378" x2="51.5939" y2="46.8378" gradientUnits="userSpaceOnUse">
<stop stop-color="#811849"/>
<stop offset="1" stop-color="#D81C5C"/>
</linearGradient>
<clipPath id="clip0_1553_1068">
<rect width="36" height="44" fill="white" transform="translate(33.8999 27.9004)"/>
</clipPath>
</defs>
</svg>
