<svg width="24" height="19" viewBox="0 0 24 19" fill="none" xmlns="http://www.w3.org/2000/svg">
<path d="M16.707 2.30555e-05H7.29302C6.33615 -0.00238587 5.38822 0.183999 4.5035 0.548501C3.61878 0.913002 2.81464 1.44845 2.13719 2.1242C1.45973 2.79994 0.922228 3.60272 0.555494 4.48651C0.18876 5.37029 0 6.31774 0 7.2746C0 8.23145 0.18876 9.1789 0.555494 10.0627C0.922228 10.9465 1.45973 11.7492 2.13719 12.425C2.81464 13.1007 3.61878 13.6362 4.5035 14.0007C5.38822 14.3652 6.33615 14.5516 7.29302 14.5491H16.707C17.6638 14.5516 18.6118 14.3652 19.4965 14.0007C20.3812 13.6362 21.1854 13.1007 21.8628 12.425C22.5403 11.7492 23.0778 10.9465 23.4445 10.0627C23.8112 9.1789 24 8.23145 24 7.2746C24 6.31774 23.8112 5.37029 23.4445 4.48651C23.0778 3.60272 22.5403 2.79994 21.8628 2.1242C21.1854 1.44845 20.3812 0.913002 19.4965 0.548501C18.6118 0.183999 17.6638 -0.00238587 16.707 2.30555e-05ZM18.7929 9.25477H5.10045V8.02426H18.7929V9.25477ZM18.7929 7.00672H5.10045V5.77769H18.7929V7.00672ZM18.7929 4.76027H5.10045V3.53113H18.7929V4.76027Z" fill="white"/>
<path d="M13.4986 14.5498L9.24609 18.8023V14.5498H13.4986Z" fill="white"/>
</svg>
