<svg width="1440" height="702" viewBox="0 0 1440 702" fill="none" xmlns="http://www.w3.org/2000/svg">
<mask id="mask0_665_1834" style="mask-type:luminance" maskUnits="userSpaceOnUse" x="0" y="0" width="1440" height="702">
<path d="M1440 0H0V702H1440V0Z" fill="white"/>
</mask>
<g mask="url(#mask0_665_1834)">
<path d="M1439.93 0H-0.0722656V702H1439.93V0Z" fill="url(#paint0_linear_665_1834)"/>
<path opacity="0.28" d="M282.528 630.39C458.246 630.39 600.694 461.457 600.694 253.066C600.694 44.676 458.246 -124.258 282.528 -124.258C106.809 -124.258 -35.6387 44.676 -35.6387 253.066C-35.6387 461.457 106.809 630.39 282.528 630.39Z" fill="url(#paint1_radial_665_1834)"/>
<path opacity="0.36" d="M17.915 327.008C17.915 327.008 107.91 103.611 334.915 29.0078C318.236 29.0078 84.5474 62.2901 17.915 327.008Z" fill="url(#paint2_linear_665_1834)"/>
<path opacity="0.25" d="M54.3616 539.319C230.08 539.319 372.528 329.831 372.528 71.4136C372.528 -187.004 230.08 -396.492 54.3616 -396.492C-121.357 -396.492 -263.805 -187.004 -263.805 71.4136C-263.805 329.831 -121.357 539.319 54.3616 539.319Z" fill="url(#paint3_radial_665_1834)"/>
<path opacity="0.15" d="M321.428 443C498.435 443 641.928 335.996 641.928 204C641.928 72.0039 498.435 -35 321.428 -35C144.42 -35 0.927734 72.0039 0.927734 204C0.927734 335.996 144.42 443 321.428 443Z" fill="url(#paint4_radial_665_1834)"/>
<path opacity="0.11" d="M18.915 333.008C18.915 333.008 108.91 109.611 335.915 35.0078C319.236 35.0078 85.5473 68.29 18.915 333.008Z" fill="url(#paint5_linear_665_1834)"/>
</g>
<defs>
<linearGradient id="paint0_linear_665_1834" x1="719.928" y1="0" x2="719.928" y2="702" gradientUnits="userSpaceOnUse">
<stop offset="0.005" stop-color="#942C56"/>
<stop offset="0.1454" stop-color="#97315A" stop-opacity="0.9658"/>
<stop offset="0.3139" stop-color="#A13F65" stop-opacity="0.8669"/>
<stop offset="0.497" stop-color="#B15678" stop-opacity="0.7031"/>
<stop offset="0.6902" stop-color="#C87791" stop-opacity="0.4744"/>
<stop offset="0.8895" stop-color="#E4A0B2" stop-opacity="0.1838"/>
<stop offset="1" stop-color="#F6BAC7" stop-opacity="0"/>
</linearGradient>
<radialGradient id="paint1_radial_665_1834" cx="0" cy="0" r="1" gradientUnits="userSpaceOnUse" gradientTransform="translate(282.528 253.063) scale(318.166 377.319)">
<stop offset="0.005" stop-color="#AF1F25"/>
<stop offset="0.032" stop-color="#AF1F25" stop-opacity="0.9694"/>
<stop offset="0.5072" stop-color="#AF1F25" stop-opacity="0.4515"/>
<stop offset="0.8403" stop-color="#AF1F25" stop-opacity="0.1261"/>
<stop offset="1" stop-color="#AF1F25" stop-opacity="0"/>
</radialGradient>
<linearGradient id="paint2_linear_665_1834" x1="17.915" y1="178.008" x2="334.915" y2="178.008" gradientUnits="userSpaceOnUse">
<stop stop-color="#821849"/>
<stop offset="1" stop-color="#D91C5C"/>
</linearGradient>
<radialGradient id="paint3_radial_665_1834" cx="0" cy="0" r="1" gradientUnits="userSpaceOnUse" gradientTransform="translate(54.3616 71.4136) scale(318.166 467.906)">
<stop offset="0.005" stop-color="#AF1F25"/>
<stop offset="0.032" stop-color="#AF1F25" stop-opacity="0.9694"/>
<stop offset="0.5072" stop-color="#AF1F25" stop-opacity="0.4515"/>
<stop offset="0.8403" stop-color="#AF1F25" stop-opacity="0.1261"/>
<stop offset="1" stop-color="#AF1F25" stop-opacity="0"/>
</radialGradient>
<radialGradient id="paint4_radial_665_1834" cx="0" cy="0" r="1" gradientUnits="userSpaceOnUse" gradientTransform="translate(321.417 203.994) scale(320.489 238.994)">
<stop offset="0.005" stop-color="#F9AFD4"/>
<stop offset="0.3776" stop-color="#F9B0D4" stop-opacity="0.9925"/>
<stop offset="0.5118" stop-color="#F9B2D5" stop-opacity="0.9652"/>
<stop offset="0.6074" stop-color="#F9B6D8" stop-opacity="0.9177"/>
<stop offset="0.6848" stop-color="#FABBDA" stop-opacity="0.8498"/>
<stop offset="0.7512" stop-color="#FAC2DE" stop-opacity="0.7613"/>
<stop offset="0.8098" stop-color="#FBCBE3" stop-opacity="0.6521"/>
<stop offset="0.8629" stop-color="#FCD5E9" stop-opacity="0.5218"/>
<stop offset="0.9117" stop-color="#FDE1EF" stop-opacity="0.3703"/>
<stop offset="0.9559" stop-color="#FEEFF6" stop-opacity="0.2021"/>
<stop offset="0.9963" stop-color="#FFFEFE" stop-opacity="0.0184"/>
<stop offset="1" stop-color="white" stop-opacity="0"/>
</radialGradient>
<linearGradient id="paint5_linear_665_1834" x1="18.915" y1="184.008" x2="335.915" y2="184.008" gradientUnits="userSpaceOnUse">
<stop stop-color="#821849"/>
<stop offset="1" stop-color="#D91C5C"/>
</linearGradient>
</defs>
</svg>
