<svg width="158" height="44" viewBox="0 0 158 44" fill="none" xmlns="http://www.w3.org/2000/svg">
<path d="M46.0688 0C46.0688 0 17.5386 7.41378 2.50548 39.0002C2.50548 38.1666 8.16608 13.2494 34.3348 2.87497H0V42.3349H39.717V3.70868C39.717 3.70868 41.6561 2.21962 46.0688 0Z" fill="#C6C7CA"/>
<path d="M56.4092 5.87793C59.5136 5.87793 61.742 6.06302 63.0944 6.43319C65.2974 7.10645 66.637 8.39377 67.1132 10.2952C67.288 11.0019 67.3756 12.3313 67.376 14.2834C67.376 16.3027 67.2947 17.7162 67.1319 18.524C66.9736 19.322 66.6187 20.0681 66.0991 20.6948C65.1725 21.7888 63.5701 22.4871 61.2917 22.7898C60.29 22.9413 58.4747 23.017 55.8459 23.017C52.4903 23.017 50.1117 22.7646 48.7099 22.2597C46.8321 21.5699 45.6803 20.3415 45.2546 18.5744C45.1044 17.9521 45.0293 16.7237 45.0293 14.8892C45.0293 12.7184 45.1232 11.1955 45.311 10.3204C45.4803 9.4813 45.8765 8.70443 46.4565 8.07395C47.433 7.04769 48.9854 6.39141 51.1137 6.1051C52.0901 5.95365 53.8552 5.87793 56.4092 5.87793ZM49.9117 12.3902V15.1416C49.9117 16.6225 49.9806 17.6406 50.1184 18.1958C50.2472 18.7378 50.5588 19.219 51.001 19.5589C51.3513 19.8283 51.9021 20.0092 52.6535 20.1016C53.4046 20.1942 54.7442 20.2405 56.6721 20.2404C58.5247 20.2404 59.7955 20.1436 60.4843 19.9501C60.8078 19.8678 61.1104 19.7185 61.3724 19.512C61.6344 19.3054 61.85 19.0462 62.0053 18.7512C62.2275 18.3402 62.3678 17.8902 62.4184 17.426C62.4683 16.9634 62.4933 15.9327 62.4935 14.3339C62.4935 12.5165 62.4309 11.347 62.3057 10.8253C62.0804 9.84952 61.492 9.21846 60.5406 8.93216C59.8645 8.74715 58.3371 8.65459 55.9585 8.65447C54.431 8.65447 53.3418 8.69655 52.691 8.78071C52.0396 8.8651 51.5139 9.04178 51.1136 9.31076C50.3372 9.79903 49.9365 10.8255 49.9117 12.3902Z" fill="#7E1948"/>
<path d="M76.9906 8.80585H76.8403L76.8779 9.89128C76.9531 10.9684 76.9906 12.0706 76.9906 13.1979V21.881C77.0153 22.3018 76.9339 22.5753 76.7465 22.7014C76.5587 22.8276 76.1518 22.8823 75.5259 22.8655H73.7231C73.0969 22.882 72.69 22.8273 72.5025 22.7014C72.3147 22.5752 72.2333 22.3017 72.2584 21.881V7.01374C72.2332 6.59336 72.3145 6.31992 72.5025 6.19343C72.6903 6.06719 73.0972 6.01249 73.7231 6.02935H79.169C79.7194 6.01276 80.0699 6.038 80.2205 6.10507C80.3708 6.17251 80.5586 6.37444 80.7839 6.71086L86.8307 14.561C87.4563 15.4192 88.4327 16.7907 89.7601 18.6754L90.7366 20.0637H90.8868L90.8492 18.9783C90.7742 17.9352 90.7366 16.8498 90.7366 15.7222V7.01374C90.7113 6.59336 90.7927 6.31992 90.9807 6.19343C91.1685 6.06719 91.5754 6.01249 92.2013 6.02935H94.0416C94.6672 6.01276 95.0741 6.06745 95.2622 6.19343C95.45 6.31961 95.5314 6.59305 95.5063 7.01374V21.8811C95.5309 22.3019 95.4496 22.5753 95.2622 22.7014C95.0744 22.8276 94.6676 22.8823 94.0416 22.8655H88.5582C88.0072 22.8821 87.6566 22.8568 87.5067 22.7898C87.3564 22.7227 87.1561 22.5292 86.9057 22.2092L80.258 13.6271C79.6319 12.7353 78.8181 11.5237 77.8167 9.99225L76.9906 8.80585Z" fill="#7E1948"/>
<path d="M105.834 8.70492V13.0717H116.05C116.676 13.0551 117.082 13.1098 117.27 13.2358C117.458 13.362 117.54 13.6355 117.515 14.0561V14.46C117.539 14.8808 117.458 15.1542 117.27 15.2803C117.083 15.4066 116.676 15.4613 116.05 15.4444H105.834V20.1898H116.801C117.427 20.1733 117.833 20.2279 118.022 20.3539C118.209 20.4801 118.291 20.7535 118.266 21.1742V21.881C118.29 22.3018 118.209 22.5753 118.022 22.7013C117.834 22.8275 117.427 22.8822 116.801 22.8654H102.492C101.866 22.882 101.459 22.8273 101.271 22.7013C101.083 22.5751 101.002 22.3017 101.027 21.881V7.01374C101.002 6.59335 101.083 6.31991 101.271 6.19343C101.459 6.06718 101.866 6.01249 102.492 6.02935H116.688C117.314 6.01275 117.721 6.06744 117.909 6.19343C118.097 6.31961 118.178 6.59304 118.153 7.01374V7.7205C118.178 8.14134 118.096 8.4148 117.909 8.54088C117.721 8.66707 117.314 8.72177 116.688 8.70496L105.834 8.70492Z" fill="#7E1948"/>
<path d="M128.294 7.01374V21.881C128.319 22.3019 128.237 22.5753 128.05 22.7014C127.862 22.8276 127.455 22.8823 126.829 22.8655H124.952C124.325 22.882 123.919 22.8274 123.731 22.7014C123.543 22.5752 123.462 22.3018 123.487 21.881V7.01374C123.462 6.59335 123.543 6.31991 123.731 6.19343C123.919 6.06718 124.326 6.01249 124.952 6.02935H126.829C127.455 6.01275 127.862 6.06744 128.05 6.19343C128.238 6.31958 128.319 6.59302 128.294 7.01374Z" fill="#7E1948"/>
<path d="M150.302 15.7978V15.924C153.181 16.025 154.596 17.1188 154.546 19.2054V21.881C154.571 22.3018 154.489 22.5753 154.302 22.7014C154.114 22.8276 153.707 22.8823 153.081 22.8655H151.166C150.539 22.882 150.133 22.8273 149.945 22.7014C149.757 22.5752 149.676 22.3017 149.701 21.881V19.8364C149.726 18.9112 149.438 18.2423 148.837 17.8297C148.236 17.4176 147.272 17.2282 145.945 17.2618H139.185V21.881C139.209 22.3018 139.128 22.5753 138.941 22.7014C138.753 22.8276 138.346 22.8823 137.72 22.8654H135.842C135.216 22.882 134.809 22.8273 134.622 22.7014C134.434 22.5752 134.352 22.3017 134.378 21.881V7.01374C134.352 6.59335 134.434 6.31991 134.622 6.19343C134.809 6.06718 135.216 6.01249 135.842 6.02935H146.696C149.726 6.02935 151.835 6.39535 153.025 7.12735C154.214 7.85933 154.808 9.16769 154.809 11.0524C154.809 12.7353 154.515 13.888 153.926 14.5105C153.338 15.1332 152.129 15.5623 150.302 15.7978ZM139.185 14.5105H145.908C147.41 14.5105 148.424 14.3422 148.95 14.0056C149.35 13.7872 149.613 13.5179 149.738 13.1979C149.864 12.8784 149.926 12.3568 149.926 11.6329C149.926 10.4553 149.701 9.6896 149.25 9.33596C148.799 8.98255 147.798 8.80584 146.246 8.80584H139.185V14.5105Z" fill="#7E1948"/>
<path d="M51.7073 32.5246C50.5345 32.5246 49.707 32.5485 49.2247 32.5964C48.7422 32.6442 48.3822 32.7359 48.1448 32.8715C47.7885 33.0868 47.6104 33.4417 47.6105 33.9361C47.6105 34.614 47.9668 35.0247 48.6792 35.1682C49.0355 35.24 50.0597 35.2958 51.7519 35.3356C53.1024 35.3676 54.0599 35.4115 54.6241 35.4672C55.089 35.5005 55.5465 35.6012 55.9823 35.7663C56.3681 35.9337 56.6427 36.153 56.8061 36.4242C56.9693 36.6953 57.0509 37.0701 57.051 37.5486C57.051 38.5774 56.6354 39.2313 55.8041 39.5104C55.2665 39.6823 54.709 39.7848 54.1453 39.8153C53.4698 39.8671 52.3751 39.893 50.8613 39.8931C49.8371 39.8931 49.0874 39.8712 48.6124 39.8273C48.1523 39.7864 47.6974 39.7003 47.2543 39.5702C46.3191 39.2672 45.8515 38.6053 45.8516 37.5845C45.8541 37.5098 45.8773 37.4374 45.9186 37.3751C45.9599 37.3128 46.0176 37.2631 46.0854 37.2316C46.2661 37.1338 46.4699 37.0863 46.6753 37.094C47.0017 37.094 47.2392 37.1658 47.3879 37.3093C47.462 37.3811 47.5213 37.6603 47.566 38.1467C47.5956 38.5294 47.8479 38.7886 48.323 38.9242C48.6427 39.0126 48.9713 39.0648 49.3026 39.0797C49.6885 39.1036 50.3787 39.1156 51.3734 39.1156C52.0264 39.1156 52.5459 39.1096 52.9319 39.0977C53.3178 39.0857 53.6777 39.0577 54.0118 39.014C54.2623 38.9894 54.509 38.9352 54.7466 38.8524C54.9033 38.788 55.0412 38.6852 55.1474 38.5534C55.2543 38.4275 55.3238 38.2741 55.3477 38.1108C55.3731 37.8965 55.3843 37.6807 55.3812 37.4648C55.3812 37.1299 55.3107 36.8767 55.1696 36.7053C55.0284 36.5339 54.7946 36.4123 54.4682 36.3404C54.2375 36.2895 54.0029 36.2575 53.7668 36.2448C53.507 36.2289 52.6944 36.2009 51.3289 36.161C49.9779 36.1292 49.117 36.0973 48.7461 36.0653C48.3703 36.0327 47.9979 35.9687 47.6328 35.8739C47.0239 35.7145 46.5897 35.4912 46.3303 35.2041C46.0704 34.917 45.9405 34.5183 45.9405 34.0079C45.9405 33.1068 46.3042 32.5087 47.0316 32.2136C47.5465 32.0185 48.086 31.8957 48.6347 31.8488C49.2728 31.7811 50.2302 31.7472 51.5069 31.7471C52.902 31.7471 53.9374 31.7949 54.613 31.8906C55.2882 31.9863 55.7966 32.1618 56.1381 32.4169C56.5536 32.7121 56.7614 33.1507 56.7616 33.7328C56.7611 33.808 56.7402 33.8817 56.7009 33.946C56.6617 34.0103 56.6057 34.0627 56.5389 34.0976C56.3551 34.198 56.1471 34.2456 55.9378 34.2352C55.5962 34.2352 55.3513 34.1594 55.203 34.0079C55.1435 33.9522 55.0768 33.7089 55.0027 33.2782C54.9727 33.0709 54.8094 32.9114 54.5128 32.7997C54.19 32.6824 53.8532 32.608 53.5109 32.5785C53.1397 32.5426 52.5385 32.5246 51.7073 32.5246Z" fill="#7E1948"/>
<path d="M64.9552 31.7471C66.8996 31.7471 68.2429 31.8348 68.9853 32.0102C70.2022 32.2815 70.9369 32.9154 71.1896 33.9122C71.2617 34.4313 71.2915 34.9553 71.2786 35.4792C71.2786 36.4203 71.2637 37.0383 71.2341 37.3332C71.2011 37.641 71.1262 37.9429 71.0114 38.2304C70.7442 38.9242 70.0837 39.3907 69.0298 39.63C68.5497 39.7366 68.0622 39.8065 67.5714 39.8393C67.0593 39.8751 66.254 39.8931 65.1556 39.8931C63.8642 39.8931 62.9477 39.8772 62.4058 39.8453C61.8922 39.8175 61.3819 39.7454 60.8807 39.63C59.8415 39.3829 59.181 38.9164 58.899 38.2304C58.7853 37.9405 58.7104 37.6368 58.6764 37.3273C58.6465 37.0363 58.6316 36.4243 58.6318 35.4911C58.6318 34.6618 58.6801 34.0737 58.7766 33.7268C58.8867 33.3568 59.0898 33.0212 59.3666 32.7519C59.8565 32.2655 60.7248 31.9585 61.9717 31.8308C62.5951 31.7752 63.5896 31.7472 64.9552 31.7471ZM65.022 32.5246C63.6711 32.5246 62.7359 32.5485 62.2165 32.5964C61.6968 32.6442 61.3108 32.7479 61.0587 32.9074C60.658 33.1627 60.4131 33.5973 60.324 34.2112C60.309 34.323 60.3016 34.8573 60.3018 35.8142C60.3018 36.9146 60.3463 37.6164 60.4353 37.9194C60.5836 38.4618 60.9992 38.8047 61.6822 38.9481C62.1866 39.0599 63.2554 39.1158 64.8884 39.1156C66.239 39.1156 67.1741 39.0917 67.6938 39.0438C68.2133 38.996 68.5992 38.8924 68.8516 38.7328C69.2524 38.4777 69.4974 38.0431 69.5864 37.429C69.6011 37.3174 69.6085 36.7791 69.6087 35.8142C69.6087 34.7217 69.5641 34.0239 69.4751 33.7209C69.3266 33.1786 68.911 32.8357 68.2283 32.6921C67.7234 32.5805 66.6547 32.5247 65.022 32.5246Z" fill="#7E1948"/>
<path d="M75.0859 38.9721H81.5875C81.893 38.96 82.199 38.98 82.5003 39.0319C82.7525 39.0958 82.8787 39.2154 82.8788 39.3908C82.8788 39.5662 82.7526 39.6858 82.5003 39.7496C82.199 39.8016 81.893 39.8217 81.5875 39.8095H74.6852C74.1358 39.8254 73.7833 39.7895 73.6275 39.7019C73.4716 39.6142 73.4011 39.4228 73.416 39.1276V32.5007C73.416 32.2297 73.4531 32.0543 73.5274 31.9744C73.6609 31.823 73.9058 31.7472 74.2621 31.7471C74.6034 31.7471 74.8409 31.8228 74.9746 31.9744C75.0486 32.0542 75.0857 32.2296 75.0859 32.5007V38.9721Z" fill="#7E1948"/>
<path d="M95.5248 32.5007V37.4171C95.5248 37.8956 95.4728 38.2584 95.3689 38.5056C95.2386 38.783 95.0296 39.0159 94.7677 39.1755C94.337 39.4547 93.7655 39.6441 93.0533 39.7437C92.3408 39.8433 91.1682 39.8931 89.5353 39.8932C87.8133 39.8932 86.6258 39.8254 85.9729 39.6899C85.1269 39.5223 84.548 39.2771 84.2362 38.9542C83.9245 38.6312 83.7686 38.1188 83.7686 37.4171V32.5007C83.7686 32.2297 83.8057 32.0543 83.8799 31.9744C84.0135 31.823 84.2585 31.7473 84.6147 31.7471C84.956 31.7471 85.1935 31.8229 85.3272 31.9744C85.4013 32.0542 85.4384 32.2297 85.4385 32.5007V37.4171C85.4385 38.0074 85.5424 38.3981 85.7502 38.5894C85.9728 38.7888 86.3439 38.9264 86.8635 39.002C87.3828 39.0779 88.2438 39.1158 89.4463 39.1157C90.1588 39.1157 90.7302 39.1097 91.1607 39.0978C91.559 39.0882 91.9566 39.0583 92.3519 39.008C92.6242 38.9801 92.8928 38.924 93.1534 38.8406C93.3233 38.7772 93.4731 38.6699 93.5876 38.5295C93.7005 38.3979 93.7773 38.2392 93.8103 38.069C93.8438 37.8534 93.8587 37.6353 93.8548 37.4171V32.5007C93.8548 32.2297 93.8919 32.0543 93.9661 31.9744C94.0997 31.823 94.3446 31.7472 94.7009 31.7471C95.0421 31.7471 95.2796 31.8228 95.4133 31.9744C95.4875 32.0542 95.5247 32.2297 95.5248 32.5007Z" fill="#7E1948"/>
<path d="M103.495 32.668V39.1394C103.495 39.4105 103.458 39.586 103.384 39.6657C103.25 39.8171 103.013 39.8928 102.671 39.893C102.315 39.893 102.07 39.8172 101.937 39.6657C101.862 39.5861 101.825 39.4106 101.825 39.1394V32.668H98.1293C97.6691 32.668 97.3722 32.6481 97.2387 32.6082C96.9715 32.5525 96.8379 32.4329 96.8379 32.2493C96.8379 32.074 96.9641 31.9544 97.2164 31.8904C97.5178 31.8385 97.8238 31.8184 98.1293 31.8306H107.147C107.622 31.8306 107.926 31.8505 108.06 31.8904C108.327 31.9463 108.46 32.0659 108.46 32.2493C108.46 32.4248 108.327 32.5484 108.06 32.6201C107.758 32.6707 107.452 32.6907 107.147 32.6799L103.495 32.668Z" fill="#7E1948"/>
<path d="M111.467 32.5007V39.1395C111.467 39.4107 111.43 39.5861 111.355 39.6659C111.222 39.8172 110.984 39.893 110.643 39.8931C110.287 39.8931 110.042 39.8174 109.908 39.6659C109.834 39.5862 109.797 39.4108 109.797 39.1395V32.5007C109.797 32.2297 109.834 32.0543 109.908 31.9744C110.042 31.823 110.287 31.7472 110.643 31.7471C110.984 31.7471 111.222 31.8228 111.355 31.9744C111.43 32.0542 111.467 32.2296 111.467 32.5007Z" fill="#7E1948"/>
<path d="M119.949 31.7471C121.894 31.7471 123.237 31.8348 123.979 32.0102C125.196 32.2815 125.931 32.9154 126.184 33.9122C126.256 34.4313 126.286 34.9553 126.273 35.4792C126.273 36.4203 126.258 37.0383 126.228 37.3332C126.195 37.641 126.12 37.9429 126.006 38.2304C125.738 38.9242 125.078 39.3907 124.024 39.63C123.544 39.7366 123.056 39.8065 122.566 39.8393C122.053 39.8751 121.248 39.8931 120.15 39.8931C118.858 39.8931 117.942 39.8772 117.4 39.8453C116.886 39.8175 116.376 39.7454 115.875 39.63C114.836 39.3829 114.175 38.9164 113.893 38.2304C113.779 37.9405 113.705 37.6368 113.671 37.3273C113.641 37.0363 113.626 36.4243 113.626 35.4911C113.626 34.6618 113.674 34.0737 113.771 33.7268C113.881 33.3568 114.084 33.0212 114.361 32.7519C114.851 32.2655 115.719 31.9585 116.966 31.8308C117.589 31.7752 118.584 31.7472 119.949 31.7471ZM120.016 32.5246C118.665 32.5246 117.73 32.5485 117.211 32.5964C116.691 32.6442 116.305 32.7479 116.053 32.9074C115.652 33.1627 115.407 33.5973 115.318 34.2112C115.303 34.323 115.296 34.8573 115.296 35.8142C115.296 36.9146 115.34 37.6164 115.429 37.9194C115.578 38.4618 115.993 38.8047 116.676 38.9481C117.181 39.0599 118.25 39.1158 119.883 39.1156C121.233 39.1156 122.168 39.0917 122.688 39.0438C123.207 38.996 123.593 38.8924 123.846 38.7328C124.247 38.4777 124.492 38.0431 124.581 37.429C124.595 37.3174 124.603 36.7791 124.603 35.8142C124.603 34.7217 124.558 34.0239 124.469 33.7209C124.321 33.1786 123.905 32.8357 123.222 32.6921C122.718 32.5805 121.649 32.5247 120.016 32.5246Z" fill="#7E1948"/>
<path d="M130.035 32.5964V39.1395C130.035 39.4106 129.998 39.5861 129.924 39.6658C129.79 39.8172 129.553 39.8929 129.211 39.8931C128.855 39.8931 128.61 39.8173 128.477 39.6658C128.402 39.5862 128.365 39.4107 128.365 39.1395V33.2782C128.365 32.8556 128.388 32.5805 128.432 32.4528C128.495 32.3032 128.604 32.1774 128.744 32.094C129.15 31.8617 129.612 31.7458 130.08 31.7591C130.399 31.7474 130.717 31.8002 131.015 31.9145C131.156 31.974 131.29 32.0482 131.416 32.1359C131.519 32.2117 131.749 32.4051 132.106 32.716L136.514 36.5917L137.939 37.8357C138.355 38.2026 138.592 38.4099 138.652 38.4577C138.876 38.6793 139.114 38.887 139.364 39.0797V32.5007C139.364 32.2297 139.401 32.0543 139.476 31.9744C139.609 31.823 139.854 31.7472 140.21 31.7471C140.552 31.7471 140.789 31.8228 140.923 31.9744C140.997 32.0542 141.034 32.2296 141.034 32.5007V38.35C141.034 38.7806 141.012 39.0597 140.968 39.1873C140.905 39.337 140.795 39.4628 140.656 39.5462C140.25 39.7786 139.788 39.8945 139.32 39.8812C139.001 39.8929 138.683 39.84 138.385 39.7256C138.232 39.6671 138.086 39.5908 137.95 39.4983C137.839 39.4187 137.613 39.2273 137.271 38.9242L132.061 34.3786L131.059 33.4815C131.015 33.4498 130.844 33.3022 130.547 33.0389C130.503 33.0072 130.332 32.8597 130.035 32.5964Z" fill="#7E1948"/>
<path d="M148.805 32.5246C147.632 32.5246 146.805 32.5485 146.322 32.5964C145.84 32.6442 145.48 32.7359 145.242 32.8715C144.886 33.0868 144.708 33.4417 144.708 33.9361C144.708 34.614 145.064 35.0247 145.777 35.1682C146.133 35.24 147.157 35.2958 148.85 35.3356C150.2 35.3676 151.158 35.4115 151.722 35.4672C152.187 35.5005 152.644 35.6012 153.08 35.7663C153.466 35.9337 153.74 36.153 153.904 36.4242C154.067 36.6953 154.149 37.0701 154.149 37.5486C154.149 38.5774 153.733 39.2313 152.902 39.5104C152.364 39.6823 151.807 39.7848 151.243 39.8153C150.567 39.8671 149.473 39.893 147.959 39.8931C146.935 39.8931 146.185 39.8712 145.71 39.8273C145.25 39.7864 144.795 39.7003 144.352 39.5702C143.417 39.2672 142.949 38.6053 142.949 37.5845C142.952 37.5098 142.975 37.4374 143.016 37.3751C143.058 37.3128 143.115 37.2631 143.183 37.2316C143.364 37.1338 143.568 37.0863 143.773 37.094C144.099 37.094 144.337 37.1658 144.486 37.3093C144.56 37.3811 144.619 37.6603 144.664 38.1467C144.693 38.5294 144.946 38.7886 145.421 38.9242C145.74 39.0126 146.069 39.0648 146.4 39.0797C146.786 39.1036 147.476 39.1156 148.471 39.1156C149.124 39.1156 149.644 39.1096 150.03 39.0977C150.415 39.0857 150.775 39.0577 151.109 39.014C151.36 38.9894 151.607 38.9352 151.844 38.8524C152.001 38.788 152.139 38.6852 152.245 38.5534C152.352 38.4275 152.421 38.2741 152.445 38.1108C152.471 37.8965 152.482 37.6807 152.479 37.4648C152.479 37.1299 152.408 36.8767 152.267 36.7053C152.126 36.5339 151.892 36.4123 151.566 36.3404C151.335 36.2895 151.101 36.2575 150.864 36.2448C150.605 36.2289 149.792 36.2009 148.427 36.161C147.076 36.1292 146.215 36.0973 145.844 36.0653C145.468 36.0327 145.096 35.9687 144.73 35.8739C144.122 35.7145 143.687 35.4912 143.428 35.2041C143.168 34.917 143.038 34.5183 143.038 34.0079C143.038 33.1068 143.402 32.5087 144.129 32.2136C144.644 32.0185 145.184 31.8957 145.732 31.8488C146.37 31.7811 147.328 31.7472 148.605 31.7471C150 31.7471 151.035 31.7949 151.711 31.8906C152.386 31.9863 152.894 32.1618 153.236 32.4169C153.651 32.7121 153.859 33.1507 153.859 33.7328C153.859 33.808 153.838 33.8817 153.799 33.946C153.759 34.0103 153.703 34.0627 153.637 34.0976C153.453 34.198 153.245 34.2456 153.035 34.2352C152.694 34.2352 152.449 34.1594 152.301 34.0079C152.241 33.9522 152.174 33.7089 152.1 33.2782C152.07 33.0709 151.907 32.9114 151.61 32.7997C151.288 32.6824 150.951 32.608 150.609 32.5785C150.237 32.5426 149.636 32.5246 148.805 32.5246Z" fill="#7E1948"/>
<path d="M45.5537 27.5127H154.808" stroke="#7C1747" stroke-width="0.8" stroke-miterlimit="10"/>
</svg>
