<svg width="19" height="19" viewBox="0 0 19 19" fill="none" xmlns="http://www.w3.org/2000/svg">
<path d="M5.83301 2.5C5.83301 2.27899 5.74515 2.06644 5.58887 1.91016C5.43268 1.75405 5.22082 1.6661 5 1.66602H2.5C2.27899 1.66602 2.06644 1.75388 1.91016 1.91016C1.75388 2.06644 1.66602 2.27899 1.66602 2.5C1.6661 6.25696 3.15894 9.85994 5.81543 12.5166C8.47219 15.1734 12.0758 16.666 15.833 16.666C16.054 16.666 16.2656 16.5782 16.4219 16.4219C16.5782 16.2656 16.666 16.054 16.666 15.833V13.333C16.666 13.112 16.5782 12.9004 16.4219 12.7441C16.2656 12.5879 16.054 12.5 15.833 12.5H13.333C13.2036 12.5 13.0757 12.53 12.96 12.5879C12.8444 12.6457 12.7436 12.7296 12.666 12.833L12.6621 12.8389L12.3662 13.2246C12.1368 13.526 11.8118 13.7412 11.4443 13.833C11.0771 13.9246 10.6897 13.8883 10.3457 13.7305C10.3392 13.7275 10.3326 13.7238 10.3262 13.7207C7.84635 12.5036 5.83941 10.4997 4.61914 8.02148L4.61719 8.01855C4.44849 7.67251 4.40445 7.27793 4.49316 6.90332C4.58191 6.5289 4.7977 6.19645 5.10352 5.96289L5.10938 5.95898L5.5 5.66602C5.60333 5.58843 5.68733 5.48765 5.74512 5.37207C5.80284 5.25652 5.83296 5.12916 5.83301 5V2.5ZM7.5 5C7.49995 5.388 7.40887 5.77112 7.23535 6.11816C7.0618 6.46506 6.81031 6.76725 6.5 7L6.11523 7.28711C7.16964 9.42746 8.90157 11.1584 11.041 12.2139L11.3369 11.8271C11.5692 11.5192 11.8698 11.2692 12.2148 11.0967C12.562 10.9231 12.9449 10.833 13.333 10.833H15.833C16.496 10.833 17.1317 11.0966 17.6006 11.5654C18.0694 12.0343 18.333 12.67 18.333 13.333V15.833C18.333 16.496 18.0694 17.1317 17.6006 17.6006C17.1317 18.0694 16.496 18.333 15.833 18.333C11.6337 18.333 7.60604 16.6646 4.63672 13.6953C1.66767 10.7261 8.62152e-05 6.69899 0 2.5C0 1.83696 0.262604 1.20029 0.731445 0.731445C1.20029 0.262604 1.83696 0 2.5 0H5C5.66285 8.62209e-05 6.29883 0.262783 6.76758 0.731445C7.23642 1.20029 7.5 1.83696 7.5 2.5V5Z" fill="#9B9BBD"/>
</svg>
