<svg width="24" height="24" viewBox="0 0 24 24" fill="none" xmlns="http://www.w3.org/2000/svg">
<path d="M23.9999 8.54453L19.934 12.6105L11.3896 4.06598L15.4556 0L16.0739 0.618336C15.3373 1.35497 15.2276 2.4363 15.827 3.03567C16.428 3.63662 17.5092 3.52694 18.2459 2.79031L18.7223 3.26671C17.9856 4.00335 17.8776 5.08624 18.4769 5.68561C19.0779 6.28656 20.1592 6.17691 20.8958 5.44028L21.3722 5.91665C20.6356 6.65329 20.5275 7.73616 21.1269 8.33558C21.7278 8.93653 22.8092 8.82683 23.5458 8.09019L23.9999 8.54453Z" fill="white"/>
<path d="M10.6994 4.75586L19.2438 13.3002L8.54439 23.9996L8.00807 23.4633C8.74283 22.7286 8.85436 21.6454 8.25341 21.0444C7.65404 20.4451 6.56927 20.555 5.83456 21.2898L5.35815 20.8134C6.09292 20.0787 6.20451 18.9954 5.60355 18.3945C5.00414 17.7951 3.92095 17.9067 3.18618 18.6414L2.7083 18.1635C3.44301 17.4288 3.55459 16.3456 2.95522 15.7461C2.35426 15.1452 1.27104 15.2568 0.536323 15.9915L0 15.4552L10.6994 4.75586Z" fill="white"/>
</svg>
