<svg width="20" height="20" viewBox="0 0 20 20" fill="none" xmlns="http://www.w3.org/2000/svg">
<path d="M5.71429 10C5.71429 8.97343 5.77809 7.98094 5.89718 7.04623C4.97834 7.22683 4.14978 7.46551 3.44252 7.74841C2.61399 8.07982 1.97543 8.46252 1.55181 8.86314C1.12921 9.2628 0.952402 9.64714 0.9524 10L0.952511 10.0166C0.957968 10.3649 1.13581 10.7434 1.55181 11.1369C1.97543 11.5375 2.61399 11.9202 3.44252 12.2516C4.14977 12.5345 4.97835 12.7731 5.89718 12.9537C5.7781 12.019 5.71429 11.0266 5.71429 10ZM12.9537 14.1028C12.019 14.2219 11.0266 14.2857 10 14.2857C8.97343 14.2857 7.98094 14.2219 7.04623 14.1028C7.22684 15.0217 7.46551 15.8502 7.74841 16.5575C8.07982 17.386 8.46253 18.0246 8.86314 18.4482C9.25657 18.8642 9.63514 19.042 9.98345 19.0475L10 19.0476C10.3529 19.0476 10.7372 18.8708 11.1369 18.4482C11.5375 18.0246 11.9202 17.386 12.2516 16.5575C12.5345 15.8502 12.7731 15.0217 12.9537 14.1028ZM18.8062 12.085C18.2991 12.4876 17.6528 12.8393 16.9112 13.1359C16.0572 13.4775 15.0553 13.7545 13.951 13.951C13.7545 15.0553 13.4775 16.0572 13.1359 16.9112C12.8393 17.6528 12.4876 18.2991 12.085 18.8062C15.4074 18.0225 18.0225 15.4074 18.8062 12.085ZM1.19383 12.085C1.97747 15.4074 4.5926 18.0225 7.91493 18.8061C7.51243 18.299 7.16076 17.6528 6.86415 16.9112C6.52253 16.0572 6.24549 15.0553 6.04897 13.951C4.94471 13.7545 3.94285 13.4775 3.08881 13.1359C2.34724 12.8393 1.70095 12.4876 1.19383 12.085ZM7.91493 1.19383C4.59261 1.97749 1.97749 4.59261 1.19383 7.91493C1.70094 7.51242 2.34726 7.16077 3.08881 6.86415C3.94285 6.52253 4.94471 6.24549 6.04897 6.04897C6.24549 4.94471 6.52253 3.94285 6.86415 3.08881C7.16077 2.34726 7.51242 1.70094 7.91493 1.19383ZM12.085 1.19383C12.4876 1.70095 12.8393 2.34724 13.1359 3.08881C13.4775 3.94285 13.7545 4.94471 13.951 6.04897C15.0553 6.24549 16.0572 6.52253 16.9112 6.86415C17.6528 7.16076 18.299 7.51243 18.8061 7.91493C18.0225 4.5926 15.4074 1.97747 12.085 1.19383ZM10 0.9524C9.64714 0.952402 9.2628 1.12921 8.86314 1.55181C8.46252 1.97543 8.07982 2.61399 7.74841 3.44252C7.46551 4.14978 7.22683 4.97834 7.04623 5.89718C7.98094 5.77809 8.97343 5.71429 10 5.71429C11.0266 5.71429 12.019 5.7781 12.9537 5.89718C12.7731 4.97835 12.5345 4.14977 12.2516 3.44252C11.9202 2.61399 11.5375 1.97543 11.1369 1.55181C10.7372 1.12921 10.3529 0.9524 10 0.9524ZM6.66669 10C6.66669 11.0981 6.74251 12.1481 6.88044 13.1196C7.85187 13.2575 8.90187 13.3333 10 13.3333C11.0981 13.3333 12.1481 13.2575 13.1196 13.1196C13.2575 12.1481 13.3333 11.0981 13.3333 10C13.3333 8.90187 13.2575 7.85187 13.1196 6.88044C12.1481 6.74251 11.0981 6.66669 10 6.66669C8.90187 6.66669 7.85187 6.74251 6.88044 6.88044C6.74251 7.85187 6.66669 8.90187 6.66669 10ZM14.2857 10C14.2857 11.0266 14.2219 12.019 14.1028 12.9537C15.0217 12.7731 15.8502 12.5345 16.5575 12.2516C17.386 11.9202 18.0246 11.5375 18.4482 11.1369C18.8708 10.7372 19.0476 10.3529 19.0476 10C19.0476 9.64714 18.8708 9.2628 18.4482 8.86314C18.0246 8.46253 17.386 8.07982 16.5575 7.74841C15.8502 7.46551 15.0217 7.22684 14.1028 7.04623C14.2219 7.98094 14.2857 8.97343 14.2857 10ZM20 10C20 15.5228 15.5228 20 10 20C4.49873 20 0.0350094 15.5578 0.000223214 10.0647L0 10L0.000223214 9.93532C0.0350188 4.44225 4.49873 4.69401e-06 10 0L10.0647 0.000223214C15.5578 0.0350094 20 4.49873 20 10Z" fill="#303033"/>
</svg>
