<svg width="112" height="108" viewBox="0 0 112 108" fill="none" xmlns="http://www.w3.org/2000/svg">
<g filter="url(#filter0_d_1768_2707)">
<path d="M9.3999 33.4004C9.3999 20.1456 20.1451 9.40039 33.3999 9.40039H70.3999C83.6547 9.40039 94.3999 20.1456 94.3999 33.4004V66.4004C94.3999 79.6552 83.6547 90.4004 70.3999 90.4004H33.3999C20.1451 90.4004 9.3999 79.6552 9.3999 66.4004V33.4004Z" fill="white" shape-rendering="crispEdges"/>
<path d="M29.4863 42.86H37.4721V43.4696H29.2012L24.7207 38.1057L25.1886 37.7148L29.4863 42.86Z" fill="url(#paint0_linear_1768_2707)"/>
<path d="M37.4721 49.5957V50.2053H29.3438V49.5957H37.4721Z" fill="url(#paint1_linear_1768_2707)"/>
<path d="M52.1859 64.3262V71.4577H51.6152V64.3262H52.1859Z" fill="url(#paint2_linear_1768_2707)"/>
<path d="M52.1889 28.1621V35.4727H51.6108V28.1621H52.1889Z" fill="url(#paint3_linear_1768_2707)"/>
<path d="M74.4559 49.5957V50.2053H66.3271V49.5957H74.4559Z" fill="url(#paint4_linear_1768_2707)"/>
<path d="M37.4721 56.332V56.9417H29.4864L25.1886 62.0872L24.7207 61.6964L29.2012 56.332H37.4721Z" fill="url(#paint5_linear_1768_2707)"/>
<path d="M79.0786 38.1057L74.5985 43.4696H66.3271V42.86H74.3133L78.6106 37.7148L79.0786 38.1057Z" fill="url(#paint6_linear_1768_2707)"/>
<path d="M74.5985 56.332L79.0786 61.6964L78.6106 62.0872L74.3134 56.9417H66.3271V56.332H74.5985Z" fill="url(#paint7_linear_1768_2707)"/>
<path d="M45.4691 27.2027V35.4737H44.8594V27.4878L39.7144 23.1906L40.1052 22.7227L45.4691 27.2027Z" fill="url(#paint8_linear_1768_2707)"/>
<path d="M64.0843 23.1906L58.9392 27.4879V35.4737H58.3296V27.2027L63.6935 22.7227L64.0843 23.1906Z" fill="url(#paint9_linear_1768_2707)"/>
<path d="M58.9392 64.3262V72.3124L64.0843 76.6097L63.6935 77.0776L58.3296 72.5975V64.3262H58.9392Z" fill="url(#paint10_linear_1768_2707)"/>
<path d="M45.4691 64.3262V72.5975L40.1052 77.0776L39.7144 76.6097L44.8594 72.3124V64.3262H45.4691Z" fill="url(#paint11_linear_1768_2707)"/>
<path d="M59.985 35.4727H43.8144C40.3117 35.4727 37.4722 38.3122 37.4722 41.8149V57.9856C37.4722 61.4883 40.3117 64.3278 43.8144 64.3278H59.985C63.4877 64.3278 66.3272 61.4883 66.3272 57.9856V41.8149C66.3272 38.3122 63.4877 35.4727 59.985 35.4727Z" fill="url(#paint12_linear_1768_2707)"/>
<path d="M65.9717 41.8147C65.9717 38.5081 63.2913 35.8276 59.9847 35.8276H43.8142C40.5076 35.8276 37.8272 38.5081 37.8272 41.8147V57.9853C37.8272 61.2918 40.5076 63.9723 43.8142 63.9723H59.9847C63.2913 63.9723 65.9717 61.2918 65.9717 57.9853V41.8147ZM66.6822 57.9853C66.6822 61.6842 63.6836 64.6828 59.9847 64.6828H43.8142C40.1153 64.6828 37.1167 61.6842 37.1167 57.9853V41.8147C37.1167 38.1158 40.1153 35.1172 43.8142 35.1172H59.9847C63.6836 35.1172 66.6822 38.1158 66.6822 41.8147V57.9853Z" fill="white"/>
<path d="M62.5345 39.2676H41.2656V60.5365H62.5345V39.2676Z" fill="url(#paint13_linear_1768_2707)"/>
<path d="M62.8899 38.9121V60.8915H40.9106V38.9121H62.8899ZM41.6211 60.181H62.1795V39.6226H41.6211V60.181Z" fill="white"/>
<path d="M78.8446 63.5886C79.7832 63.5886 80.5442 62.8277 80.5442 61.889C80.5442 60.9504 79.7832 60.1895 78.8446 60.1895C77.9059 60.1895 77.145 60.9504 77.145 61.889C77.145 62.8277 77.9059 63.5886 78.8446 63.5886Z" fill="url(#paint14_linear_1768_2707)"/>
<path d="M80.1897 61.8908C80.1897 61.1483 79.5878 60.5464 78.8453 60.5464C78.1029 60.5464 77.501 61.1483 77.501 61.8908C77.501 62.6332 78.1029 63.2351 78.8453 63.2351C79.5878 63.2351 80.1896 62.6332 80.1897 61.8908ZM80.9001 61.8908C80.9001 63.0256 79.9802 63.9455 78.8453 63.9455C77.7105 63.9455 76.7905 63.0256 76.7905 61.8908C76.7905 60.7559 77.7105 59.8359 78.8453 59.8359C79.9802 59.8359 80.9001 60.7559 80.9001 61.8908Z" fill="white"/>
<path d="M74.4554 51.6003C75.3941 51.6003 76.155 50.8394 76.155 49.9007C76.155 48.9621 75.3941 48.2012 74.4554 48.2012C73.5168 48.2012 72.7559 48.9621 72.7559 49.9007C72.7559 50.8394 73.5168 51.6003 74.4554 51.6003Z" fill="url(#paint15_linear_1768_2707)"/>
<path d="M75.8005 49.9005C75.8005 49.1581 75.1986 48.5562 74.4562 48.5562C73.7137 48.5562 73.1118 49.1581 73.1118 49.9005C73.1118 50.643 73.7137 51.2448 74.4562 51.2448C75.1986 51.2448 75.8005 50.643 75.8005 49.9005ZM76.511 49.9005C76.511 51.0354 75.591 51.9553 74.4562 51.9553C73.3213 51.9553 72.4014 51.0354 72.4014 49.9005C72.4014 48.7657 73.3213 47.8457 74.4562 47.8457C75.591 47.8457 76.511 48.7657 76.511 49.9005Z" fill="white"/>
<path d="M78.8446 39.6101C79.7832 39.6101 80.5442 38.8492 80.5442 37.9105C80.5442 36.9719 79.7832 36.2109 78.8446 36.2109C77.9059 36.2109 77.145 36.9719 77.145 37.9105C77.145 38.8492 77.9059 39.6101 78.8446 39.6101Z" fill="url(#paint16_linear_1768_2707)"/>
<path d="M80.1897 37.9103C80.1897 37.1678 79.5878 36.5659 78.8453 36.5659C78.1029 36.5659 77.501 37.1678 77.501 37.9103C77.501 38.6527 78.1029 39.2546 78.8453 39.2546C79.5878 39.2546 80.1896 38.6527 80.1897 37.9103ZM80.9001 37.9103C80.9001 39.0451 79.9802 39.9651 78.8453 39.9651C77.7105 39.9651 76.7905 39.0451 76.7905 37.9103C76.7905 36.7754 77.7105 35.8555 78.8453 35.8555C79.9802 35.8555 80.9001 36.7755 80.9001 37.9103Z" fill="white"/>
<path d="M63.889 24.8249C64.8277 24.8249 65.5886 24.064 65.5886 23.1254C65.5886 22.1867 64.8277 21.4258 63.889 21.4258C62.9504 21.4258 62.1895 22.1867 62.1895 23.1254C62.1895 24.064 62.9504 24.8249 63.889 24.8249Z" fill="url(#paint17_linear_1768_2707)"/>
<path d="M65.2336 23.1251C65.2336 22.3827 64.6317 21.7808 63.8893 21.7808C63.1468 21.7808 62.5449 22.3827 62.5449 23.1251C62.5449 23.8676 63.1468 24.4694 63.8893 24.4694C64.6317 24.4694 65.2336 23.8676 65.2336 23.1251ZM65.9441 23.1251C65.9441 24.26 65.0241 25.1799 63.8893 25.1799C62.7545 25.1799 61.8345 24.26 61.8345 23.1251C61.8345 21.9903 62.7544 21.0703 63.8893 21.0703C65.0241 21.0703 65.9441 21.9903 65.9441 23.1251Z" fill="white"/>
<path d="M51.9003 29.2136C52.8389 29.2136 53.5998 28.4527 53.5998 27.514C53.5998 26.5754 52.8389 25.8145 51.9003 25.8145C50.9616 25.8145 50.2007 26.5754 50.2007 27.514C50.2007 28.4527 50.9616 29.2136 51.9003 29.2136Z" fill="url(#paint18_linear_1768_2707)"/>
<path d="M53.2448 27.5138C53.2448 26.7713 52.643 26.1695 51.9005 26.1694C51.1581 26.1694 50.5562 26.7713 50.5562 27.5138C50.5562 28.2563 51.1581 28.8581 51.9005 28.8581C52.643 28.8581 53.2448 28.2563 53.2448 27.5138ZM53.9553 27.5138C53.9553 28.6486 53.0353 29.5686 51.9005 29.5686C50.7657 29.5686 49.8457 28.6486 49.8457 27.5138C49.8457 26.379 50.7657 25.459 51.9005 25.459C53.0353 25.459 53.9553 26.379 53.9553 27.5138Z" fill="white"/>
<path d="M39.9095 24.8249C40.8482 24.8249 41.6091 24.064 41.6091 23.1254C41.6091 22.1867 40.8482 21.4258 39.9095 21.4258C38.9709 21.4258 38.21 22.1867 38.21 23.1254C38.21 24.064 38.9709 24.8249 39.9095 24.8249Z" fill="url(#paint19_linear_1768_2707)"/>
<path d="M41.2536 23.1251C41.2536 22.3827 40.6518 21.7808 39.9093 21.7808C39.1668 21.7808 38.565 22.3827 38.565 23.1251C38.565 23.8676 39.1668 24.4694 39.9093 24.4694C40.6518 24.4694 41.2536 23.8676 41.2536 23.1251ZM41.9641 23.1251C41.9641 24.26 41.0441 25.1799 39.9093 25.1799C38.7745 25.1799 37.8545 24.26 37.8545 23.1251C37.8545 21.9903 38.7745 21.0703 39.9093 21.0703C41.0441 21.0703 41.9641 21.9903 41.9641 23.1251Z" fill="white"/>
<path d="M24.9545 63.5886C25.8931 63.5886 26.654 62.8277 26.654 61.889C26.654 60.9504 25.8931 60.1895 24.9545 60.1895C24.0158 60.1895 23.2549 60.9504 23.2549 61.889C23.2549 62.8277 24.0158 63.5886 24.9545 63.5886Z" fill="url(#paint20_linear_1768_2707)"/>
<path d="M26.299 61.8908C26.299 61.1483 25.6972 60.5464 24.9547 60.5464C24.2123 60.5464 23.6104 61.1483 23.6104 61.8908C23.6104 62.6332 24.2123 63.2351 24.9547 63.2351C25.6972 63.2351 26.299 62.6332 26.299 61.8908ZM27.0095 61.8908C27.0095 63.0256 26.0895 63.9455 24.9547 63.9455C23.8199 63.9455 22.8999 63.0256 22.8999 61.8908C22.8999 60.7559 23.8199 59.8359 24.9547 59.8359C26.0895 59.8359 27.0095 60.7559 27.0095 61.8908Z" fill="white"/>
<path d="M29.3436 51.6003C30.2823 51.6003 31.0432 50.8394 31.0432 49.9007C31.0432 48.9621 30.2823 48.2012 29.3436 48.2012C28.405 48.2012 27.644 48.9621 27.644 49.9007C27.644 50.8394 28.405 51.6003 29.3436 51.6003Z" fill="url(#paint21_linear_1768_2707)"/>
<path d="M30.6882 49.9005C30.6882 49.1581 30.0863 48.5562 29.3439 48.5562C28.6014 48.5562 27.9995 49.1581 27.9995 49.9005C27.9995 50.643 28.6014 51.2448 29.3439 51.2448C30.0863 51.2448 30.6882 50.643 30.6882 49.9005ZM31.3986 49.9005C31.3986 51.0354 30.4787 51.9553 29.3439 51.9553C28.209 51.9553 27.2891 51.0354 27.2891 49.9005C27.2891 48.7657 28.209 47.8457 29.3439 47.8457C30.4787 47.8457 31.3986 48.7657 31.3986 49.9005Z" fill="white"/>
<path d="M24.9545 39.6101C25.8931 39.6101 26.654 38.8492 26.654 37.9105C26.654 36.9719 25.8931 36.2109 24.9545 36.2109C24.0158 36.2109 23.2549 36.9719 23.2549 37.9105C23.2549 38.8492 24.0158 39.6101 24.9545 39.6101Z" fill="url(#paint22_linear_1768_2707)"/>
<path d="M26.299 37.9103C26.299 37.1678 25.6972 36.5659 24.9547 36.5659C24.2123 36.5659 23.6104 37.1678 23.6104 37.9103C23.6104 38.6527 24.2123 39.2546 24.9547 39.2546C25.6972 39.2546 26.299 38.6527 26.299 37.9103ZM27.0095 37.9103C27.0095 39.0451 26.0895 39.9651 24.9547 39.9651C23.8199 39.9651 22.8999 39.0451 22.8999 37.9103C22.8999 36.7754 23.8199 35.8555 24.9547 35.8555C26.0895 35.8555 27.0095 36.7755 27.0095 37.9103Z" fill="white"/>
<path d="M63.889 78.3738C64.8277 78.3738 65.5886 77.6128 65.5886 76.6742C65.5886 75.7355 64.8277 74.9746 63.889 74.9746C62.9504 74.9746 62.1895 75.7355 62.1895 76.6742C62.1895 77.6128 62.9504 78.3738 63.889 78.3738Z" fill="url(#paint23_linear_1768_2707)"/>
<path d="M65.2336 76.6759C65.2336 75.9335 64.6317 75.3316 63.8893 75.3316C63.1468 75.3316 62.5449 75.9335 62.5449 76.6759C62.5449 77.4184 63.1468 78.0202 63.8893 78.0202C64.6317 78.0202 65.2336 77.4184 65.2336 76.6759ZM65.9441 76.6759C65.9441 77.8107 65.0241 78.7307 63.8893 78.7307C62.7545 78.7307 61.8345 77.8107 61.8345 76.6759C61.8345 75.5411 62.7544 74.6211 63.8893 74.6211C65.0241 74.6211 65.9441 75.5411 65.9441 76.6759Z" fill="white"/>
<path d="M51.9003 73.9851C52.8389 73.9851 53.5998 73.2242 53.5998 72.2855C53.5998 71.3469 52.8389 70.5859 51.9003 70.5859C50.9616 70.5859 50.2007 71.3469 50.2007 72.2855C50.2007 73.2242 50.9616 73.9851 51.9003 73.9851Z" fill="url(#paint24_linear_1768_2707)"/>
<path d="M53.2448 72.2872C53.2448 71.5448 52.643 70.9429 51.9005 70.9429C51.1581 70.9429 50.5562 71.5448 50.5562 72.2872C50.5562 73.0297 51.1581 73.6316 51.9005 73.6316C52.643 73.6315 53.2448 73.0297 53.2448 72.2872ZM53.9553 72.2872C53.9553 73.4221 53.0353 74.3421 51.9005 74.3421C50.7657 74.3421 49.8457 73.4221 49.8457 72.2872C49.8457 71.1524 50.7657 70.2324 51.9005 70.2324C53.0353 70.2324 53.9553 71.1524 53.9553 72.2872Z" fill="white"/>
<path d="M39.9095 78.3738C40.8482 78.3738 41.6091 77.6128 41.6091 76.6742C41.6091 75.7355 40.8482 74.9746 39.9095 74.9746C38.9709 74.9746 38.21 75.7355 38.21 76.6742C38.21 77.6128 38.9709 78.3738 39.9095 78.3738Z" fill="url(#paint25_linear_1768_2707)"/>
<path d="M41.2536 76.6759C41.2536 75.9335 40.6518 75.3316 39.9093 75.3316C39.1668 75.3316 38.565 75.9335 38.565 76.6759C38.565 77.4184 39.1668 78.0202 39.9093 78.0202C40.6518 78.0202 41.2536 77.4184 41.2536 76.6759ZM41.9641 76.6759C41.9641 77.8107 41.0441 78.7307 39.9093 78.7307C38.7745 78.7307 37.8545 77.8107 37.8545 76.6759C37.8545 75.5411 38.7745 74.6211 39.9093 74.6211C41.0441 74.6211 41.9641 75.5411 41.9641 76.6759Z" fill="white"/>
<path d="M59.8502 41.8906V56.0244H58.1387V41.8906H59.8502Z" fill="black"/>
<path d="M45.5858 56.0244H43.7915L48.9812 41.8906H50.7479L55.9377 56.0244H54.1433L49.9198 44.1266H49.8094L45.5858 56.0244ZM46.2483 50.5034H53.4808V52.0217H46.2483V50.5034Z" fill="black"/>
<path d="M59.8502 41.8906V56.0244H58.1387V41.8906H59.8502Z" fill="white"/>
<path d="M45.5858 56.0244H43.7915L48.9812 41.8906H50.7479L55.9377 56.0244H54.1433L49.9198 44.1266H49.8094L45.5858 56.0244ZM46.2483 50.5034H53.4808V52.0217H46.2483V50.5034Z" fill="white"/>
<path d="M60.0055 41.7344V56.1792H57.9829V41.7344H60.0055ZM58.294 55.8682H59.6944V42.0455H58.294V55.8682Z" fill="white"/>
<path d="M50.8552 41.7344L56.1592 56.1792H54.0322L52.6113 52.1765H47.1153L45.6944 56.1792H43.5674L48.8714 41.7344H50.8552ZM44.013 55.8682H45.4746L46.7852 52.1765H46.0915V50.3472H47.4346L49.6982 43.9704H50.0284L52.292 50.3472H53.6351V52.1765H52.9414L54.2519 55.8682H55.7135L50.6381 42.0455H49.0885L44.013 55.8682ZM52.831 51.8654H53.324V50.6582H52.4024L52.831 51.8654ZM47.2257 51.8654H52.5008L52.0723 50.6582H47.6543L47.2257 51.8654ZM46.4026 51.8654H46.8956L47.3241 50.6582H46.4026V51.8654ZM47.7647 50.3472H51.9619L49.8633 44.4353L47.7647 50.3472Z" fill="white"/>
</g>
<defs>
<filter id="filter0_d_1768_2707" x="-9.72748e-05" y="0.000391006" width="111.8" height="107.8" filterUnits="userSpaceOnUse" color-interpolation-filters="sRGB">
<feFlood flood-opacity="0" result="BackgroundImageFix"/>
<feColorMatrix in="SourceAlpha" type="matrix" values="0 0 0 0 0 0 0 0 0 0 0 0 0 0 0 0 0 0 127 0" result="hardAlpha"/>
<feMorphology radius="4" operator="dilate" in="SourceAlpha" result="effect1_dropShadow_1768_2707"/>
<feOffset dx="4" dy="4"/>
<feGaussianBlur stdDeviation="4.7"/>
<feComposite in2="hardAlpha" operator="out"/>
<feColorMatrix type="matrix" values="0 0 0 0 0.742582 0 0 0 0 0.742582 0 0 0 0 0.742582 0 0 0 0.25 0"/>
<feBlend mode="normal" in2="BackgroundImageFix" result="effect1_dropShadow_1768_2707"/>
<feBlend mode="normal" in="SourceGraphic" in2="effect1_dropShadow_1768_2707" result="shape"/>
</filter>
<linearGradient id="paint0_linear_1768_2707" x1="24.721" y1="40.592" x2="37.4721" y2="40.592" gradientUnits="userSpaceOnUse">
<stop stop-color="#404041"/>
<stop offset="1" stop-color="#6E6E70"/>
</linearGradient>
<linearGradient id="paint1_linear_1768_2707" x1="29.3438" y1="49.9222" x2="37.4721" y2="49.9222" gradientUnits="userSpaceOnUse">
<stop stop-color="#404041"/>
<stop offset="1" stop-color="#6E6E70"/>
</linearGradient>
<linearGradient id="paint2_linear_1768_2707" x1="51.9006" y1="67.8919" x2="51.9438" y2="67.8919" gradientUnits="userSpaceOnUse">
<stop stop-color="#404041"/>
<stop offset="1" stop-color="#6E6E70"/>
</linearGradient>
<linearGradient id="paint3_linear_1768_2707" x1="51.8999" y1="31.8174" x2="51.9431" y2="31.8174" gradientUnits="userSpaceOnUse">
<stop stop-color="#404041"/>
<stop offset="1" stop-color="#6E6E70"/>
</linearGradient>
<linearGradient id="paint4_linear_1768_2707" x1="66.3271" y1="49.9222" x2="74.4559" y2="49.9222" gradientUnits="userSpaceOnUse">
<stop stop-color="#404041"/>
<stop offset="1" stop-color="#6E6E70"/>
</linearGradient>
<linearGradient id="paint5_linear_1768_2707" x1="24.721" y1="59.2096" x2="37.4721" y2="59.2096" gradientUnits="userSpaceOnUse">
<stop stop-color="#404041"/>
<stop offset="1" stop-color="#6E6E70"/>
</linearGradient>
<linearGradient id="paint6_linear_1768_2707" x1="66.3271" y1="40.592" x2="79.0783" y2="40.592" gradientUnits="userSpaceOnUse">
<stop stop-color="#404041"/>
<stop offset="1" stop-color="#6E6E70"/>
</linearGradient>
<linearGradient id="paint7_linear_1768_2707" x1="66.3271" y1="59.2096" x2="79.0783" y2="59.2096" gradientUnits="userSpaceOnUse">
<stop stop-color="#404041"/>
<stop offset="1" stop-color="#6E6E70"/>
</linearGradient>
<linearGradient id="paint8_linear_1768_2707" x1="39.7142" y1="29.0981" x2="45.4689" y2="29.0981" gradientUnits="userSpaceOnUse">
<stop stop-color="#404041"/>
<stop offset="1" stop-color="#6E6E70"/>
</linearGradient>
<linearGradient id="paint9_linear_1768_2707" x1="58.3298" y1="29.0981" x2="64.0845" y2="29.0981" gradientUnits="userSpaceOnUse">
<stop stop-color="#404041"/>
<stop offset="1" stop-color="#6E6E70"/>
</linearGradient>
<linearGradient id="paint10_linear_1768_2707" x1="58.3298" y1="70.7017" x2="64.0845" y2="70.7017" gradientUnits="userSpaceOnUse">
<stop stop-color="#404041"/>
<stop offset="1" stop-color="#6E6E70"/>
</linearGradient>
<linearGradient id="paint11_linear_1768_2707" x1="39.7142" y1="70.7017" x2="45.4689" y2="70.7017" gradientUnits="userSpaceOnUse">
<stop stop-color="#404041"/>
<stop offset="1" stop-color="#6E6E70"/>
</linearGradient>
<linearGradient id="paint12_linear_1768_2707" x1="37.4722" y1="49.9005" x2="66.3272" y2="49.9005" gradientUnits="userSpaceOnUse">
<stop stop-color="#811849"/>
<stop offset="1" stop-color="#D81C5C"/>
</linearGradient>
<linearGradient id="paint13_linear_1768_2707" x1="41.2656" y1="49.902" x2="62.5341" y2="49.902" gradientUnits="userSpaceOnUse">
<stop stop-color="#404041"/>
<stop offset="1" stop-color="#6E6E70"/>
</linearGradient>
<linearGradient id="paint14_linear_1768_2707" x1="77.145" y1="61.889" x2="80.5442" y2="61.889" gradientUnits="userSpaceOnUse">
<stop stop-color="#811849"/>
<stop offset="1" stop-color="#D81C5C"/>
</linearGradient>
<linearGradient id="paint15_linear_1768_2707" x1="72.7554" y1="49.9007" x2="76.155" y2="49.9007" gradientUnits="userSpaceOnUse">
<stop stop-color="#811849"/>
<stop offset="1" stop-color="#D81C5C"/>
</linearGradient>
<linearGradient id="paint16_linear_1768_2707" x1="77.145" y1="37.9105" x2="80.5442" y2="37.9105" gradientUnits="userSpaceOnUse">
<stop stop-color="#811849"/>
<stop offset="1" stop-color="#D81C5C"/>
</linearGradient>
<linearGradient id="paint17_linear_1768_2707" x1="63.8895" y1="24.8254" x2="63.8895" y2="21.4258" gradientUnits="userSpaceOnUse">
<stop stop-color="#811849"/>
<stop offset="1" stop-color="#D81C5C"/>
</linearGradient>
<linearGradient id="paint18_linear_1768_2707" x1="51.9003" y1="29.214" x2="51.9003" y2="25.8145" gradientUnits="userSpaceOnUse">
<stop stop-color="#811849"/>
<stop offset="1" stop-color="#D81C5C"/>
</linearGradient>
<linearGradient id="paint19_linear_1768_2707" x1="39.9095" y1="24.8254" x2="39.9095" y2="21.4258" gradientUnits="userSpaceOnUse">
<stop stop-color="#811849"/>
<stop offset="1" stop-color="#D81C5C"/>
</linearGradient>
<linearGradient id="paint20_linear_1768_2707" x1="26.654" y1="61.889" x2="23.2549" y2="61.889" gradientUnits="userSpaceOnUse">
<stop stop-color="#811849"/>
<stop offset="1" stop-color="#D81C5C"/>
</linearGradient>
<linearGradient id="paint21_linear_1768_2707" x1="31.0432" y1="49.9007" x2="27.6436" y2="49.9007" gradientUnits="userSpaceOnUse">
<stop stop-color="#811849"/>
<stop offset="1" stop-color="#D81C5C"/>
</linearGradient>
<linearGradient id="paint22_linear_1768_2707" x1="26.654" y1="37.9105" x2="23.2549" y2="37.9105" gradientUnits="userSpaceOnUse">
<stop stop-color="#811849"/>
<stop offset="1" stop-color="#D81C5C"/>
</linearGradient>
<linearGradient id="paint23_linear_1768_2707" x1="63.8895" y1="74.9746" x2="63.8895" y2="78.3738" gradientUnits="userSpaceOnUse">
<stop stop-color="#811849"/>
<stop offset="1" stop-color="#D81C5C"/>
</linearGradient>
<linearGradient id="paint24_linear_1768_2707" x1="51.9003" y1="70.5859" x2="51.9003" y2="73.9851" gradientUnits="userSpaceOnUse">
<stop stop-color="#811849"/>
<stop offset="1" stop-color="#D81C5C"/>
</linearGradient>
<linearGradient id="paint25_linear_1768_2707" x1="39.9095" y1="74.9746" x2="39.9095" y2="78.3738" gradientUnits="userSpaceOnUse">
<stop stop-color="#811849"/>
<stop offset="1" stop-color="#D81C5C"/>
</linearGradient>
</defs>
</svg>
