<svg width="112" height="108" viewBox="0 0 112 108" fill="none" xmlns="http://www.w3.org/2000/svg">
<g filter="url(#filter0_d_1768_2578)">
<path d="M9.3999 33.4004C9.3999 20.1456 20.1451 9.40039 33.3999 9.40039H70.3999C83.6547 9.40039 94.3999 20.1456 94.3999 33.4004V66.4004C94.3999 79.6552 83.6547 90.4004 70.3999 90.4004H33.3999C20.1451 90.4004 9.3999 79.6552 9.3999 66.4004V33.4004Z" fill="white" shape-rendering="crispEdges"/>
<path d="M65.1869 22.3564H38.6133C36.1542 22.3564 34.1606 24.35 34.1606 26.8091V72.9928C34.1606 75.452 36.1542 77.4455 38.6133 77.4455H65.1869C67.6461 77.4455 69.6396 75.452 69.6396 72.9928V26.8091C69.6396 24.35 67.6461 22.3564 65.1869 22.3564Z" fill="url(#paint0_linear_1768_2578)"/>
<path d="M69.3788 26.8089C69.3788 24.4937 67.5019 22.6168 65.1867 22.6168H38.6131C36.2979 22.6168 34.421 24.4937 34.421 26.8089V72.9926C34.421 75.3078 36.2979 77.1847 38.6131 77.1847H65.1867C67.5019 77.1847 69.3788 75.3078 69.3788 72.9926V26.8089ZM69.8999 72.9926C69.8999 75.5956 67.7897 77.7058 65.1867 77.7058H38.6131C36.0101 77.7058 33.8999 75.5956 33.8999 72.9926V26.8089C33.8999 24.2059 36.0101 22.0957 38.6131 22.0957H65.1867C67.7897 22.0957 69.8999 24.2059 69.8999 26.8089V72.9926Z" fill="white"/>
<path d="M65.2307 26.9336H38.5688V70.5064H65.2307V26.9336Z" fill="white"/>
<path d="M65.491 26.6738V70.7677H38.3081V26.6738H65.491ZM38.8292 70.2467H64.9699V27.1949H38.8292V70.2467Z" fill="#545454"/>
<path d="M51.9 76.5989C53.3126 76.5989 54.4578 75.4537 54.4578 74.0411C54.4578 72.6285 53.3126 71.4834 51.9 71.4834C50.4874 71.4834 49.3423 72.6285 49.3423 74.0411C49.3423 75.4537 50.4874 76.5989 51.9 76.5989Z" fill="url(#paint1_linear_1768_2578)"/>
<path d="M54.2176 74.041C54.2176 72.761 53.1799 71.7234 51.8999 71.7234C50.6199 71.7234 49.5822 72.761 49.5822 74.041C49.5822 75.321 50.6199 76.3587 51.8999 76.3587C53.1799 76.3587 54.2176 75.321 54.2176 74.041ZM54.6977 74.041C54.6977 75.5862 53.4451 76.8388 51.8999 76.8388C50.3547 76.8388 49.1021 75.5862 49.1021 74.041C49.1021 72.4958 50.3547 71.2432 51.8999 71.2432C53.4451 71.2432 54.6977 72.4958 54.6977 74.041Z" fill="white"/>
<path d="M59.5968 24.5791V25.0593H44.2026V24.5791H59.5968Z" fill="white"/>
<path d="M51.5926 58.9166V35.7334H53.0777V58.9166H51.5926ZM56.5914 42.6884C56.4828 41.7707 56.042 41.0583 55.2693 40.5512C54.4965 40.044 53.5486 39.7905 52.4257 39.7905C51.6046 39.7905 50.8862 39.9233 50.2704 40.1889C49.6606 40.4546 49.1837 40.8198 48.8395 41.2847C48.5015 41.7496 48.3324 42.2778 48.3324 42.8695C48.3324 43.3645 48.4501 43.7902 48.6856 44.1464C48.9271 44.4965 49.235 44.7893 49.6093 45.0248C49.9836 45.2542 50.376 45.4444 50.7866 45.5953C51.1971 45.7402 51.5744 45.8579 51.9186 45.9485L53.8022 46.4556C54.2852 46.5824 54.8225 46.7575 55.4142 46.9809C56.0118 47.2043 56.5824 47.5091 57.1257 47.8955C57.6751 48.2759 58.1279 48.7649 58.4841 49.3626C58.8403 49.9603 59.0184 50.6938 59.0184 51.5632C59.0184 52.5654 58.7558 53.471 58.2306 54.28C57.7113 55.089 56.9506 55.7319 55.9485 56.2089C54.9523 56.6858 53.7418 56.9243 52.317 56.9243C50.9888 56.9243 49.8387 56.71 48.8667 56.2813C47.9007 55.8527 47.14 55.255 46.5846 54.4882C46.0352 53.7215 45.7243 52.831 45.6519 51.8167H47.9702C48.0305 52.5171 48.266 53.0967 48.6765 53.5555C49.0931 54.0083 49.6184 54.3464 50.2523 54.5697C50.8922 54.7871 51.5805 54.8958 52.317 54.8958C53.1743 54.8958 53.9441 54.7569 54.6263 54.4792C55.3085 54.1954 55.8488 53.803 56.2473 53.3019C56.6458 52.7948 56.845 52.2031 56.845 51.527C56.845 50.9112 56.6729 50.4101 56.3288 50.0237C55.9847 49.6373 55.5319 49.3233 54.9704 49.0819C54.4089 48.8404 53.8022 48.6291 53.1502 48.4479L50.8681 47.7959C49.4191 47.3793 48.272 46.7847 47.4268 46.0119C46.5816 45.2391 46.159 44.2279 46.159 42.9781C46.159 41.9397 46.4397 41.0341 47.0012 40.2614C47.5687 39.4826 48.3294 38.8788 49.2833 38.4502C50.2432 38.0155 51.3148 37.7982 52.4981 37.7982C53.6935 37.7982 54.7561 38.0125 55.6858 38.4411C56.6156 38.8637 57.3521 39.4433 57.8955 40.1799C58.4449 40.9164 58.7347 41.7526 58.7649 42.6884H56.5914Z" fill="black"/>
<path d="M57.7187 41.248V43.9508H55.0154V42.6758C55.0154 42.3952 54.7623 42.1661 54.5053 42.1661H49.2029C48.9476 42.1661 48.6928 42.3952 48.6928 42.6758V46.6795C48.6928 46.9601 48.946 47.1896 49.2029 47.1896H55.8825C56.877 47.1896 57.7187 47.9546 57.7187 48.8727V55.7329C57.7187 56.6506 56.8749 57.4159 55.8825 57.4159H53.2049V59.456H50.5016V57.4159H47.824C46.8295 57.4159 45.9878 56.6506 45.9878 55.7329V53.0295H48.6911V54.3046C48.6911 54.5852 48.9443 54.8147 49.2012 54.8147H54.5053C54.7606 54.8147 55.0154 54.5852 55.0154 54.3046V50.3009C55.0154 50.0203 54.7623 49.7908 54.5053 49.7908H47.824C46.8295 49.7908 45.9878 49.0258 45.9878 48.1077V41.248C45.9878 40.3298 46.8317 39.5649 47.824 39.5649H50.5016V37.5244H53.2049V39.5649H55.8825C56.877 39.5649 57.7187 40.3298 57.7187 41.248Z" fill="url(#paint2_linear_1768_2578)"/>
<path d="M56.6408 51.5259C56.6408 50.9501 56.4811 50.5004 56.1763 50.1582C55.8553 49.7978 55.4286 49.5 54.8896 49.2682C54.391 49.0537 53.8551 48.8631 53.2816 48.6964V54.625C53.7363 54.5604 54.1586 54.4481 54.5492 54.2891C55.2038 54.0166 55.7139 53.6437 56.0875 53.1739C56.4558 52.7047 56.6408 52.1583 56.6408 51.5259ZM52.8736 57.1147C52.6915 57.123 52.5059 57.1272 52.3169 57.1272C52.1405 57.1272 51.967 57.1234 51.7964 57.1159V58.7115H52.8736V57.1147ZM52.8736 55.0788C52.6919 55.092 52.5063 55.0987 52.3169 55.0987C52.1409 55.0987 51.9674 55.0925 51.7964 55.0804V56.7076C51.9665 56.7153 52.14 56.7192 52.3169 56.7192C52.5065 56.7192 52.6921 56.7149 52.8736 56.7063V55.0788ZM45.8749 52.0196C45.9714 52.908 46.2638 53.689 46.7497 54.3675C47.2816 55.1018 48.0123 55.678 48.9493 56.0938H48.9493C49.6588 56.4066 50.4711 56.6034 51.3884 56.6812V55.0394C50.9943 54.9878 50.6144 54.9023 50.2488 54.7826L50.1854 54.7615L50.1843 54.761C49.5219 54.5276 48.9675 54.1721 48.5263 53.6925L48.5253 53.6915L48.5244 53.6904C48.1182 53.2365 47.8746 52.6765 47.7873 52.0196H45.8749ZM51.7964 54.6714C51.9669 54.6842 52.1404 54.6907 52.3169 54.6907C52.5072 54.6907 52.6928 54.6835 52.8736 54.6695V48.58L51.7964 48.2722V54.6714ZM51.7964 47.8479L52.8736 48.1557V46.4158L51.8665 46.1447C51.8433 46.1386 51.8199 46.1323 51.7964 46.126V47.8479ZM52.4255 39.9934C52.2077 39.9934 51.9981 40.003 51.7964 40.0221V45.7028C51.8335 45.7132 51.8703 45.7233 51.9066 45.7331L51.9703 45.7501L51.9709 45.7503L51.9714 45.7504L52.8736 45.9933V40.0078C52.7278 39.9982 52.5785 39.9934 52.4255 39.9934ZM53.2816 39.6372C54.0758 39.7373 54.7771 39.9832 55.381 40.3795C56.153 40.8861 56.6178 41.5913 56.7681 42.4833H58.5493C58.4867 41.6736 58.2143 40.9476 57.7318 40.3008L57.7315 40.3003L57.7312 40.2999C57.2108 39.5945 56.5031 39.0357 55.6013 38.6258L55.6008 38.6255L55.6003 38.6253C54.9075 38.3059 54.1353 38.1081 53.2816 38.0341V39.6372ZM52.498 38.0011C52.2592 38.0011 52.0254 38.0101 51.7964 38.0281V39.6124C51.9998 39.5944 52.2095 39.5854 52.4255 39.5854C52.5778 39.5854 52.7271 39.5899 52.8736 39.599V38.0086C52.75 38.0037 52.6248 38.0011 52.498 38.0011ZM51.7964 37.6189C52.0261 37.6017 52.2599 37.5931 52.498 37.5931C52.6246 37.5931 52.7497 37.5954 52.8736 37.6002V35.9363H51.7964V37.6189ZM59.2223 51.5621C59.2223 52.6021 58.9491 53.5466 58.4015 54.39C57.8588 55.2353 57.0668 55.9014 56.036 56.392L56.0359 56.392C55.2424 56.7718 54.3231 57.0027 53.2816 57.0887V59.1195H51.3884V57.0906C50.4195 57.0117 49.5506 56.8049 48.7843 56.4669L48.7838 56.4667C47.7889 56.0252 46.9982 55.406 46.4193 54.6068L46.419 54.6064L46.4186 54.606C45.8456 53.8062 45.5231 52.879 45.4482 51.8302L45.4326 51.6116H48.1572L48.1733 51.7981C48.2304 52.4603 48.451 52.996 48.8274 53.4172C49.2192 53.8427 49.7149 54.163 50.3199 54.3762C50.661 54.4919 51.0171 54.5758 51.3884 54.6277V48.1557L50.8119 47.991L50.8115 47.9909C49.3415 47.5682 48.1636 46.961 47.289 46.1614C46.3974 45.3462 45.9548 44.2782 45.9548 42.9771C45.9548 41.8995 46.247 40.951 46.836 40.1403L46.8362 40.1401C47.4263 39.3302 48.2161 38.7049 49.1995 38.263C49.8773 37.9562 50.6073 37.7553 51.3884 37.6592V35.5283H53.2816V37.6246C54.19 37.6997 55.0202 37.9087 55.7701 38.2543C56.7274 38.6894 57.4926 39.2896 58.0588 40.0568C58.6337 40.8274 58.9371 41.7041 58.9686 42.6807L58.9754 42.8913H56.41L56.3887 42.7112C56.2871 41.8535 55.8796 41.1947 55.1572 40.7206C54.625 40.3714 54.0012 40.146 53.2816 40.0486V46.1031L53.8539 46.2572L53.9466 46.282C54.4133 46.4085 54.9263 46.5776 55.4854 46.7887L55.543 46.8105C56.1363 47.0379 56.7026 47.3436 57.2417 47.7267L57.2953 47.7643C57.8455 48.1564 58.3003 48.6548 58.6592 49.2571C59.0384 49.8933 59.2223 50.665 59.2223 51.5621ZM57.0488 51.5259C57.0488 52.2454 56.8357 52.882 56.4076 53.4269L56.4072 53.4273L56.4068 53.4278C55.9838 53.9598 55.4136 54.3715 54.7045 54.6664L54.7038 54.6668L54.7031 54.6671C54.2622 54.8465 53.7881 54.9694 53.2816 55.0369V56.6793C54.2691 56.5944 55.1275 56.3746 55.8602 56.0238L55.8606 56.0236C56.8339 55.5604 57.5631 54.941 58.0587 54.1687L58.0593 54.1678C58.5622 53.3932 58.8143 52.5265 58.8143 51.5621C58.8143 50.7204 58.6419 50.0251 58.3087 49.4659C57.9668 48.8923 57.5339 48.4252 57.0095 48.0621L57.0084 48.0614L57.0073 48.0607C56.4778 47.6841 55.9229 47.3878 55.3426 47.1709L55.3423 47.1708L55.3419 47.1707C54.7553 46.9492 54.2249 46.7764 53.7503 46.6519L53.749 46.6515L53.2816 46.5256V48.272C53.9125 48.4505 54.5024 48.6574 55.0509 48.8934C55.6348 49.1445 56.1137 49.4746 56.481 49.8869C56.8645 50.3175 57.0488 50.8701 57.0488 51.5259ZM46.3628 42.9771C46.3628 44.1753 46.7655 45.1299 47.5643 45.8602C48.3801 46.6061 49.4962 47.1882 50.924 47.5987L51.3884 47.7314V46.0081C51.1753 45.9428 50.952 45.869 50.7185 45.7866L50.7173 45.7862L50.716 45.7857C50.2928 45.6301 49.8883 45.434 49.5026 45.1976L49.5015 45.197L49.5005 45.1964C49.1038 44.9468 48.7753 44.6349 48.5175 44.2611L48.5164 44.2595L48.5153 44.2578C48.2544 43.8631 48.1282 43.3969 48.1282 42.8684C48.1282 42.235 48.3102 41.6644 48.6744 41.1636L48.6749 41.1629L48.6754 41.1622C49.0438 40.6645 49.5512 40.2785 50.1887 40.0008L50.1891 40.0007L50.1894 40.0005C50.5569 39.842 50.9568 39.7296 51.3884 39.6621V38.0705C50.6638 38.1642 49.9904 38.3527 49.3673 38.6349L49.3668 38.6352C48.4425 39.0505 47.7109 39.6325 47.166 40.3802L47.1661 40.3802C46.6322 41.115 46.3628 41.9778 46.3628 42.9771ZM48.5363 42.8684C48.5363 43.329 48.6451 43.7134 48.8543 44.0308C49.0791 44.3564 49.3659 44.6295 49.7168 44.8504C50.079 45.0723 50.4586 45.2563 50.8558 45.4023C51.0404 45.4675 51.218 45.5269 51.3884 45.5808V40.0754C51.0118 40.139 50.6662 40.2392 50.351 40.3751C49.7694 40.6286 49.3231 40.9731 49.0034 41.405C48.6921 41.8336 48.5363 42.3191 48.5363 42.8684Z" fill="white"/>
<path d="M53.918 69.0354V65.5869H42.4604V63.9152H53.918V60.4668L61.3393 64.7511L53.918 69.0354Z" fill="url(#paint3_linear_1768_2578)"/>
<path d="M61.9001 64.7519L53.6382 69.5214V65.8679H42.1807V63.6359H53.6382V59.9824L61.9001 64.7519ZM54.1985 64.1963H42.741V65.3076H54.1985V68.551L60.7793 64.7519L54.1985 60.9529V64.1963Z" fill="white"/>
<path d="M49.8814 37.2942V33.8457H61.3393V32.174H49.8814V28.7256L42.4604 33.0099L49.8814 37.2942Z" fill="url(#paint4_linear_1768_2578)"/>
<path d="M50.1618 31.8947H61.6198V34.1268H50.1618V37.7803L41.9004 33.0108L50.1618 28.2412V31.8947ZM43.0211 33.0107L49.6015 36.8098V33.5664H61.0594V32.4551H49.6015V29.2117L43.0211 33.0107Z" fill="white"/>
</g>
<defs>
<filter id="filter0_d_1768_2578" x="-9.72748e-05" y="0.000391006" width="111.8" height="107.8" filterUnits="userSpaceOnUse" color-interpolation-filters="sRGB">
<feFlood flood-opacity="0" result="BackgroundImageFix"/>
<feColorMatrix in="SourceAlpha" type="matrix" values="0 0 0 0 0 0 0 0 0 0 0 0 0 0 0 0 0 0 127 0" result="hardAlpha"/>
<feMorphology radius="4" operator="dilate" in="SourceAlpha" result="effect1_dropShadow_1768_2578"/>
<feOffset dx="4" dy="4"/>
<feGaussianBlur stdDeviation="4.7"/>
<feComposite in2="hardAlpha" operator="out"/>
<feColorMatrix type="matrix" values="0 0 0 0 0.742582 0 0 0 0 0.742582 0 0 0 0 0.742582 0 0 0 0.25 0"/>
<feBlend mode="normal" in2="BackgroundImageFix" result="effect1_dropShadow_1768_2578"/>
<feBlend mode="normal" in="SourceGraphic" in2="effect1_dropShadow_1768_2578" result="shape"/>
</filter>
<linearGradient id="paint0_linear_1768_2578" x1="34.1606" y1="49.901" x2="69.6396" y2="49.901" gradientUnits="userSpaceOnUse">
<stop stop-color="#811849"/>
<stop offset="1" stop-color="#D81C5C"/>
</linearGradient>
<linearGradient id="paint1_linear_1768_2578" x1="49.3423" y1="74.0411" x2="54.4578" y2="74.0411" gradientUnits="userSpaceOnUse">
<stop stop-color="#404041"/>
<stop offset="1" stop-color="#6E6E70"/>
</linearGradient>
<linearGradient id="paint2_linear_1768_2578" x1="45.9878" y1="48.4904" x2="57.7187" y2="48.4904" gradientUnits="userSpaceOnUse">
<stop stop-color="#811849"/>
<stop offset="1" stop-color="#D81C5C"/>
</linearGradient>
<linearGradient id="paint3_linear_1768_2578" x1="42.4604" y1="64.7511" x2="61.3393" y2="64.7511" gradientUnits="userSpaceOnUse">
<stop stop-color="#811849"/>
<stop offset="1" stop-color="#D81C5C"/>
</linearGradient>
<linearGradient id="paint4_linear_1768_2578" x1="61.3393" y1="33.0099" x2="42.4604" y2="33.0099" gradientUnits="userSpaceOnUse">
<stop stop-color="#811849"/>
<stop offset="1" stop-color="#D81C5C"/>
</linearGradient>
</defs>
</svg>
