<svg width="112" height="108" viewBox="0 0 112 108" fill="none" xmlns="http://www.w3.org/2000/svg">
<g filter="url(#filter0_d_1768_2682)">
<path d="M9.3999 33.4004C9.3999 20.1456 20.1451 9.40039 33.3999 9.40039H70.3999C83.6547 9.40039 94.3999 20.1456 94.3999 33.4004V66.4004C94.3999 79.6552 83.6547 90.4004 70.3999 90.4004H33.3999C20.1451 90.4004 9.3999 79.6552 9.3999 66.4004V33.4004Z" fill="white" shape-rendering="crispEdges"/>
<path d="M60.1403 26.9053H61.3524C62.2237 26.9053 63.0593 27.2514 63.6754 27.8674C64.2915 28.4835 64.6377 29.319 64.6378 30.1903V68.7849C64.6377 69.6562 64.2915 70.4917 63.6754 71.1078C63.0593 71.7238 62.2237 72.0699 61.3524 72.0699H36.7322C35.8613 72.0694 35.0263 71.723 34.4107 71.107C33.795 70.491 33.4492 69.6558 33.4492 68.7849V30.1891C33.4495 29.3184 33.7955 28.4835 34.4111 27.8677C35.0267 27.252 35.8615 26.9058 36.7322 26.9053H38.1069" fill="url(#paint0_linear_1768_2682)"/>
<path d="M61.3526 26.3555C62.3696 26.3555 63.3449 26.7594 64.0641 27.4785C64.7832 28.1976 65.1873 29.1729 65.1874 30.1899V68.7847C65.1873 69.8017 64.7832 70.7769 64.0641 71.496C63.3449 72.2151 62.3696 72.6191 61.3526 72.6191H36.7321C35.7155 72.6185 34.7408 72.2142 34.0222 71.4952C33.3148 70.7874 32.9126 69.8316 32.9002 68.8322L32.8999 68.7846V30.1886C32.9003 29.1723 33.3041 28.1976 34.0227 27.4789C34.7412 26.7602 35.7157 26.3561 36.7321 26.3555H38.1071V27.4545H36.7327L36.6987 27.4547C35.986 27.464 35.3045 27.7512 34.7999 28.2559C34.2873 28.7687 33.9991 29.4639 33.9989 30.189V68.7846C33.9989 69.5098 34.2869 70.2053 34.7995 70.7183C35.3122 71.2313 36.0075 71.5197 36.7327 71.5201H61.3526C62.0781 71.5201 62.7739 71.2319 63.287 70.7189C63.8001 70.2059 64.0884 69.5101 64.0885 68.7846V30.19C64.0884 29.4645 63.8001 28.7687 63.287 28.2557C62.7739 27.7427 62.0781 27.4545 61.3526 27.4545H60.1404V26.3555H61.3526Z" fill="white"/>
<path d="M39.7229 42.0123L38.9005 42.7413L36.1777 39.6694L37.0001 38.9404L39.7229 42.0123Z" fill="white"/>
<path d="M42.6636 36.9699L39.8018 42.6246L38.8213 42.1283L41.6831 36.4736L42.6636 36.9699Z" fill="white"/>
<path d="M39.8954 53.5308L39.0729 54.2597L36.3506 51.1879L37.1731 50.459L39.8954 53.5308Z" fill="white"/>
<path d="M42.8369 48.4885L39.9747 54.1432L38.9941 53.6469L41.8563 47.9922L42.8369 48.4885Z" fill="white"/>
<path d="M39.7127 64.6739L38.8903 65.4029L36.168 62.3315L36.9904 61.6025L39.7127 64.6739Z" fill="white"/>
<path d="M42.6538 59.6321L39.7916 65.2864L38.811 64.7901L41.6732 59.1357L42.6538 59.6321Z" fill="white"/>
<path d="M58.5788 38.999V40.098H46.5718V38.999H58.5788Z" fill="white"/>
<path d="M58.197 50.9326V52.0316H46.1899V50.9326H58.197Z" fill="white"/>
<path d="M57.3874 62.8643V63.9633H45.3804V62.8643H57.3874Z" fill="white"/>
<path d="M57.8848 23.1055H40.3626C39.1165 23.1055 38.1064 24.1156 38.1064 25.3616V28.3888C38.1064 29.6349 39.1165 30.645 40.3626 30.645H57.8848C59.1309 30.645 60.141 29.6349 60.141 28.3888V25.3616C60.141 24.1156 59.1309 23.1055 57.8848 23.1055Z" fill="url(#paint1_linear_1768_2682)"/>
<path d="M59.5912 25.3613C59.5912 24.4188 58.8271 23.6547 57.8845 23.6547H40.3623C39.4197 23.6547 38.6556 24.4188 38.6556 25.3613V28.3885C38.6556 29.3311 39.4197 30.0952 40.3623 30.0952H57.8845C58.8271 30.0952 59.5912 29.3311 59.5912 28.3885V25.3613ZM60.6901 28.3885C60.6901 29.938 59.434 31.1942 57.8845 31.1942H40.3623C38.8128 31.1942 37.5566 29.938 37.5566 28.3885V25.3613C37.5566 23.8118 38.8128 22.5557 40.3623 22.5557H57.8845C59.434 22.5557 60.6901 23.8118 60.6901 25.3613V28.3885Z" fill="white"/>
<path d="M70.7005 69.0149V64.2233H68.9592C68.7499 63.3638 68.4192 62.5385 67.977 61.7723L69.4418 60.3079L66.0548 56.9208L64.6032 58.3725C63.8731 57.9429 63.0876 57.6155 62.2685 57.3994V55.3672H57.4774V57.3994C56.6071 57.629 55.7749 57.9839 55.0069 58.453L53.4743 56.9188L50.0874 60.3059L51.69 61.9081C51.3173 62.5784 51.0297 63.2925 50.8337 64.034H49.043V68.8252H50.8285C51.0061 69.4991 51.2591 70.1507 51.5828 70.7678L50.0866 72.2637L53.4735 75.6507L54.8188 74.3051C55.6379 74.8337 56.535 75.2301 57.4774 75.4798V77.0474H62.2685V75.4798C63.1502 75.247 63.9927 74.8856 64.7689 74.4071L66.0548 75.6929L69.4418 72.3059L68.0726 70.9372C68.4068 70.3285 68.672 69.6844 68.8632 69.0169L70.7005 69.0149ZM59.8722 70.5291C59.0629 70.5291 58.2717 70.2891 57.5988 69.8395C56.9259 69.3899 56.4015 68.7508 56.0918 68.0031C55.7821 67.2554 55.701 66.4326 55.8589 65.6389C56.0168 64.8451 56.4065 64.116 56.9788 63.5438C57.551 62.9715 58.2801 62.5818 59.0739 62.4239C59.8676 62.266 60.6904 62.347 61.438 62.6567C62.1857 62.9664 62.8248 63.4909 63.2744 64.1638C63.7241 64.8367 63.964 65.6279 63.964 66.4372C63.9641 66.9746 63.8583 67.5068 63.6527 68.0033C63.4471 68.4998 63.1457 68.951 62.7657 69.331C62.3857 69.7111 61.9347 70.0125 61.4382 70.2183C60.9417 70.424 60.4096 70.5299 59.8722 70.5299V70.5291Z" fill="white"/>
<path d="M62.4677 55.167V57.2463C63.2012 57.4527 63.9071 57.7468 64.5701 58.1225L66.0545 56.638L69.7236 60.3071L68.225 61.8053C68.6135 62.5042 68.9122 63.2494 69.1143 64.0231H70.8997V69.2134L69.012 69.2154C68.8352 69.7979 68.6029 70.3621 68.3183 70.9003L69.7236 72.3051L66.0545 75.9742L64.7381 74.6578C64.0271 75.08 63.2638 75.4072 62.4677 75.6312V77.246H57.2776V75.631C56.421 75.3891 55.6027 75.028 54.8467 74.5581L53.4733 75.932L49.8042 72.2629L51.3386 70.7288C51.0632 70.1833 50.8413 69.6123 50.6759 69.0239H48.8433V63.8338H50.6812C50.8661 63.1778 51.1215 62.5438 51.4432 61.9429L49.805 60.3051L53.4741 56.636L55.0377 58.2011C55.7402 57.7879 56.493 57.467 57.2776 57.2463V55.167H62.4677ZM57.6765 57.5523L57.5279 57.5915C56.6764 57.8161 55.8621 58.1634 55.1105 58.6224L54.9765 58.7043L53.474 57.2002L50.3691 60.3051L51.9372 61.8728L51.864 62.0043C51.4994 62.6601 51.218 63.3588 51.0262 64.0842L50.987 64.2327H49.2421V68.6251H50.9819L51.0211 68.7737C51.1948 69.433 51.4424 70.0706 51.7591 70.6744L51.8273 70.8043L50.3683 72.2629L53.4732 75.3678L54.7913 74.0494L54.9266 74.1367C55.7282 74.654 56.6061 75.0419 57.5282 75.2862L57.6765 75.3255V76.8472H62.0688V75.3254L62.2174 75.2861C63.0801 75.0584 63.9045 74.7048 64.664 74.2365L64.7982 74.1538L66.0545 75.4101L69.1594 72.3051L67.8255 70.9716L67.8975 70.8404C68.2246 70.2448 68.4841 69.6145 68.6712 68.9612L68.7125 68.8169L70.5008 68.8149V64.4219H68.8023L68.7652 64.2697C68.5603 63.4286 68.2367 62.621 67.804 61.8712L67.7275 61.7386L69.1594 60.3071L66.0545 57.2021L64.6348 58.6219L64.5018 58.5436C63.7874 58.1233 63.0188 57.8029 62.2174 57.5915L62.0688 57.5523V55.5659H57.6765V57.5523ZM63.7643 66.4364C63.7643 65.6666 63.536 64.914 63.1083 64.2739C62.6806 63.6338 62.0727 63.1348 61.3615 62.8402C60.6502 62.5456 59.8676 62.4685 59.1125 62.6187C58.3575 62.7689 57.6639 63.1396 57.1195 63.684C56.5751 64.2284 56.2044 64.922 56.0542 65.6771C55.904 66.4321 55.9811 67.2148 56.2757 67.926C56.5703 68.6373 57.0692 69.2452 57.7094 69.6729C58.3495 70.1006 59.102 70.3289 59.8719 70.3289H59.9468C60.4325 70.3195 60.9124 70.2194 61.3616 70.0333C61.8338 69.8376 62.263 69.5508 62.6244 69.1892C62.9859 68.8277 63.2726 68.3985 63.4682 67.9262C63.6637 67.4539 63.7644 66.9476 63.7643 66.4364ZM64.1629 66.4892C64.1562 67.0348 64.0456 67.5744 63.8367 68.0788C63.621 68.5995 63.305 69.0727 62.9065 69.4713C62.508 69.8698 62.0349 70.186 61.5142 70.4017C60.9936 70.6175 60.4355 70.7285 59.8719 70.7286H59.6724V70.7231C58.8937 70.6869 58.1381 70.4391 57.4877 70.0046C56.782 69.533 56.232 68.8628 55.9072 68.0787C55.5824 67.2945 55.4975 66.4317 55.663 65.5992C55.8286 64.7668 56.2373 64.0021 56.8375 63.402C57.4376 62.8018 58.2023 62.3931 59.0347 62.2275C59.8671 62.0619 60.73 62.1469 61.5141 62.4717C62.2982 62.7965 62.9685 63.3466 63.44 64.0523C63.9115 64.758 64.1632 65.5877 64.1632 66.4364L64.1629 66.4892Z" fill="url(#paint2_linear_1768_2682)"/>
</g>
<defs>
<filter id="filter0_d_1768_2682" x="-9.72748e-05" y="0.000391006" width="111.8" height="107.8" filterUnits="userSpaceOnUse" color-interpolation-filters="sRGB">
<feFlood flood-opacity="0" result="BackgroundImageFix"/>
<feColorMatrix in="SourceAlpha" type="matrix" values="0 0 0 0 0 0 0 0 0 0 0 0 0 0 0 0 0 0 127 0" result="hardAlpha"/>
<feMorphology radius="4" operator="dilate" in="SourceAlpha" result="effect1_dropShadow_1768_2682"/>
<feOffset dx="4" dy="4"/>
<feGaussianBlur stdDeviation="4.7"/>
<feComposite in2="hardAlpha" operator="out"/>
<feColorMatrix type="matrix" values="0 0 0 0 0.742582 0 0 0 0 0.742582 0 0 0 0 0.742582 0 0 0 0.25 0"/>
<feBlend mode="normal" in2="BackgroundImageFix" result="effect1_dropShadow_1768_2682"/>
<feBlend mode="normal" in="SourceGraphic" in2="effect1_dropShadow_1768_2682" result="shape"/>
</filter>
<linearGradient id="paint0_linear_1768_2682" x1="33.4472" y1="49.4876" x2="64.6378" y2="49.4876" gradientUnits="userSpaceOnUse">
<stop stop-color="#811849"/>
<stop offset="1" stop-color="#D81C5C"/>
</linearGradient>
<linearGradient id="paint1_linear_1768_2682" x1="38.1064" y1="26.875" x2="60.141" y2="26.875" gradientUnits="userSpaceOnUse">
<stop stop-color="#811849"/>
<stop offset="1" stop-color="#D81C5C"/>
</linearGradient>
<linearGradient id="paint2_linear_1768_2682" x1="48.8431" y1="66.2057" x2="70.8999" y2="66.2057" gradientUnits="userSpaceOnUse">
<stop stop-color="#404041"/>
<stop offset="1" stop-color="#6E6E70"/>
</linearGradient>
</defs>
</svg>
