<svg width="112" height="108" viewBox="0 0 112 108" fill="none" xmlns="http://www.w3.org/2000/svg">
<g filter="url(#filter0_d_1768_2767)">
<path d="M9.3999 33.4004C9.3999 20.1456 20.1451 9.40039 33.3999 9.40039H70.3999C83.6547 9.40039 94.3999 20.1456 94.3999 33.4004V66.4004C94.3999 79.6552 83.6547 90.4004 70.3999 90.4004H33.3999C20.1451 90.4004 9.3999 79.6552 9.3999 66.4004V33.4004Z" fill="white" shape-rendering="crispEdges"/>
<path d="M38.0492 38.7305V65.8879H30.5325C29.9089 65.8878 29.3109 65.64 28.8699 65.1991C28.429 64.7581 28.1812 64.1601 28.1812 63.5365V38.7305H38.0492Z" fill="url(#paint0_linear_1768_2767)"/>
<path d="M38.3296 38.4492V66.1678H30.5323C29.8343 66.1677 29.1649 65.8904 28.6714 65.3968C28.1778 64.9033 27.9005 64.2339 27.9004 63.5359V38.4492H38.3296ZM28.4616 63.5358L28.4617 63.5615C28.4685 64.1014 28.6859 64.6178 29.0682 65C29.4565 65.3884 29.9832 65.6065 30.5324 65.6066H37.7684V39.0104H28.4616V63.5358Z" fill="white"/>
<path d="M75.6193 38.7305V63.5365C75.6193 64.1601 75.3715 64.7581 74.9305 65.1991C74.4896 65.64 73.8916 65.8878 73.268 65.8879H38.0479V38.7305H75.6193Z" fill="#DADADA"/>
<path d="M75.8998 38.4492V63.5359C75.8997 64.2339 75.6223 64.9033 75.1288 65.3968C74.6352 65.8904 73.9658 66.1677 73.2678 66.1678H37.7671V38.4492H75.8998ZM38.3283 65.6066H73.2678C73.817 65.6065 74.3436 65.3884 74.732 65C75.1203 64.6117 75.3385 64.085 75.3386 63.5359V39.0104H38.3283V65.6066Z" fill="white"/>
<path d="M75.6195 36.2677V38.7298H28.1807V36.2677C28.1808 35.6441 28.4285 35.046 28.8694 34.605C29.3104 34.164 29.9084 33.9162 30.532 33.916H73.2681C73.8918 33.9162 74.4898 34.164 74.9307 34.605C75.3716 35.046 75.6194 35.6441 75.6195 36.2677Z" fill="url(#paint1_linear_1768_2767)"/>
<path d="M73.2681 33.6348C73.9661 33.635 74.6354 33.9124 75.129 34.406C75.6225 34.8996 75.8998 35.569 75.8999 36.267V39.0097H27.8999V36.267C27.9 35.569 28.1773 34.8996 28.6709 34.406C29.1644 33.9124 29.8338 33.635 30.5318 33.6348H73.2681ZM30.5062 34.1961C29.9663 34.203 29.4499 34.4205 29.0677 34.8028C28.6794 35.1912 28.4612 35.7179 28.4611 36.2671V38.4485H75.3387V36.2671L75.3386 36.2414C75.3318 35.7014 75.1144 35.1851 74.7321 34.8028C74.3499 34.4205 73.8335 34.203 73.2936 34.1961L73.2679 34.196H30.5319L30.5062 34.1961Z" fill="white"/>
<path d="M59.1889 51.6719H55.3774V57.1464H59.1889V51.6719Z" fill="url(#paint2_linear_1768_2767)"/>
<path d="M59.2815 51.5781V57.2375H55.2852V51.5781H59.2815ZM55.47 57.0527H59.0966V51.7629H55.47V57.0527Z" fill="white"/>
<path d="M64.0117 48.3555H60.2002V57.1457H64.0117V48.3555Z" fill="url(#paint3_linear_1768_2767)"/>
<path d="M64.1042 48.2617V57.2368H60.1079V48.2617H64.1042ZM60.2927 57.052H63.9194V48.4465H60.2927V57.052Z" fill="white"/>
<path d="M68.8339 44.6582H65.0225V57.1452H68.8339V44.6582Z" fill="url(#paint4_linear_1768_2767)"/>
<path d="M68.9265 44.5645V57.2363H64.9302V44.5645H68.9265ZM65.115 57.0515H68.7417V44.7493H65.115V57.0515Z" fill="white"/>
<path d="M73.6567 41.8555H69.8452V57.1447H73.6567V41.8555Z" fill="url(#paint5_linear_1768_2767)"/>
<path d="M73.7492 41.7637V57.2377H69.7529V41.7637H73.7492ZM69.9377 57.0529H73.5644V41.9485H69.9377V57.0529Z" fill="white"/>
<path d="M47.868 35.043H30.0956C29.6723 35.043 29.3291 35.3861 29.3291 35.8094V36.8379C29.3291 37.2612 29.6723 37.6043 30.0956 37.6043H47.868C48.2913 37.6043 48.6344 37.2612 48.6344 36.8379V35.8094C48.6344 35.3861 48.2913 35.043 47.868 35.043Z" fill="white"/>
<path d="M48.5255 35.8073C48.5255 35.4443 48.2313 35.15 47.8683 35.15H30.0958C29.7328 35.15 29.4386 35.4443 29.4386 35.8073V36.8357C29.4386 37.1987 29.7328 37.493 30.0958 37.493H47.8683C48.2313 37.493 48.5255 37.1987 48.5255 36.8357V35.8073ZM48.7439 36.8357C48.7439 37.3193 48.3519 37.7113 47.8683 37.7114H30.0958C29.6122 37.7113 29.2202 37.3193 29.2202 36.8357V35.8073C29.2202 35.3237 29.6122 34.9316 30.0958 34.9316H47.8683C48.3519 34.9316 48.7439 35.3237 48.7439 35.8073V36.8357Z" fill="white"/>
<path d="M64.517 37.6639C65.258 37.6639 65.8587 37.0632 65.8587 36.3222C65.8587 35.5812 65.258 34.9805 64.517 34.9805C63.776 34.9805 63.1753 35.5812 63.1753 36.3222C63.1753 37.0632 63.776 37.6639 64.517 37.6639Z" fill="url(#paint6_linear_1768_2767)"/>
<path d="M65.7498 36.322C65.7498 35.6413 65.198 35.0895 64.5173 35.0895C63.8366 35.0895 63.2848 35.6413 63.2848 36.322C63.2848 37.0027 63.8366 37.5545 64.5173 37.5545C65.198 37.5545 65.7498 37.0027 65.7498 36.322ZM65.9682 36.322C65.9682 37.1233 65.3186 37.7729 64.5173 37.7729C63.716 37.7729 63.0664 37.1233 63.0664 36.322C63.0664 35.5207 63.716 34.8711 64.5173 34.8711C65.3186 34.8711 65.9682 35.5207 65.9682 36.322Z" fill="white"/>
<path d="M68.62 37.6639C69.3611 37.6639 69.9618 37.0632 69.9618 36.3222C69.9618 35.5812 69.3611 34.9805 68.62 34.9805C67.879 34.9805 67.2783 35.5812 67.2783 36.3222C67.2783 37.0632 67.879 37.6639 68.62 37.6639Z" fill="url(#paint7_linear_1768_2767)"/>
<path d="M69.8524 36.322C69.8524 35.6413 69.3006 35.0895 68.6198 35.0895C67.9391 35.0895 67.3873 35.6413 67.3873 36.322C67.3873 37.0027 67.9391 37.5545 68.6198 37.5545C69.3006 37.5545 69.8524 37.0027 69.8524 36.322ZM70.0707 36.322C70.0707 37.1233 69.4212 37.7729 68.6198 37.7729C67.8185 37.7729 67.1689 37.1233 67.1689 36.322C67.1689 35.5207 67.8185 34.8711 68.6198 34.8711C69.4212 34.8711 70.0707 35.5207 70.0707 36.322Z" fill="white"/>
<path d="M72.5907 37.6639C73.3318 37.6639 73.9325 37.0632 73.9325 36.3222C73.9325 35.5812 73.3318 34.9805 72.5907 34.9805C71.8497 34.9805 71.249 35.5812 71.249 36.3222C71.249 37.0632 71.8497 37.6639 72.5907 37.6639Z" fill="url(#paint8_linear_1768_2767)"/>
<path d="M73.8236 36.322C73.8236 35.6413 73.2717 35.0895 72.591 35.0895C71.9103 35.0895 71.3585 35.6413 71.3585 36.322C71.3585 37.0027 71.9103 37.5545 72.591 37.5545C73.2717 37.5545 73.8236 37.0027 73.8236 36.322ZM74.0419 36.322C74.0419 37.1233 73.3923 37.7729 72.591 37.7729C71.7897 37.7729 71.1401 37.1233 71.1401 36.322C71.1401 35.5207 71.7897 34.8711 72.591 34.8711C73.3923 34.8711 74.0419 35.5207 74.0419 36.322Z" fill="white"/>
<path d="M52.6314 50.1114C52.6314 53.881 49.5757 56.9361 45.8068 56.9361C42.0379 56.9361 38.9814 53.881 38.9814 50.1114C38.9814 46.3419 42.0372 43.2871 45.8068 43.2871V50.1114H52.6314Z" fill="url(#paint9_linear_1768_2767)"/>
<path d="M45.8888 43.2051V50.0294H52.7134V50.1114C52.7134 53.9263 49.6209 57.0181 45.8068 57.0181C41.9926 57.0181 38.8994 53.9263 38.8994 50.1114C38.8994 46.2966 41.9919 43.2051 45.8068 43.2051H45.8888ZM39.0635 50.1114C39.0635 53.8357 42.0832 56.8541 45.8068 56.8541C49.503 56.854 52.505 53.8799 52.5489 50.1934H45.7248V43.3696C42.0383 43.4135 39.0635 46.4146 39.0635 50.1114Z" fill="white"/>
<path d="M53.2441 49.5545H46.4194V42.7305C50.189 42.7305 53.2434 45.7849 53.2441 49.5545Z" fill="url(#paint10_linear_1768_2767)"/>
<path d="M46.4194 42.6504C50.2343 42.6504 53.3254 45.7415 53.3261 49.5564V49.6384H46.3374V42.6504H46.4194ZM46.5014 49.4744H53.1616C53.1173 45.8152 50.1606 42.8585 46.5014 42.8149V49.4744Z" fill="white"/>
<path d="M73.1024 60.4922V61.0909H41.7964V60.4922H73.1024Z" fill="#3D3D3D"/>
<path d="M73.1024 63.623V64.2218H41.7964V63.623H73.1024Z" fill="#3D3D3D"/>
<path d="M35.6776 41.0859C35.8981 41.0859 36.0767 41.2647 36.0767 41.4851C36.0767 41.7056 35.8981 41.8843 35.6776 41.8843H30.1755C29.9551 41.8843 29.7764 41.7056 29.7764 41.4851C29.7764 41.2647 29.9551 41.0859 30.1755 41.0859H35.6776Z" fill="white"/>
<path d="M35.6776 45.4219C35.8981 45.4219 36.0767 45.6006 36.0767 45.821C36.0767 46.0415 35.8981 46.2202 35.6776 46.2202H30.1755C29.9551 46.2202 29.7764 46.0415 29.7764 45.821C29.7764 45.6006 29.9551 45.4219 30.1755 45.4219H35.6776Z" fill="white"/>
<path d="M35.6776 49.7578C35.8981 49.7578 36.0767 49.9365 36.0767 50.157C36.0767 50.3774 35.8981 50.5562 35.6776 50.5562H30.1755C29.9551 50.5562 29.7764 50.3774 29.7764 50.157C29.7764 49.9365 29.9551 49.7578 30.1755 49.7578H35.6776Z" fill="white"/>
<path d="M35.6776 54.0938C35.8981 54.0938 36.0767 54.2725 36.0767 54.4929C36.0767 54.7134 35.8981 54.8921 35.6776 54.8921H30.1755C29.9551 54.8921 29.7764 54.7134 29.7764 54.4929C29.7764 54.2725 29.9551 54.0938 30.1755 54.0938H35.6776Z" fill="white"/>
<path d="M35.6776 58.4277C35.8981 58.4277 36.0767 58.6065 36.0767 58.8269C36.0767 59.0474 35.8981 59.2261 35.6776 59.2261H30.1755C29.9551 59.2261 29.7764 59.0474 29.7764 58.8269C29.7764 58.6065 29.9551 58.4277 30.1755 58.4277H35.6776Z" fill="white"/>
<path d="M35.6776 62.7637C35.8981 62.7637 36.0767 62.9424 36.0767 63.1628C36.0767 63.3833 35.8981 63.562 35.6776 63.562H30.1755C29.9551 63.562 29.7764 63.3833 29.7764 63.1628C29.7764 62.9424 29.9551 62.7637 30.1755 62.7637H35.6776Z" fill="white"/>
</g>
<defs>
<filter id="filter0_d_1768_2767" x="-9.72748e-05" y="0.000391006" width="111.8" height="107.8" filterUnits="userSpaceOnUse" color-interpolation-filters="sRGB">
<feFlood flood-opacity="0" result="BackgroundImageFix"/>
<feColorMatrix in="SourceAlpha" type="matrix" values="0 0 0 0 0 0 0 0 0 0 0 0 0 0 0 0 0 0 127 0" result="hardAlpha"/>
<feMorphology radius="4" operator="dilate" in="SourceAlpha" result="effect1_dropShadow_1768_2767"/>
<feOffset dx="4" dy="4"/>
<feGaussianBlur stdDeviation="4.7"/>
<feComposite in2="hardAlpha" operator="out"/>
<feColorMatrix type="matrix" values="0 0 0 0 0.742582 0 0 0 0 0.742582 0 0 0 0 0.742582 0 0 0 0.25 0"/>
<feBlend mode="normal" in2="BackgroundImageFix" result="effect1_dropShadow_1768_2767"/>
<feBlend mode="normal" in="SourceGraphic" in2="effect1_dropShadow_1768_2767" result="shape"/>
</filter>
<linearGradient id="paint0_linear_1768_2767" x1="28.1812" y1="52.3093" x2="38.0492" y2="52.3093" gradientUnits="userSpaceOnUse">
<stop stop-color="#404041"/>
<stop offset="1" stop-color="#6E6E70"/>
</linearGradient>
<linearGradient id="paint1_linear_1768_2767" x1="28.1813" y1="36.3231" x2="75.6195" y2="36.3231" gradientUnits="userSpaceOnUse">
<stop stop-color="#811849"/>
<stop offset="1" stop-color="#D81C5C"/>
</linearGradient>
<linearGradient id="paint2_linear_1768_2767" x1="55.3774" y1="54.409" x2="59.1889" y2="54.409" gradientUnits="userSpaceOnUse">
<stop stop-color="#811849"/>
<stop offset="1" stop-color="#D81C5C"/>
</linearGradient>
<linearGradient id="paint3_linear_1768_2767" x1="60.1999" y1="52.7506" x2="64.0113" y2="52.7506" gradientUnits="userSpaceOnUse">
<stop stop-color="#811849"/>
<stop offset="1" stop-color="#D81C5C"/>
</linearGradient>
<linearGradient id="paint4_linear_1768_2767" x1="65.0221" y1="50.9019" x2="68.8336" y2="50.9019" gradientUnits="userSpaceOnUse">
<stop stop-color="#811849"/>
<stop offset="1" stop-color="#D81C5C"/>
</linearGradient>
<linearGradient id="paint5_linear_1768_2767" x1="69.8452" y1="49.4999" x2="73.6564" y2="49.4999" gradientUnits="userSpaceOnUse">
<stop stop-color="#811849"/>
<stop offset="1" stop-color="#D81C5C"/>
</linearGradient>
<linearGradient id="paint6_linear_1768_2767" x1="63.1756" y1="36.3222" x2="65.8587" y2="36.3222" gradientUnits="userSpaceOnUse">
<stop stop-color="#811849"/>
<stop offset="1" stop-color="#D81C5C"/>
</linearGradient>
<linearGradient id="paint7_linear_1768_2767" x1="67.2787" y1="36.3222" x2="69.9618" y2="36.3222" gradientUnits="userSpaceOnUse">
<stop stop-color="#65083A"/>
<stop offset="1"/>
</linearGradient>
<linearGradient id="paint8_linear_1768_2767" x1="71.249" y1="36.3222" x2="73.9321" y2="36.3222" gradientUnits="userSpaceOnUse">
<stop stop-color="#404041"/>
<stop offset="1" stop-color="#6E6E70"/>
</linearGradient>
<linearGradient id="paint9_linear_1768_2767" x1="38.9821" y1="50.1114" x2="52.6314" y2="50.1114" gradientUnits="userSpaceOnUse">
<stop stop-color="#811849"/>
<stop offset="1" stop-color="#D81C5C"/>
</linearGradient>
<linearGradient id="paint10_linear_1768_2767" x1="46.4194" y1="46.1425" x2="53.2441" y2="46.1425" gradientUnits="userSpaceOnUse">
<stop stop-color="#65083A"/>
<stop offset="1"/>
</linearGradient>
</defs>
</svg>
