<svg width="112" height="108" viewBox="0 0 112 108" fill="none" xmlns="http://www.w3.org/2000/svg">
<g filter="url(#filter0_d_1574_4888)">
<path d="M9.3999 33.4004C9.3999 20.1456 20.1451 9.40039 33.3999 9.40039H70.3999C83.6547 9.40039 94.3999 20.1456 94.3999 33.4004V66.4004C94.3999 79.6552 83.6547 90.4004 70.3999 90.4004H33.3999C20.1451 90.4004 9.3999 79.6552 9.3999 66.4004V33.4004Z" fill="white" shape-rendering="crispEdges"/>
<path d="M61.746 25.4736V26.0052H61.7339V25.4736H61.746Z" fill="white"/>
<path d="M69.1408 31.2704V72.638C69.1411 72.8588 69.0979 73.0775 69.0135 73.2816C68.9292 73.4857 68.8054 73.6711 68.6492 73.8273C68.4931 73.9834 68.3076 74.1073 68.1035 74.1916C67.8995 74.276 67.6807 74.3192 67.4599 74.3189H34.1655V27.4173C34.1664 26.9717 34.3438 26.5447 34.6589 26.2297C34.9739 25.9146 35.4009 25.7372 35.8465 25.7363H61.7382L61.747 25.7451V31.2364H69.0961L69.1408 31.2704Z" fill="url(#paint0_linear_1574_4888)"/>
<path d="M61.8486 25.4707L62.013 25.6352V30.9707H69.1859L69.4068 31.1388V72.6378L69.4063 72.6857C69.4008 72.9252 69.351 73.1617 69.2594 73.3834C69.1616 73.6198 69.0182 73.8346 68.8374 74.0154C68.6565 74.1963 68.4417 74.3397 68.2053 74.4375C67.969 74.5351 67.7158 74.5852 67.4601 74.5849L33.8999 74.5849V27.4169C33.9009 26.9011 34.1063 26.4067 34.4711 26.0419C34.8359 25.6771 35.3303 25.4717 35.8461 25.4707H61.8486ZM35.8471 26.0023C35.4719 26.0031 35.1123 26.1525 34.847 26.4178C34.5817 26.6831 34.4323 27.0427 34.4315 27.4179V74.0533H67.4605C67.6463 74.0535 67.8304 74.0172 68.0022 73.9462C68.1739 73.8752 68.33 73.7709 68.4614 73.6395C68.5928 73.5081 68.697 73.352 68.768 73.1802C68.839 73.0085 68.8755 72.8244 68.8752 72.6385V31.5024H61.4813V26.0023H35.8471Z" fill="white"/>
<path d="M69.4076 31.2383V31.2704H68.876V31.2383H69.4076Z" fill="white"/>
<path d="M69.1419 30.9727V31.5043H69.0996V30.9727H69.1419Z" fill="white"/>
<path d="M62.0121 25.7393V25.748H61.4805V25.7393H62.0121Z" fill="white"/>
<path d="M69.0996 31.2384H61.7461V25.748L69.0996 31.2384Z" fill="#404041"/>
<path d="M69.9001 31.5041H61.4805V25.2178L69.9001 31.5041ZM62.0121 30.9725H68.2994L62.0121 26.2781V30.9725Z" fill="white"/>
<path d="M51.9486 32.9639V33.4955H37.9326V32.9639H51.9486Z" fill="white"/>
<path d="M52.2493 38.0811V38.6127H37.6055V38.0811H52.2493Z" fill="white"/>
<path d="M65.9762 45.0918V45.6234H37.9326V45.0918H65.9762Z" fill="white"/>
<path d="M65.9641 51.667V52.1986H37.9326V51.667H65.9641Z" fill="white"/>
<path d="M65.9762 58.2422V58.7738H37.9326V58.2422H65.9762Z" fill="white"/>
<path d="M65.9641 64.8174V65.349H37.9326V64.8174H65.9641Z" fill="white"/>
<path d="M65.9762 71.3936V71.9252H37.9326V71.3936H65.9762Z" fill="white"/>
<path d="M60.4255 41.5535V33.5918H60.9355V41.5535H60.4255ZM62.1422 35.9803C62.1049 35.6652 61.9535 35.4205 61.6881 35.2463C61.4227 35.0722 61.0972 34.9851 60.7116 34.9851C60.4296 34.9851 60.1829 35.0307 59.9714 35.1219C59.762 35.2132 59.5982 35.3386 59.48 35.4983C59.3639 35.6579 59.3058 35.8393 59.3058 36.0425C59.3058 36.2125 59.3463 36.3587 59.4271 36.481C59.5101 36.6013 59.6158 36.7019 59.7443 36.7827C59.8729 36.8615 60.0077 36.9268 60.1487 36.9786C60.2896 37.0284 60.4192 37.0688 60.5374 37.0999L61.1843 37.2741C61.3502 37.3176 61.5347 37.3778 61.7379 37.4545C61.9432 37.5312 62.1391 37.6359 62.3257 37.7686C62.5144 37.8992 62.6699 38.0672 62.7922 38.2724C62.9145 38.4777 62.9757 38.7296 62.9757 39.0282C62.9757 39.3724 62.8855 39.6834 62.7051 39.9612C62.5268 40.239 62.2656 40.4598 61.9214 40.6236C61.5793 40.7874 61.1636 40.8693 60.6743 40.8693C60.2181 40.8693 59.8231 40.7957 59.4893 40.6485C59.1576 40.5013 58.8963 40.296 58.7056 40.0327C58.5169 39.7694 58.4101 39.4636 58.3853 39.1153H59.1814C59.2022 39.3558 59.283 39.5548 59.424 39.7124C59.5671 39.8679 59.7475 39.984 59.9652 40.0607C60.1849 40.1354 60.4213 40.1727 60.6743 40.1727C60.9687 40.1727 61.233 40.125 61.4673 40.0296C61.7016 39.9322 61.8872 39.7974 62.024 39.6253C62.1609 39.4511 62.2293 39.248 62.2293 39.0157C62.2293 38.8043 62.1702 38.6322 62.052 38.4995C61.9338 38.3668 61.7783 38.259 61.5855 38.176C61.3927 38.0931 61.1843 38.0205 60.9604 37.9583L60.1766 37.7344C59.679 37.5913 59.2851 37.3871 58.9948 37.1217C58.7046 36.8563 58.5594 36.509 58.5594 36.0798C58.5594 35.7232 58.6558 35.4122 58.8487 35.1468C59.0435 34.8794 59.3048 34.672 59.6324 34.5248C59.9621 34.3755 60.3301 34.3009 60.7365 34.3009C61.147 34.3009 61.5119 34.3745 61.8312 34.5217C62.1505 34.6668 62.4034 34.8659 62.59 35.1188C62.7787 35.3718 62.8782 35.6589 62.8886 35.9803H62.1422Z" fill="black"/>
<path d="M60.4255 41.5535V33.5918H60.9355V41.5535H60.4255ZM62.1422 35.9803C62.1049 35.6652 61.9535 35.4205 61.6881 35.2463C61.4227 35.0722 61.0972 34.9851 60.7116 34.9851C60.4296 34.9851 60.1829 35.0307 59.9714 35.1219C59.762 35.2132 59.5982 35.3386 59.48 35.4983C59.3639 35.6579 59.3058 35.8393 59.3058 36.0425C59.3058 36.2125 59.3463 36.3587 59.4271 36.481C59.5101 36.6013 59.6158 36.7019 59.7443 36.7827C59.8729 36.8615 60.0077 36.9268 60.1487 36.9786C60.2896 37.0284 60.4192 37.0688 60.5374 37.0999L61.1843 37.2741C61.3502 37.3176 61.5347 37.3778 61.7379 37.4545C61.9432 37.5312 62.1391 37.6359 62.3257 37.7686C62.5144 37.8992 62.6699 38.0672 62.7922 38.2724C62.9145 38.4777 62.9757 38.7296 62.9757 39.0282C62.9757 39.3724 62.8855 39.6834 62.7051 39.9612C62.5268 40.239 62.2656 40.4598 61.9214 40.6236C61.5793 40.7874 61.1636 40.8693 60.6743 40.8693C60.2181 40.8693 59.8231 40.7957 59.4893 40.6485C59.1576 40.5013 58.8963 40.296 58.7056 40.0327C58.5169 39.7694 58.4101 39.4636 58.3853 39.1153H59.1814C59.2022 39.3558 59.283 39.5548 59.424 39.7124C59.5671 39.8679 59.7475 39.984 59.9652 40.0607C60.1849 40.1354 60.4213 40.1727 60.6743 40.1727C60.9687 40.1727 61.233 40.125 61.4673 40.0296C61.7016 39.9322 61.8872 39.7974 62.024 39.6253C62.1609 39.4511 62.2293 39.248 62.2293 39.0157C62.2293 38.8043 62.1702 38.6322 62.052 38.4995C61.9338 38.3668 61.7783 38.259 61.5855 38.176C61.3927 38.0931 61.1843 38.0205 60.9604 37.9583L60.1766 37.7344C59.679 37.5913 59.2851 37.3871 58.9948 37.1217C58.7046 36.8563 58.5594 36.509 58.5594 36.0798C58.5594 35.7232 58.6558 35.4122 58.8487 35.1468C59.0435 34.8794 59.3048 34.672 59.6324 34.5248C59.9621 34.3755 60.3301 34.3009 60.7365 34.3009C61.147 34.3009 61.5119 34.3745 61.8312 34.5217C62.1505 34.6668 62.4034 34.8659 62.59 35.1188C62.7787 35.3718 62.8782 35.6589 62.8886 35.9803H62.1422Z" fill="white"/>
<path d="M62.1593 39.0164C62.1593 38.8186 62.1044 38.6642 61.9997 38.5467C61.8895 38.4229 61.7429 38.3206 61.5578 38.2409C61.3865 38.1673 61.2024 38.1019 61.0054 38.0446V40.0807C61.1615 40.0585 61.3064 40.0201 61.4405 39.9656C61.6654 39.872 61.8406 39.744 61.9689 39.5827C62.0956 39.4215 62.1593 39.2337 62.1593 39.0164ZM60.8655 40.9356C60.8029 40.9385 60.7392 40.94 60.6742 40.94C60.6136 40.94 60.554 40.9386 60.4954 40.9361V41.4842H60.8655V40.9356ZM60.8655 40.2363C60.803 40.2408 60.7393 40.2433 60.6742 40.2433C60.6137 40.2433 60.5541 40.2411 60.4954 40.2369V40.7959C60.5538 40.7986 60.6134 40.8 60.6742 40.8C60.7394 40.8 60.8031 40.7984 60.8655 40.7955V40.2363ZM58.4618 39.1859C58.495 39.491 58.5953 39.7593 58.7622 39.9923C58.9449 40.2445 59.1959 40.4424 59.5176 40.5852H59.5176C59.7613 40.6926 60.0403 40.7602 60.3554 40.7869V40.2229C60.2124 40.2041 60.0747 40.1725 59.9426 40.1276L59.9422 40.1275L59.9419 40.1273C59.7144 40.0472 59.524 39.9251 59.3725 39.7604L59.3721 39.76L59.3718 39.7597C59.2323 39.6038 59.1487 39.4114 59.1187 39.1859H58.4618ZM60.4954 40.0967C60.554 40.1011 60.6136 40.1033 60.6742 40.1033C60.7396 40.1033 60.8033 40.1008 60.8655 40.096V38.0046L60.4954 37.8989V40.0967ZM60.4954 37.7533L60.8655 37.8591V37.2613L60.5192 37.1681V37.1681C60.5113 37.166 60.5034 37.1638 60.4954 37.1617V37.7533ZM60.7115 35.0557C60.6367 35.0557 60.5647 35.0591 60.4954 35.0657V37.0166C60.5007 37.018 60.5059 37.0196 60.5111 37.021L60.5552 37.0329L60.5556 37.033V37.033L60.8655 37.1164V35.0607C60.8154 35.0574 60.7641 35.0557 60.7115 35.0557ZM61.0054 34.9336C61.2782 34.968 61.519 35.0524 61.7265 35.1885C61.9916 35.3624 62.1512 35.6046 62.2028 35.911H62.8147C62.7932 35.6328 62.6996 35.3835 62.5339 35.1613L62.5337 35.161C62.355 34.9187 62.1119 34.7268 61.8022 34.5861L61.8018 34.5859C61.5639 34.4762 61.2986 34.4082 61.0054 34.3829V34.9336ZM60.7364 34.3715C60.6544 34.3715 60.5741 34.3746 60.4954 34.3808V34.925C60.5653 34.9189 60.6373 34.9157 60.7115 34.9157C60.7638 34.9157 60.8151 34.9174 60.8655 34.9205V34.3741C60.823 34.3724 60.78 34.3715 60.7364 34.3715ZM60.4954 34.2404C60.5743 34.2345 60.6546 34.2316 60.7364 34.2316C60.7799 34.2316 60.8229 34.2324 60.8655 34.234V33.6624H60.4954V34.2404ZM63.0456 39.0288C63.0456 39.3858 62.9518 39.71 62.7639 39.9996C62.5775 40.29 62.3056 40.5188 61.9515 40.6873L61.9516 40.6874C61.679 40.8179 61.3632 40.8971 61.0054 40.9267V41.6241H60.3554V40.9273C60.0227 40.9002 59.7242 40.8292 59.461 40.7132L59.4609 40.7131C59.1192 40.5615 58.8477 40.3489 58.6489 40.0744L58.6487 40.0741C58.4519 39.7995 58.3411 39.481 58.3154 39.1209L58.3101 39.0459H59.2456L59.2511 39.1099C59.2707 39.3374 59.3466 39.5215 59.4759 39.6662C59.6103 39.812 59.7803 39.9219 59.9876 39.9951C60.105 40.035 60.2276 40.0638 60.3554 40.0816V37.8589L60.1574 37.8023H60.1573C59.6524 37.6572 59.2479 37.4486 58.9475 37.174C58.6414 36.894 58.4894 36.5273 58.4894 36.0805C58.4894 35.7104 58.5897 35.3847 58.792 35.1063L58.792 35.1062C58.9884 34.8368 59.249 34.6268 59.5722 34.476L59.6036 34.4616C59.8364 34.3562 60.0871 34.2873 60.3554 34.2543V33.5225H61.0054V34.2423C61.3176 34.2681 61.6028 34.34 61.8604 34.4588H61.8604C62.1891 34.6083 62.4519 34.8144 62.6463 35.0779H62.6463C62.8435 35.3425 62.9477 35.6434 62.9585 35.9787L62.9608 36.0509H62.08L62.0727 35.9892C62.0378 35.6946 61.8978 35.4683 61.6497 35.3055C61.4669 35.1855 61.2526 35.1081 61.0054 35.0747V37.1541L61.2025 37.2071H61.2024C61.371 37.2514 61.5577 37.3123 61.7623 37.3896L61.8018 37.4047C61.9984 37.482 62.1863 37.5844 62.3654 37.7117H62.3655C62.5627 37.8483 62.725 38.0237 62.8523 38.2372C62.9825 38.4557 63.0456 38.7208 63.0456 39.0288ZM62.2992 39.0164C62.2992 39.2635 62.226 39.482 62.079 39.6692L62.0787 39.6695C61.9335 39.8522 61.7377 39.9936 61.4942 40.0948L61.4936 40.0951C61.3422 40.1567 61.1794 40.1989 61.0054 40.222V40.7862C61.3446 40.7571 61.6395 40.6816 61.8911 40.5612L61.8913 40.5611C62.2255 40.402 62.476 40.1893 62.6462 39.924L62.6464 39.9237C62.8191 39.6577 62.9057 39.36 62.9057 39.0288C62.9057 38.7397 62.8465 38.5009 62.732 38.3089C62.6146 38.1119 62.4659 37.9515 62.2858 37.8268L62.2855 37.8265L62.2851 37.8263C62.1032 37.6969 61.9127 37.5952 61.7134 37.5207L61.7131 37.5206C61.5117 37.4445 61.3295 37.3852 61.1665 37.3424L61.1661 37.3423L61.0054 37.299V37.899C61.2221 37.9603 61.4247 38.0314 61.6131 38.1124C61.8136 38.1986 61.9781 38.312 62.1042 38.4535C62.2359 38.6014 62.2992 38.7912 62.2992 39.0164ZM58.6293 36.0805C58.6293 36.492 58.7676 36.8199 59.042 37.0707C59.3222 37.3269 59.7056 37.5268 60.1959 37.6678H60.1959L60.3554 37.7133V37.1213C60.2822 37.0989 60.2055 37.0736 60.1253 37.0453L60.1245 37.045C59.9791 36.9916 59.8402 36.9242 59.7078 36.843L59.7074 36.8428L59.707 36.8426C59.5708 36.7569 59.458 36.6498 59.3695 36.5214L59.3691 36.5208L59.3687 36.5203C59.2791 36.3848 59.2358 36.2247 59.2358 36.0432C59.2358 35.8257 59.2983 35.6297 59.4233 35.4577L59.4237 35.4573H59.4237C59.5502 35.2864 59.7244 35.1538 59.9434 35.0584L59.9436 35.0583C60.0698 35.0039 60.2072 34.9653 60.3554 34.9421V34.3954C60.1065 34.4276 59.8752 34.4923 59.6612 34.5892L59.661 34.5893C59.3436 34.7319 59.0923 34.9319 58.9052 35.1887C58.7218 35.441 58.6293 35.7373 58.6293 36.0805ZM59.3757 36.0432C59.3758 36.2017 59.4133 36.3339 59.4854 36.443C59.5625 36.5545 59.6607 36.648 59.7809 36.7237L59.8279 36.7517C59.938 36.8155 60.0526 36.8694 60.1719 36.9133C60.2355 36.9358 60.2967 36.9562 60.3554 36.9747V35.084C60.2261 35.1058 60.1075 35.14 59.9992 35.1867L59.9993 35.1867C59.7994 35.2738 59.646 35.3921 59.5362 35.5405C59.4293 35.6877 59.3757 35.8545 59.3757 36.0432Z" fill="white"/>
</g>
<defs>
<filter id="filter0_d_1574_4888" x="-9.72748e-05" y="0.000391006" width="111.8" height="107.8" filterUnits="userSpaceOnUse" color-interpolation-filters="sRGB">
<feFlood flood-opacity="0" result="BackgroundImageFix"/>
<feColorMatrix in="SourceAlpha" type="matrix" values="0 0 0 0 0 0 0 0 0 0 0 0 0 0 0 0 0 0 127 0" result="hardAlpha"/>
<feMorphology radius="4" operator="dilate" in="SourceAlpha" result="effect1_dropShadow_1574_4888"/>
<feOffset dx="4" dy="4"/>
<feGaussianBlur stdDeviation="4.7"/>
<feComposite in2="hardAlpha" operator="out"/>
<feColorMatrix type="matrix" values="0 0 0 0 0.742582 0 0 0 0 0.742582 0 0 0 0 0.742582 0 0 0 0.25 0"/>
<feBlend mode="normal" in2="BackgroundImageFix" result="effect1_dropShadow_1574_4888"/>
<feBlend mode="normal" in="SourceGraphic" in2="effect1_dropShadow_1574_4888" result="shape"/>
</filter>
<linearGradient id="paint0_linear_1574_4888" x1="34.1655" y1="50.0274" x2="69.1408" y2="50.0274" gradientUnits="userSpaceOnUse">
<stop stop-color="#811849"/>
<stop offset="1" stop-color="#D81C5C"/>
</linearGradient>
</defs>
</svg>
