<svg width="112" height="108" viewBox="0 0 112 108" fill="none" xmlns="http://www.w3.org/2000/svg">
<g filter="url(#filter0_d_1768_2656)">
<path d="M9.3999 33.4004C9.3999 20.1456 20.1451 9.40039 33.3999 9.40039H70.3999C83.6547 9.40039 94.3999 20.1456 94.3999 33.4004V66.4004C94.3999 79.6552 83.6547 90.4004 70.3999 90.4004H33.3999C20.1451 90.4004 9.3999 79.6552 9.3999 66.4004V33.4004Z" fill="white" shape-rendering="crispEdges"/>
<path d="M66.4825 31.4445V53.6107H57.7644V74.9004H32.0255C31.6148 74.9014 31.2079 74.822 30.8282 74.6667C30.4485 74.5113 30.1035 74.2832 29.8131 73.9954C29.5226 73.7076 29.2924 73.3657 29.1357 72.9894C28.979 72.6132 28.8989 72.2099 28.8999 71.8029V31.4445C28.8989 31.0375 28.9791 30.6342 29.1358 30.258C29.2925 29.8817 29.5227 29.5399 29.8131 29.252C30.1036 28.9642 30.4485 28.736 30.8282 28.5807C31.2079 28.4254 31.6148 28.3459 32.0255 28.3469H63.3564C64.1851 28.348 64.9795 28.6748 65.5655 29.2554C66.1515 29.8361 66.4813 30.6233 66.4825 31.4445Z" fill="url(#paint0_linear_1768_2656)"/>
<path d="M74.8999 52.2476L66.5272 61.487L62.0318 57.2826L63.3246 55.9255L66.4156 58.8163L73.4988 51L74.8999 52.2476Z" fill="url(#paint1_linear_1768_2656)"/>
<path d="M74.8999 63.3315L66.5272 72.571L62.0318 68.3666L63.3246 67.0094L66.4156 69.9003L73.4988 62.084L74.8999 63.3315Z" fill="url(#paint2_linear_1768_2656)"/>
<path d="M55.773 25.3878H39.6088C37.9528 25.3878 36.6104 26.7181 36.6104 28.3591C36.6104 30.0001 37.9528 31.3304 39.6088 31.3304H55.773C57.429 31.3304 58.7714 30.0001 58.7714 28.3591C58.7714 26.7181 57.429 25.3878 55.773 25.3878Z" fill="url(#paint3_linear_1768_2656)"/>
<path d="M58.2798 28.3592C58.2798 26.9872 57.1577 25.8753 55.7732 25.8752H39.6088C38.2242 25.8752 37.1022 26.9871 37.1022 28.3592C37.1023 29.7312 38.2242 30.8431 39.6088 30.8431H55.7732C57.1577 30.843 58.2798 29.7311 58.2798 28.3592ZM59.2624 28.3592C59.2623 30.269 57.7005 31.8178 55.7732 31.818H39.6088C37.6815 31.818 36.1186 30.2691 36.1185 28.3592C36.1185 26.4492 37.6814 24.9004 39.6088 24.9004H55.7732C57.7005 24.9005 59.2624 26.4493 59.2624 28.3592Z" fill="white"/>
<path d="M34.5076 35.7932H36.2969V48.1923H34.5076V35.7932ZM35.4282 41.7286H39.5074C39.8648 41.7361 40.2171 41.6445 40.5249 41.4643C40.8202 41.2847 41.0566 41.0239 41.2051 40.7136C41.3643 40.3608 41.4465 39.9787 41.4465 39.5923C41.4465 39.2059 41.3643 38.8238 41.2051 38.4711C41.0559 38.1602 40.8198 37.8984 40.5249 37.7166C40.2182 37.5333 39.8654 37.4401 39.5074 37.4477H35.4278V35.7932H39.4461C40.1456 35.7786 40.8372 35.9416 41.4552 36.2667C42.025 36.5728 42.4926 37.0365 42.801 37.6014C43.1155 38.2196 43.2793 38.9023 43.2793 39.5946C43.2793 40.2869 43.1155 40.9696 42.801 41.5878C42.492 42.15 42.0243 42.6107 41.4552 42.9136C40.8364 43.236 40.1451 43.3975 39.4461 43.383H35.4278L35.4282 41.7286Z" fill="white"/>
<path d="M41.1577 39.592C41.1577 39.246 41.0836 38.9041 40.9411 38.5882C40.8161 38.3312 40.62 38.1136 40.3759 37.9621L40.174 37.8593C39.9663 37.772 39.7414 37.7293 39.5141 37.7341H36.5856V41.4422H39.5129C39.8166 41.4485 40.1167 41.3706 40.3782 41.2175C40.6217 41.0682 40.816 40.8527 40.94 40.597C41.0825 40.281 41.1577 39.9382 41.1577 39.592ZM34.7964 47.9059H36.008V43.669H35.1394V41.4422H36.008V37.7341H35.1394V36.0796H34.7964V47.9059ZM35.7169 43.0967H36.008V42.0145H35.7169V43.0967ZM35.7169 37.1617H36.008V36.0796H35.7169V37.1617ZM43.5684 39.5943C43.5684 40.3314 43.3934 41.059 43.0585 41.7172L43.0551 41.725C42.7193 42.336 42.2105 42.8367 41.592 43.166L41.5898 43.1671C40.9295 43.511 40.1921 43.6823 39.4464 43.6679L36.5856 43.669V48.4782H34.2188V35.5072H39.4464C40.0995 35.4946 40.746 35.6263 41.3393 35.8918L41.5909 36.0136L41.5931 36.0148C42.1346 36.3057 42.5908 36.7281 42.9209 37.24L43.0551 37.4647L43.0585 37.4725C43.3933 38.1306 43.5684 38.8573 43.5684 39.5943ZM41.7353 39.592C41.7353 40.0187 41.6448 40.4412 41.469 40.8307L41.4657 40.8363C41.2931 41.1966 41.019 41.4996 40.676 41.7082L40.6715 41.7105C40.3192 41.9167 39.9163 42.0208 39.5073 42.0134L36.5856 42.0145V43.0967H39.452C40.1022 43.1102 40.7457 42.9605 41.3213 42.6607C41.8377 42.3852 42.2612 41.9664 42.543 41.4567C42.8366 40.8789 42.9908 40.2412 42.9908 39.5943C42.9908 38.9469 42.837 38.3088 42.543 37.7307C42.2616 37.219 41.837 36.7972 41.3201 36.5189L41.1013 36.4127C40.5845 36.1816 40.0209 36.0677 39.452 36.0796H36.5856V37.1617H39.5073C39.9178 37.1542 40.3221 37.2613 40.6737 37.4714L40.8023 37.5563C41.0861 37.7605 41.3143 38.0326 41.4657 38.3478L41.469 38.3545C41.6446 38.7439 41.7352 39.1656 41.7353 39.592Z" fill="white"/>
<path d="M47.3844 47.753C46.713 47.3824 46.1656 46.8253 45.8096 46.1504C45.426 45.4083 45.2345 44.5834 45.2524 43.7498V40.2362C45.2346 39.4026 45.4261 38.5777 45.8096 37.8356C46.1657 37.1607 46.7131 36.6037 47.3844 36.233C48.1109 35.8603 48.9171 35.6658 49.7352 35.6658C50.5533 35.6658 51.3594 35.8603 52.0859 36.233C52.7576 36.6033 53.305 37.1605 53.6608 37.8356C54.0443 38.5777 54.2358 39.4026 54.218 40.2362V43.7493C54.2359 44.5829 54.0444 45.4078 53.6608 46.1499C53.3051 46.8251 52.7576 47.3822 52.0859 47.7525C51.3594 48.1252 50.5533 48.3198 49.7352 48.3198C48.9171 48.3198 48.1109 48.1257 47.3844 47.753ZM51.1263 46.2604C51.5265 46.031 51.8498 45.6901 52.0558 45.28C52.2828 44.8228 52.3958 44.3183 52.3852 43.8088V40.1765C52.3958 39.667 52.2828 39.1625 52.0558 38.7053C51.8494 38.2954 51.5263 37.9546 51.1263 37.7249C50.6986 37.4981 50.221 37.3794 49.7359 37.3794C49.2508 37.3794 48.7732 37.4981 48.3455 37.7249C47.9453 37.9545 47.6217 38.2954 47.4149 38.7053C47.1883 39.1626 47.0757 39.6671 47.0866 40.1765V43.809C47.0757 44.3184 47.1883 44.8229 47.4149 45.2803C47.6214 45.6904 47.945 46.0313 48.3455 46.2606C48.7732 46.4874 49.2508 46.6061 49.7359 46.6061C50.221 46.6061 50.6986 46.4872 51.1263 46.2604Z" fill="white"/>
<path d="M49.7354 35.3796C50.5995 35.3796 51.4509 35.5852 52.2183 35.9788L52.2262 35.9832C52.857 36.3311 53.3856 36.8322 53.7638 37.4376L53.9172 37.7037L53.9183 37.7048C54.3226 38.4872 54.5248 39.357 54.5072 40.2357V43.7437L54.5038 44.0735C54.4721 44.841 54.2729 45.5942 53.9183 46.2802L53.9172 46.2825C53.5354 47.0072 52.9471 47.6054 52.2262 48.0029L52.2183 48.0063C51.4508 48.3999 50.5995 48.6054 49.7354 48.6054C48.8712 48.6054 48.0189 48.4012 47.2513 48.0074L47.2434 48.0029C46.523 47.6051 45.9356 47.0067 45.5535 46.2825L45.5524 46.2813C45.147 45.497 44.9447 44.6247 44.9636 43.7437V40.2357C44.9459 39.357 45.1481 38.4872 45.5524 37.7048L45.5535 37.7026C45.9356 36.9785 46.5232 36.381 47.2434 35.9832L47.2513 35.9788L47.5435 35.8402C48.2325 35.5371 48.9791 35.3796 49.7354 35.3796ZM49.7354 35.9519C48.9635 35.9519 48.203 36.1358 47.5175 36.4874C46.8988 36.8309 46.3943 37.3457 46.0657 37.9686C45.7048 38.6679 45.5244 39.4449 45.5411 40.2301V43.756C45.5244 44.5413 45.7047 45.3183 46.0657 46.0175L46.1977 46.2467C46.5228 46.7669 46.9763 47.1983 47.5175 47.4987L47.7781 47.6228C48.3933 47.8933 49.06 48.0331 49.7354 48.0331C50.5043 48.0331 51.2619 47.8511 51.9453 47.5021C52.5676 47.159 53.0754 46.6431 53.405 46.0175C53.7661 45.3182 53.9464 44.5403 53.9296 43.7549V40.2301C53.9463 39.4449 53.7659 38.6679 53.405 37.9686L53.273 37.7383C52.9482 37.2183 52.4942 36.7875 51.9532 36.4874L51.6926 36.3633C51.0773 36.0927 50.4107 35.952 49.7354 35.9519ZM49.7365 37.0933C50.2026 37.0934 50.6623 37.1932 51.0845 37.3851L51.2628 37.4723L51.2707 37.4768C51.6635 37.7023 51.9909 38.024 52.2217 38.4091L52.3142 38.5779L52.3153 38.579C52.5618 39.0755 52.6845 39.6233 52.674 40.1765V43.803L52.6718 44.0109C52.6525 44.4947 52.5316 44.9701 52.3153 45.406L52.3142 45.4071C52.0829 45.8675 51.7199 46.2508 51.2707 46.5083L51.2628 46.5127C50.7934 46.7617 50.269 46.8916 49.7365 46.8917C49.2038 46.8917 48.6787 46.7618 48.2091 46.5127L48.2012 46.5083C47.7517 46.251 47.3883 45.8685 47.1566 45.4083L47.1554 45.406C46.9086 44.9077 46.7859 44.3579 46.7978 43.803V40.1765C46.787 39.6234 46.9093 39.0756 47.1554 38.579L47.1566 38.5768C47.3886 38.117 47.7522 37.7343 48.2012 37.4768L48.2091 37.4723C48.6787 37.2233 49.2038 37.0933 49.7365 37.0933ZM49.7365 37.6657C49.3 37.6657 48.8694 37.7717 48.4843 37.9753C48.1362 38.1765 47.8538 38.4735 47.6732 38.8305C47.467 39.2468 47.3655 39.7073 47.3754 40.1709V43.8153C47.3655 44.2781 47.4676 44.7366 47.6732 45.1523C47.8536 45.5105 48.1362 45.8085 48.4854 46.0097C48.8704 46.2131 49.3002 46.3193 49.7365 46.3193C50.1721 46.3193 50.6007 46.2127 50.9853 46.0097C51.3342 45.8087 51.6162 45.5114 51.7964 45.1534C52.0029 44.7373 52.106 44.2778 52.0964 43.8141V40.1709C52.106 39.7072 52.003 39.2478 51.7964 38.8317C51.6165 38.4757 51.3364 38.1775 50.9898 37.9765C50.6043 37.7722 50.1736 37.6658 49.7365 37.6657Z" fill="white"/>
<path d="M35.4981 57.0411H32.9255V59.5905H35.4981V57.0411Z" fill="white"/>
<path d="M54.961 57.0411H37.0644V59.5905H54.961V57.0411Z" fill="white"/>
<path d="M35.4981 65.697H32.9255V68.2464H35.4981V65.697Z" fill="white"/>
<path d="M54.961 65.697H37.0644V68.2464H54.961V65.697Z" fill="white"/>
</g>
<defs>
<filter id="filter0_d_1768_2656" x="-9.72748e-05" y="0.000391006" width="111.8" height="107.8" filterUnits="userSpaceOnUse" color-interpolation-filters="sRGB">
<feFlood flood-opacity="0" result="BackgroundImageFix"/>
<feColorMatrix in="SourceAlpha" type="matrix" values="0 0 0 0 0 0 0 0 0 0 0 0 0 0 0 0 0 0 127 0" result="hardAlpha"/>
<feMorphology radius="4" operator="dilate" in="SourceAlpha" result="effect1_dropShadow_1768_2656"/>
<feOffset dx="4" dy="4"/>
<feGaussianBlur stdDeviation="4.7"/>
<feComposite in2="hardAlpha" operator="out"/>
<feColorMatrix type="matrix" values="0 0 0 0 0.742582 0 0 0 0 0.742582 0 0 0 0 0.742582 0 0 0 0.25 0"/>
<feBlend mode="normal" in2="BackgroundImageFix" result="effect1_dropShadow_1768_2656"/>
<feBlend mode="normal" in="SourceGraphic" in2="effect1_dropShadow_1768_2656" result="shape"/>
</filter>
<linearGradient id="paint0_linear_1768_2656" x1="28.8999" y1="49.9005" x2="74.8993" y2="49.9005" gradientUnits="userSpaceOnUse">
<stop stop-color="#821849"/>
<stop offset="1" stop-color="#D91B5D"/>
</linearGradient>
<linearGradient id="paint1_linear_1768_2656" x1="28.9018" y1="49.9001" x2="74.8996" y2="49.9001" gradientUnits="userSpaceOnUse">
<stop stop-color="#821849"/>
<stop offset="1" stop-color="#D91B5D"/>
</linearGradient>
<linearGradient id="paint2_linear_1768_2656" x1="28.9018" y1="49.8991" x2="74.8996" y2="49.8991" gradientUnits="userSpaceOnUse">
<stop stop-color="#821849"/>
<stop offset="1" stop-color="#D91B5D"/>
</linearGradient>
<linearGradient id="paint3_linear_1768_2656" x1="28.8999" y1="49.9009" x2="74.8999" y2="49.9009" gradientUnits="userSpaceOnUse">
<stop stop-color="#821849"/>
<stop offset="1" stop-color="#D91B5D"/>
</linearGradient>
</defs>
</svg>
