<svg width="112" height="108" viewBox="0 0 112 108" fill="none" xmlns="http://www.w3.org/2000/svg">
<g filter="url(#filter0_d_1574_4828)">
<path d="M9.3999 33.4004C9.3999 20.1456 20.1451 9.40039 33.3999 9.40039H70.3999C83.6547 9.40039 94.3999 20.1456 94.3999 33.4004V66.4004C94.3999 79.6552 83.6547 90.4004 70.3999 90.4004H33.3999C20.1451 90.4004 9.3999 79.6552 9.3999 66.4004V33.4004Z" fill="white" shape-rendering="crispEdges"/>
<path d="M62.0401 42.1236H58.1935C58.1935 37.7662 55.1981 34.2334 51.5017 34.2334C47.8053 34.2334 44.8099 37.7662 44.8099 42.1236H40.9653C40.9653 35.2604 45.6827 29.6973 51.5021 29.6973C57.3215 29.6973 62.0401 35.2604 62.0401 42.1236Z" fill="url(#paint0_linear_1574_4828)"/>
<path d="M51.5024 29.2803C57.6138 29.2803 62.4572 35.0971 62.4572 42.1234V42.5402H57.777V42.1234C57.777 37.9291 54.9064 34.65 51.502 34.65C48.0975 34.65 45.227 37.9291 45.227 42.1234V42.5402H40.5488V42.1234C40.5488 35.0971 45.391 29.2803 51.5024 29.2803ZM51.5024 30.1139C46.0901 30.1139 41.5742 35.2045 41.3884 41.7066H44.4022C44.587 37.3725 47.6368 33.8164 51.502 33.8164C55.3671 33.8164 58.4169 37.3725 58.6017 41.7066H61.6176C61.4317 35.2045 56.9148 30.1139 51.5024 30.1139Z" fill="#FBFBFB"/>
<path d="M69.1746 69.93H34.6138L39.7958 43.2853C39.9278 42.6065 40.2917 41.9949 40.8253 41.5551C41.3589 41.1153 42.0288 40.8749 42.7203 40.875H60.6588C61.3348 40.8751 61.9903 41.1075 62.5155 41.5332C63.0407 41.9589 63.4036 42.5521 63.5436 43.2135L69.1746 69.93Z" fill="url(#paint1_linear_1574_4828)"/>
<path d="M60.6589 40.2871C61.4698 40.2873 62.2561 40.566 62.886 41.0766C63.5061 41.5792 63.9377 42.2766 64.1112 43.0549L64.1193 43.0921L64.1194 43.0926L69.8999 70.5189H33.8999L39.2183 43.1735L39.2259 43.1354C39.3899 42.3378 39.8221 41.6199 40.4511 41.1015C41.09 40.5749 41.8923 40.287 42.7203 40.2871L60.6589 40.2871ZM42.7202 41.4639C42.1653 41.4638 41.6277 41.6567 41.1996 42.0096C40.7714 42.3625 40.4793 42.8534 40.3734 43.398L40.3734 43.3981L35.3276 69.3421H68.4492L62.9679 43.3353C62.8557 42.8061 62.5652 42.3314 62.145 41.9907C61.7377 41.6606 61.2326 41.4758 60.7094 41.4644L60.6587 41.4639H42.7202Z" fill="#FBFBFB"/>
<path d="M58.4432 54.7414L60.6732 54.0984C60.283 52.1931 59.2472 50.4809 57.7406 49.2511C56.234 48.0213 54.3491 47.3493 52.4043 47.3486C47.7449 47.3486 43.9673 51.1262 43.9673 55.7856C43.9673 55.9431 43.971 56.0994 43.9808 56.254C44.026 57.1115 44.2033 57.9568 44.5063 58.7602C44.9069 59.821 45.517 60.7903 46.3003 61.6102C47.0836 62.4301 48.024 63.0839 49.0654 63.5324C50.1068 63.981 51.2279 64.2153 52.3619 64.2212C53.4958 64.2271 54.6193 64.0045 55.6653 63.5668L54.8252 61.4136C54.0783 61.7346 53.2751 61.9038 52.4622 61.9115C51.6493 61.9192 50.843 61.7652 50.0902 61.4585C49.3374 61.1517 48.653 60.6984 48.077 60.1247C47.501 59.5511 47.0449 58.8687 46.735 58.1171L52.8503 56.3528L58.4432 54.7414ZM46.2792 55.5914C46.3204 54.2964 46.771 53.0477 47.5663 52.0249C48.3615 51.002 49.4606 50.2575 50.7055 49.8984C51.9504 49.5392 53.277 49.5839 54.495 50.026C55.7129 50.4681 56.7593 51.2848 57.4839 52.3589L51.9175 53.9645L46.2792 55.5914Z" fill="white"/>
</g>
<defs>
<filter id="filter0_d_1574_4828" x="-9.72748e-05" y="0.000391006" width="111.8" height="107.8" filterUnits="userSpaceOnUse" color-interpolation-filters="sRGB">
<feFlood flood-opacity="0" result="BackgroundImageFix"/>
<feColorMatrix in="SourceAlpha" type="matrix" values="0 0 0 0 0 0 0 0 0 0 0 0 0 0 0 0 0 0 127 0" result="hardAlpha"/>
<feMorphology radius="4" operator="dilate" in="SourceAlpha" result="effect1_dropShadow_1574_4828"/>
<feOffset dx="4" dy="4"/>
<feGaussianBlur stdDeviation="4.7"/>
<feComposite in2="hardAlpha" operator="out"/>
<feColorMatrix type="matrix" values="0 0 0 0 0.742582 0 0 0 0 0.742582 0 0 0 0 0.742582 0 0 0 0.25 0"/>
<feBlend mode="normal" in2="BackgroundImageFix" result="effect1_dropShadow_1574_4828"/>
<feBlend mode="normal" in="SourceGraphic" in2="effect1_dropShadow_1574_4828" result="shape"/>
</filter>
<linearGradient id="paint0_linear_1574_4828" x1="40.9653" y1="35.9104" x2="62.0401" y2="35.9104" gradientUnits="userSpaceOnUse">
<stop stop-color="#811849"/>
<stop offset="1" stop-color="#D81C5C"/>
</linearGradient>
<linearGradient id="paint1_linear_1574_4828" x1="34.6109" y1="55.4015" x2="69.1729" y2="55.4015" gradientUnits="userSpaceOnUse">
<stop stop-color="#811849"/>
<stop offset="1" stop-color="#D81C5C"/>
</linearGradient>
</defs>
</svg>
