<svg width="112" height="108" viewBox="0 0 112 108" fill="none" xmlns="http://www.w3.org/2000/svg">
<g filter="url(#filter0_d_1574_4840)">
<path d="M9.3999 33.4004C9.3999 20.1456 20.1451 9.40039 33.3999 9.40039H70.3999C83.6547 9.40039 94.3999 20.1456 94.3999 33.4004V66.4004C94.3999 79.6552 83.6547 90.4004 70.3999 90.4004H33.3999C20.1451 90.4004 9.3999 79.6552 9.3999 66.4004V33.4004Z" fill="white" shape-rendering="crispEdges"/>
<path d="M68.55 39.4395H32.6128C30.2146 39.4395 28.2705 41.3835 28.2705 43.7816V61.0765C28.2705 63.4747 30.2146 65.4187 32.6128 65.4187H68.55C70.9481 65.4187 72.8923 63.4747 72.8923 61.0765V43.7816C72.8923 41.3835 70.9481 39.4395 68.55 39.4395Z" fill="url(#paint0_linear_1574_4840)"/>
<path d="M72.5217 43.7835C72.5217 41.5902 70.7437 39.8123 68.5504 39.8122H32.6132C30.4199 39.8122 28.6419 41.5902 28.6419 43.7835V61.0784C28.6419 63.2716 30.4199 65.0496 32.6132 65.0496H68.5504C70.7436 65.0496 72.5217 63.2716 72.5217 61.0784V43.7835ZM73.2636 61.0784C73.2636 63.6814 71.1534 65.7915 68.5504 65.7915H32.6132C30.0101 65.7915 27.8999 63.6814 27.8999 61.0784V43.7835C27.8999 41.1805 30.0101 39.0703 32.6132 39.0703H68.5504C71.1534 39.0703 73.2636 41.1805 73.2636 43.7835V61.0784Z" fill="white"/>
<path d="M72.8927 43.0039H28.3403V45.8505H72.8927V43.0039Z" fill="url(#paint1_linear_1574_4840)"/>
<path d="M73.2636 42.6357V46.2242H27.9692V42.6357H73.2636ZM28.7112 45.4823H72.5216V43.3777H28.7112V45.4823Z" fill="white"/>
<path d="M51.069 59.7764V60.5183H31.6006V59.7764H51.069Z" fill="white"/>
<path d="M34.6095 51.6875V53.1713H33.0889V51.6875H34.6095Z" fill="white"/>
<path d="M41.3155 51.6875V53.1713H39.7949V51.6875H41.3155Z" fill="white"/>
<path d="M48.0216 51.6875V53.1713H46.501V51.6875H48.0216Z" fill="white"/>
<path d="M54.7281 51.6875V53.1713H53.2075V51.6875H54.7281Z" fill="white"/>
<path d="M61.4352 51.6875V53.1713H59.9146V51.6875H61.4352Z" fill="white"/>
<path d="M68.1417 51.6875V53.1713H66.6211V51.6875H68.1417Z" fill="white"/>
<path d="M68.1838 59.2423C68.1838 58.9336 67.9335 58.6833 67.6248 58.6833H57.3873C57.0786 58.6833 56.8284 58.9336 56.8284 59.2423V60.4896C56.8284 60.7982 57.0786 61.0485 57.3873 61.0485H67.6248C67.9335 61.0485 68.1838 60.7982 68.1838 60.4896V59.2423ZM68.9257 60.4896C68.9257 61.208 68.3433 61.7904 67.6248 61.7904H57.3873C56.6689 61.7904 56.0864 61.208 56.0864 60.4896V59.2423C56.0864 58.5238 56.6689 57.9414 57.3873 57.9414H67.6248C68.3433 57.9414 68.9257 58.5238 68.9257 59.2423V60.4896Z" fill="white"/>
<path d="M65.9923 53.4549C71.2588 53.4549 75.5281 49.1857 75.5281 43.9193C75.5281 38.653 71.2588 34.3838 65.9923 34.3838C60.7259 34.3838 56.4565 38.653 56.4565 43.9193C56.4565 49.1857 60.7259 53.4549 65.9923 53.4549Z" fill="url(#paint2_linear_1574_4840)"/>
<path d="M75.158 43.9173C75.158 38.8558 71.0548 34.7527 65.9932 34.7527C60.9316 34.7527 56.8284 38.8558 56.8284 43.9173C56.8284 48.9787 60.9316 53.0818 65.9932 53.0818C71.0548 53.0818 75.158 48.9787 75.158 43.9173ZM75.9 43.9173C75.9 49.3885 71.4645 53.8238 65.9932 53.8238C60.5218 53.8238 56.0864 49.3885 56.0864 43.9173C56.0864 38.446 60.5218 34.0107 65.9932 34.0107C71.4645 34.0107 75.9 38.446 75.9 43.9173Z" fill="white"/>
<path d="M65.9925 37.2236L60.4865 39.8753L59.1265 45.8331L62.9367 50.6109H69.048L72.8582 45.8331L71.4985 39.8753L65.9925 37.2236Z" fill="url(#paint3_linear_1574_4840)"/>
<path d="M71.8214 39.6192L73.2606 45.9253L69.2276 50.9825H62.7591L58.7261 45.9253L60.1656 39.6192L65.9935 36.8125L71.8214 39.6192ZM60.8094 40.1326L59.5289 45.7421L63.1164 50.2406H68.8704L72.4578 45.7421L71.1776 40.1326L65.9935 37.636L60.8094 40.1326Z" fill="white"/>
<path d="M62.7881 41.091V40.1768H69.1711V41.091H66.4949V48.6873H65.4643V41.091H62.7881Z" fill="white"/>
</g>
<defs>
<filter id="filter0_d_1574_4840" x="-9.72748e-05" y="0.000391006" width="111.8" height="107.8" filterUnits="userSpaceOnUse" color-interpolation-filters="sRGB">
<feFlood flood-opacity="0" result="BackgroundImageFix"/>
<feColorMatrix in="SourceAlpha" type="matrix" values="0 0 0 0 0 0 0 0 0 0 0 0 0 0 0 0 0 0 127 0" result="hardAlpha"/>
<feMorphology radius="4" operator="dilate" in="SourceAlpha" result="effect1_dropShadow_1574_4840"/>
<feOffset dx="4" dy="4"/>
<feGaussianBlur stdDeviation="4.7"/>
<feComposite in2="hardAlpha" operator="out"/>
<feColorMatrix type="matrix" values="0 0 0 0 0.742582 0 0 0 0 0.742582 0 0 0 0 0.742582 0 0 0 0.25 0"/>
<feBlend mode="normal" in2="BackgroundImageFix" result="effect1_dropShadow_1574_4840"/>
<feBlend mode="normal" in="SourceGraphic" in2="effect1_dropShadow_1574_4840" result="shape"/>
</filter>
<linearGradient id="paint0_linear_1574_4840" x1="28.2705" y1="52.4289" x2="72.8923" y2="52.4289" gradientUnits="userSpaceOnUse">
<stop stop-color="#811849"/>
<stop offset="1" stop-color="#D81C5C"/>
</linearGradient>
<linearGradient id="paint1_linear_1574_4840" x1="28.3403" y1="44.4274" x2="72.8927" y2="44.4274" gradientUnits="userSpaceOnUse">
<stop stop-color="#65083A"/>
<stop offset="1"/>
</linearGradient>
<linearGradient id="paint2_linear_1574_4840" x1="56.4565" y1="43.9193" x2="75.5281" y2="43.9193" gradientUnits="userSpaceOnUse">
<stop stop-color="#65083A"/>
<stop offset="1"/>
</linearGradient>
<linearGradient id="paint3_linear_1574_4840" x1="59.1265" y1="43.9171" x2="72.8582" y2="43.9171" gradientUnits="userSpaceOnUse">
<stop stop-color="#811849"/>
<stop offset="1" stop-color="#D81C5C"/>
</linearGradient>
</defs>
</svg>
