<svg width="112" height="108" viewBox="0 0 112 108" fill="none" xmlns="http://www.w3.org/2000/svg">
<g filter="url(#filter0_d_1574_4940)">
<path d="M9.3999 33.4004C9.3999 20.1456 20.1451 9.40039 33.3999 9.40039H70.3999C83.6547 9.40039 94.3999 20.1456 94.3999 33.4004V66.4004C94.3999 79.6552 83.6547 90.4004 70.3999 90.4004H33.3999C20.1451 90.4004 9.3999 79.6552 9.3999 66.4004V33.4004Z" fill="white" shape-rendering="crispEdges"/>
<path d="M40.0278 58.3778V56.8457" stroke="#F8F8F8" stroke-width="8.51" stroke-miterlimit="10"/>
<path d="M28.2837 52.7104L28.1562 52.6484" stroke="#F8F8F8" stroke-width="8.51" stroke-miterlimit="10"/>
<path d="M51.8998 52.6484L51.772 52.7104" stroke="#F8F8F8" stroke-width="8.51" stroke-miterlimit="10"/>
<path d="M51.7719 52.7092L40.0277 58.3784L34.0918 55.5126L45.3839 49.625L51.7719 52.7092Z" fill="url(#paint0_linear_1574_4940)"/>
<path d="M52.1556 52.7104L40.0275 58.5649L33.7197 55.5195L45.3809 49.4395L52.1556 52.7104ZM34.4635 55.508L40.0275 58.1943L51.388 52.7103L45.3867 49.8128L34.4635 55.508Z" fill="#F8F8F8"/>
<path d="M45.3839 49.6264L34.0917 55.514L28.2837 52.7106L40.0276 47.041L45.3839 49.6264Z" fill="url(#paint1_linear_1574_4940)"/>
<path d="M45.7558 49.6204L34.0946 55.7004L27.8999 52.7103L40.0276 46.8555L45.7558 49.6204ZM28.6675 52.7103L34.0888 55.3271L45.012 49.6319L40.0276 47.226L28.6675 52.7103Z" fill="#F8F8F8"/>
<path d="M51.9 52.7702V67.0445L40.0278 72.7749V58.3782L51.7721 52.709L51.9 52.7702Z" fill="url(#paint2_linear_1574_4940)"/>
<path d="M52.0667 52.6646V67.1489L39.8608 73.0403V58.273L51.7717 52.5234L52.0667 52.6646ZM40.1945 58.4825V72.5087L51.733 66.9394V52.9127L40.1945 58.4825Z" fill="#F8F8F8"/>
<path d="M51.8999 52.7716V52.6484" stroke="#F8F8F8" stroke-width="8.51" stroke-miterlimit="10"/>
<path d="M40.028 58.3782V72.7749L28.1562 67.0445V52.7702L28.2837 52.709H28.2841L34.0921 55.5124L40.028 58.3782Z" fill="url(#paint3_linear_1574_4940)"/>
<path d="M28.3221 52.543L40.1947 58.2743V73.0416L27.9893 67.1501V52.666L28.2456 52.543H28.3221ZM28.323 66.9406L39.861 72.5099V58.4837L28.323 52.9139V66.9406Z" fill="#F8F8F8"/>
<path d="M28.1562 52.7716V52.6484" stroke="#F8F8F8" stroke-width="8.51" stroke-miterlimit="10"/>
<path d="M63.7715 58.3778V56.8457" stroke="#F8F8F8" stroke-width="8.51" stroke-miterlimit="10"/>
<path d="M52.0273 52.7104L51.8999 52.6484" stroke="#F8F8F8" stroke-width="8.51" stroke-miterlimit="10"/>
<path d="M75.6435 52.6484L75.5156 52.7104" stroke="#F8F8F8" stroke-width="8.51" stroke-miterlimit="10"/>
<path d="M75.516 52.7092L63.7717 58.3784L57.8354 55.5126L69.128 49.625L75.516 52.7092Z" fill="url(#paint4_linear_1574_4940)"/>
<path d="M75.9001 52.7104L63.772 58.5649L57.4639 55.5195L69.1254 49.4395L75.9001 52.7104ZM58.2077 55.508L63.772 58.1943L75.1325 52.7103L69.1312 49.8128L58.2077 55.508Z" fill="#F8F8F8"/>
<path d="M69.1275 49.6264L57.835 55.514L52.0273 52.7106L63.7712 47.041L69.1275 49.6264Z" fill="url(#paint5_linear_1574_4940)"/>
<path d="M69.4999 49.6204L57.8384 55.7004L51.644 52.7103L63.7717 46.8555L69.4999 49.6204ZM52.4116 52.7103L57.8326 55.3271L68.7561 49.6319L63.7717 47.226L52.4116 52.7103Z" fill="#F8F8F8"/>
<path d="M75.6436 52.7702V67.0445L63.7715 72.7749V58.3782L75.5158 52.709L75.6436 52.7702Z" fill="url(#paint6_linear_1574_4940)"/>
<path d="M75.8108 52.6646V67.1489L63.605 73.0403V58.273L75.5158 52.5234L75.8108 52.6646ZM63.9387 58.4825V72.5087L75.4771 66.9394V52.9127L63.9387 58.4825Z" fill="#F8F8F8"/>
<path d="M75.6436 52.7716V52.6484" stroke="#F8F8F8" stroke-width="8.51" stroke-miterlimit="10"/>
<path d="M63.7716 58.3782V72.7749L51.8999 67.0445V52.7702L52.0273 52.709H52.0277L57.8354 55.5124L63.7716 58.3782Z" fill="url(#paint7_linear_1574_4940)"/>
<path d="M52.0663 52.543L63.9388 58.2743V73.0416L51.7334 67.1501V52.666L51.9897 52.543H52.0663ZM52.0671 66.9406L63.6051 72.5099V58.4837L52.0671 52.9139V66.9406Z" fill="#F8F8F8"/>
<path d="M51.8999 52.7716V52.6484" stroke="#F8F8F8" stroke-width="8.51" stroke-miterlimit="10"/>
<path d="M51.8359 38.2841V36.752" stroke="#F8F8F8" stroke-width="8.51" stroke-miterlimit="10"/>
<path d="M40.0918 32.6143L39.9644 32.5527" stroke="#F8F8F8" stroke-width="8.51" stroke-miterlimit="10"/>
<path d="M63.7075 32.5527L63.5801 32.6143" stroke="#F8F8F8" stroke-width="8.51" stroke-miterlimit="10"/>
<path d="M63.58 32.6151L51.8357 38.2847L45.8994 35.4185L57.1919 29.5312L63.58 32.6151Z" fill="url(#paint8_linear_1574_4940)"/>
<path d="M63.9641 32.6142L51.836 38.4691L45.5278 35.4234L57.1894 29.3438L63.9641 32.6142ZM46.2716 35.4119L51.836 38.0985L63.1965 32.6142L57.1952 29.7171L46.2716 35.4119Z" fill="#F8F8F8"/>
<path d="M57.192 29.5311L45.8994 35.4183L40.0918 32.6149L51.8357 26.9453L57.192 29.5311Z" fill="url(#paint9_linear_1574_4940)"/>
<path d="M57.5639 29.5251L45.9023 35.6047L39.708 32.6146L51.8357 26.7598L57.5639 29.5251ZM40.4756 32.6146L45.8965 35.2314L56.82 29.5365L51.8357 27.1303L40.4756 32.6146Z" fill="#F8F8F8"/>
<path d="M63.7077 32.6748V46.9488L51.8359 52.6796V38.2829L63.5802 32.6133L63.7077 32.6748Z" fill="url(#paint10_linear_1574_4940)"/>
<path d="M63.8749 32.5719V47.0553L51.6694 52.9472V38.1799L63.5806 32.4297L63.8749 32.5719ZM52.0031 38.3893V52.4155L63.5412 46.8458V32.8193L52.0031 38.3893Z" fill="#F8F8F8"/>
<path d="M63.7075 32.6759V32.5527" stroke="#F8F8F8" stroke-width="8.51" stroke-miterlimit="10"/>
<path d="M51.8361 38.2829V52.6796L39.9644 46.9488V32.6748L40.0914 32.6133H40.0922L45.8998 35.4167L51.8361 38.2829Z" fill="url(#paint11_linear_1574_4940)"/>
<path d="M40.1302 32.4492L52.0028 38.1809V52.9482L39.7974 47.0564V32.5731L40.053 32.4492H40.1302ZM40.1311 46.8469L51.6691 52.4166V38.3904L45.8272 35.5697L40.1311 32.8202V46.8469Z" fill="#F8F8F8"/>
<path d="M39.9644 32.6759V32.5527" stroke="#F8F8F8" stroke-width="8.51" stroke-miterlimit="10"/>
<path d="M63.9034 57.3464V52.007H61.9627C61.7296 51.0488 61.3612 50.1287 60.8686 49.2745L62.5007 47.6428L58.7247 43.8672L57.1071 45.4848C56.2936 45.0062 55.4183 44.6412 54.5057 44.4002V42.1367H49.1666V44.4002C48.1973 44.657 47.2704 45.0533 46.415 45.5766L44.7068 43.8672L40.932 47.6428L42.7175 49.4278C42.3023 50.1748 41.9818 50.9706 41.7634 51.7968H39.7686V57.137H41.7587C41.9563 57.8879 42.2382 58.614 42.599 59.3016L40.932 60.9686L44.7068 64.7441L46.2056 63.245C47.1176 63.8324 48.1163 64.2729 49.1651 64.5504V66.2966H54.5057V64.5504C55.488 64.291 56.4268 63.8882 57.2918 63.3552L58.7247 64.7877L62.5007 61.0117L60.9745 59.4863C61.347 58.808 61.6425 58.0903 61.8556 57.3464H63.9034ZM51.8364 59.0353C50.9344 59.0354 50.0527 58.768 49.3028 58.267C48.5528 57.766 47.9682 57.0538 47.623 56.2206C47.2778 55.3873 47.1874 54.4704 47.3633 53.5858C47.5392 52.7012 47.9734 51.8886 48.6111 51.2508C49.2488 50.613 50.0613 50.1786 50.9459 50.0026C51.8305 49.8265 52.7474 49.9168 53.5807 50.2618C54.414 50.6069 55.1263 51.1914 55.6274 51.9412C56.1286 52.6911 56.3961 53.5728 56.3962 54.4747C56.3962 55.0736 56.2783 55.6666 56.0492 56.2199C55.8201 56.7732 55.4842 57.2759 55.0608 57.6994C54.6374 58.1229 54.1347 58.4588 53.5814 58.688C53.0282 58.9173 52.4352 59.0353 51.8364 59.0353Z" fill="white"/>
<path d="M54.7282 41.9141V44.2301C55.5455 44.4602 56.332 44.7881 57.0707 45.2066L58.7249 43.5525L62.8153 47.6425L61.1455 49.3119C61.5783 50.0911 61.9111 50.9218 62.136 51.7843H64.1259V57.5684H62.0219C61.8249 58.2175 61.566 58.8461 61.2488 59.4457L62.8153 61.0114L58.7249 65.1018L57.258 63.6352C56.4656 64.1054 55.6151 64.4701 54.7282 64.7198V66.5187H48.9429V64.7197C47.9897 64.4509 47.0789 64.0496 46.2373 63.5275L44.707 65.0583L40.6178 60.9683L42.3273 59.2588C42.0203 58.6509 41.773 58.0147 41.589 57.359H39.5464V51.5741H41.5938C41.7999 50.8432 42.0845 50.1367 42.4428 49.4671L40.6178 47.6425L44.707 43.5524L46.4497 45.2963C47.2321 44.8353 48.0706 44.477 48.9445 44.2302V41.9141H54.7282ZM49.3892 44.5709L49.2238 44.6148C48.2752 44.8661 47.3682 45.2539 46.5312 45.7659L46.3817 45.8574L44.7069 44.1814L41.2467 47.6424L42.9935 49.3889L42.912 49.5355C42.5058 50.2664 42.1922 51.0449 41.9785 51.8533L41.9347 52.0188H39.9911V56.9143H41.9303L41.9739 57.0801C42.1672 57.8148 42.4431 58.5252 42.7961 59.1979L42.8721 59.3428L41.2467 60.9683L44.7069 64.4293L46.1753 62.9606L46.3262 63.0577C47.2186 63.6325 48.1959 64.0636 49.2221 64.3352L49.3876 64.3789V66.074H54.2835V64.3789L54.4491 64.3351C55.4103 64.0812 56.329 63.6871 57.1754 63.1656L57.325 63.0734L58.7248 64.4729L62.1863 61.0115L60.6994 59.5253L60.7798 59.3789C61.1443 58.7152 61.4335 58.0128 61.642 57.2848L61.6882 57.1237H63.6812V52.229H61.7881L61.7468 52.0592C61.5187 51.1216 61.1582 50.2212 60.6761 49.3853L60.5909 49.2375L62.1863 47.6425L58.7249 44.1814L57.1429 45.7634L56.9946 45.6761C56.1985 45.2078 55.3421 44.8507 54.4491 44.6148L54.2835 44.5711V42.3587H49.3892V44.5709ZM50.9027 49.7842C51.8304 49.5996 52.792 49.6942 53.666 50.0561C54.5399 50.418 55.2869 51.031 55.8125 51.8174C56.338 52.6038 56.6186 53.5285 56.6187 54.4744C56.6188 55.1024 56.4951 55.7244 56.2548 56.3046C56.0145 56.8849 55.6623 57.4121 55.2182 57.8563C54.7742 58.3004 54.247 58.6528 53.6667 58.8932C53.0865 59.1336 52.4646 59.2573 51.8365 59.2573C50.8906 59.2574 49.966 58.977 49.1794 58.4516C48.3929 57.9261 47.7798 57.1792 47.4178 56.3054C47.0557 55.4315 46.9609 54.4699 47.1454 53.5422C47.3298 52.6144 47.7852 51.7622 48.454 51.0933C49.1228 50.4244 49.975 49.9688 50.9027 49.7842ZM53.4958 50.4669C52.7032 50.1387 51.8309 50.0529 50.9895 50.2203C50.148 50.3878 49.3751 50.801 48.7685 51.4077C48.1619 52.0144 47.7488 52.7874 47.5815 53.6289C47.4142 54.4703 47.5002 55.3426 47.8286 56.1352C48.157 56.9278 48.713 57.6052 49.4264 58.0818C50.1398 58.5584 50.9786 58.8127 51.8365 58.8127C52.4062 58.8126 52.9702 58.7004 53.4965 58.4823C54.0228 58.2643 54.501 57.9447 54.9038 57.5419C55.3065 57.139 55.626 56.6608 55.844 56.1345C56.0619 55.6082 56.1741 55.0441 56.174 54.4744C56.1739 53.6165 55.9195 52.7778 55.4428 52.0645C54.966 51.3512 54.2885 50.7952 53.4958 50.4669Z" fill="url(#paint12_linear_1574_4940)"/>
<path d="M51.8367 59.0337C54.355 59.0337 56.3965 56.9922 56.3965 54.4739C56.3965 51.9556 54.355 49.9141 51.8367 49.9141C49.3184 49.9141 47.2769 51.9556 47.2769 54.4739C47.2769 56.9922 49.3184 59.0337 51.8367 59.0337Z" fill="url(#paint13_linear_1574_4940)"/>
<path d="M56.1739 54.4736C56.1739 52.0781 54.2319 50.1361 51.8364 50.1361C49.4409 50.1361 47.4989 52.0781 47.4989 54.4736C47.4989 56.8691 49.4409 58.8111 51.8364 58.8111C54.2319 58.8111 56.1738 56.8691 56.1739 54.4736ZM56.6186 54.4736C56.6186 57.1147 54.4775 59.2558 51.8364 59.2558C49.1953 59.2558 47.0542 57.1147 47.0542 54.4736C47.0542 51.8325 49.1953 49.6914 51.8364 49.6914C54.4775 49.6914 56.6186 51.8325 56.6186 54.4736Z" fill="url(#paint14_linear_1574_4940)"/>
</g>
<defs>
<filter id="filter0_d_1574_4940" x="-9.72748e-05" y="0.000391006" width="111.8" height="107.8" filterUnits="userSpaceOnUse" color-interpolation-filters="sRGB">
<feFlood flood-opacity="0" result="BackgroundImageFix"/>
<feColorMatrix in="SourceAlpha" type="matrix" values="0 0 0 0 0 0 0 0 0 0 0 0 0 0 0 0 0 0 127 0" result="hardAlpha"/>
<feMorphology radius="4" operator="dilate" in="SourceAlpha" result="effect1_dropShadow_1574_4940"/>
<feOffset dx="4" dy="4"/>
<feGaussianBlur stdDeviation="4.7"/>
<feComposite in2="hardAlpha" operator="out"/>
<feColorMatrix type="matrix" values="0 0 0 0 0.742582 0 0 0 0 0.742582 0 0 0 0 0.742582 0 0 0 0.25 0"/>
<feBlend mode="normal" in2="BackgroundImageFix" result="effect1_dropShadow_1574_4940"/>
<feBlend mode="normal" in="SourceGraphic" in2="effect1_dropShadow_1574_4940" result="shape"/>
</filter>
<linearGradient id="paint0_linear_1574_4940" x1="34.0918" y1="54.0017" x2="51.7719" y2="54.0017" gradientUnits="userSpaceOnUse">
<stop stop-color="#811849"/>
<stop offset="1" stop-color="#D81C5C"/>
</linearGradient>
<linearGradient id="paint1_linear_1574_4940" x1="28.2837" y1="51.2773" x2="45.3839" y2="51.2773" gradientUnits="userSpaceOnUse">
<stop stop-color="#811849"/>
<stop offset="1" stop-color="#D81C5C"/>
</linearGradient>
<linearGradient id="paint2_linear_1574_4940" x1="40.0278" y1="62.742" x2="51.9" y2="62.742" gradientUnits="userSpaceOnUse">
<stop stop-color="#811849"/>
<stop offset="1" stop-color="#D81C5C"/>
</linearGradient>
<linearGradient id="paint3_linear_1574_4940" x1="28.1562" y1="62.742" x2="40.028" y2="62.742" gradientUnits="userSpaceOnUse">
<stop stop-color="#811849"/>
<stop offset="1" stop-color="#D81C5C"/>
</linearGradient>
<linearGradient id="paint4_linear_1574_4940" x1="57.8354" y1="54.0017" x2="75.516" y2="54.0017" gradientUnits="userSpaceOnUse">
<stop stop-color="#811849"/>
<stop offset="1" stop-color="#D81C5C"/>
</linearGradient>
<linearGradient id="paint5_linear_1574_4940" x1="52.0273" y1="51.2773" x2="69.1275" y2="51.2773" gradientUnits="userSpaceOnUse">
<stop stop-color="#811849"/>
<stop offset="1" stop-color="#D81C5C"/>
</linearGradient>
<linearGradient id="paint6_linear_1574_4940" x1="63.7715" y1="62.742" x2="75.6436" y2="62.742" gradientUnits="userSpaceOnUse">
<stop stop-color="#811849"/>
<stop offset="1" stop-color="#D81C5C"/>
</linearGradient>
<linearGradient id="paint7_linear_1574_4940" x1="51.8999" y1="62.742" x2="63.7716" y2="62.742" gradientUnits="userSpaceOnUse">
<stop stop-color="#811849"/>
<stop offset="1" stop-color="#D81C5C"/>
</linearGradient>
<linearGradient id="paint8_linear_1574_4940" x1="45.8994" y1="33.908" x2="63.58" y2="33.908" gradientUnits="userSpaceOnUse">
<stop stop-color="#811849"/>
<stop offset="1" stop-color="#D81C5C"/>
</linearGradient>
<linearGradient id="paint9_linear_1574_4940" x1="40.0918" y1="31.182" x2="57.192" y2="31.182" gradientUnits="userSpaceOnUse">
<stop stop-color="#811849"/>
<stop offset="1" stop-color="#D81C5C"/>
</linearGradient>
<linearGradient id="paint10_linear_1574_4940" x1="51.8359" y1="42.6463" x2="63.7077" y2="42.6463" gradientUnits="userSpaceOnUse">
<stop stop-color="#811849"/>
<stop offset="1" stop-color="#D81C5C"/>
</linearGradient>
<linearGradient id="paint11_linear_1574_4940" x1="39.9644" y1="42.6463" x2="51.8361" y2="42.6463" gradientUnits="userSpaceOnUse">
<stop stop-color="#811849"/>
<stop offset="1" stop-color="#D81C5C"/>
</linearGradient>
<linearGradient id="paint12_linear_1574_4940" x1="39.5464" y1="54.2164" x2="64.1259" y2="54.2164" gradientUnits="userSpaceOnUse">
<stop stop-color="#404041"/>
<stop offset="1" stop-color="#6E6E70"/>
</linearGradient>
<linearGradient id="paint13_linear_1574_4940" x1="47.2769" y1="54.4739" x2="56.3965" y2="54.4739" gradientUnits="userSpaceOnUse">
<stop stop-color="#811849"/>
<stop offset="1" stop-color="#D81C5C"/>
</linearGradient>
<linearGradient id="paint14_linear_1574_4940" x1="47.0542" y1="54.4736" x2="56.6186" y2="54.4736" gradientUnits="userSpaceOnUse">
<stop stop-color="#404041"/>
<stop offset="1" stop-color="#6E6E70"/>
</linearGradient>
</defs>
</svg>
