<svg width="112" height="108" viewBox="0 0 112 108" fill="none" xmlns="http://www.w3.org/2000/svg">
<g filter="url(#filter0_d_1709_1269)">
<path d="M9.40039 33.4004C9.40039 20.1456 20.1456 9.40039 33.4004 9.40039H70.4004C83.6552 9.40039 94.4004 20.1456 94.4004 33.4004V66.4004C94.4004 79.6552 83.6552 90.4004 70.4004 90.4004H33.4004C20.1456 90.4004 9.40039 79.6552 9.40039 66.4004V33.4004Z" fill="white" shape-rendering="crispEdges"/>
<path d="M52.469 68.8594C63.7796 68.8594 72.9487 59.6905 72.9487 48.38C72.9487 37.0694 63.7796 27.9004 52.469 27.9004C41.1583 27.9004 31.9893 37.0694 31.9893 48.38C31.9893 59.6905 41.1583 68.8594 52.469 68.8594Z" fill="#942C56"/>
<path d="M43.5965 58.0892L30.8516 71.9001L51.0364 64.0615L45.348 56.2236L43.5965 58.0892Z" fill="#942C56"/>
<path d="M49.5902 51.7498C49.8457 50.8824 50.2152 50.0529 50.6891 49.2828C51.1195 48.6078 51.6817 47.8271 52.3757 46.9407C52.9154 46.2594 53.3363 45.6939 53.6386 45.2442C53.9484 44.7783 54.2007 44.2767 54.3901 43.7502C54.5927 43.1845 54.6939 42.5875 54.6891 41.9866V41.9675C54.7432 41.1257 54.4743 40.295 53.9372 39.6446C53.6664 39.3653 53.3385 39.1476 52.976 39.0063C52.6135 38.865 52.2248 38.8035 51.8363 38.826C51.4306 38.8056 51.026 38.8834 50.6568 39.0529C50.2876 39.2223 49.9648 39.4785 49.7159 39.7994C49.1671 40.6069 48.8964 41.5712 48.9448 42.5463V42.5654H44.2217V42.5463C44.228 41.0408 44.5705 39.5558 45.2241 38.1995C45.7972 37.0442 46.7037 36.0874 47.8264 35.4527C49.0454 34.7983 50.414 34.4727 51.7971 34.5081C53.2128 34.4704 54.618 34.7608 55.9028 35.3566C57.0072 35.8851 57.92 36.7438 58.5149 37.8138C59.1418 39.0102 59.4504 40.3477 59.4109 41.6979V41.7173C59.4229 42.5902 59.2928 43.4592 59.0257 44.2902C58.7979 44.9932 58.4804 45.6639 58.0811 46.2857C57.7082 46.8513 57.207 47.526 56.5777 48.3096C55.9484 49.0933 55.444 49.7743 55.0646 50.3526C54.165 51.7544 53.6988 53.3905 53.7245 55.0559H49.137C49.1208 53.9373 49.2736 52.8227 49.5902 51.7498ZM49.0989 58.1203H53.7825V62.8235H49.0991L49.0989 58.1203Z" fill="#F8F6F8"/>
</g>
<defs>
<filter id="filter0_d_1709_1269" x="0.000391006" y="0.000391006" width="111.8" height="107.8" filterUnits="userSpaceOnUse" color-interpolation-filters="sRGB">
<feFlood flood-opacity="0" result="BackgroundImageFix"/>
<feColorMatrix in="SourceAlpha" type="matrix" values="0 0 0 0 0 0 0 0 0 0 0 0 0 0 0 0 0 0 127 0" result="hardAlpha"/>
<feMorphology radius="4" operator="dilate" in="SourceAlpha" result="effect1_dropShadow_1709_1269"/>
<feOffset dx="4" dy="4"/>
<feGaussianBlur stdDeviation="4.7"/>
<feComposite in2="hardAlpha" operator="out"/>
<feColorMatrix type="matrix" values="0 0 0 0 0.742582 0 0 0 0 0.742582 0 0 0 0 0.742582 0 0 0 0.25 0"/>
<feBlend mode="normal" in2="BackgroundImageFix" result="effect1_dropShadow_1709_1269"/>
<feBlend mode="normal" in="SourceGraphic" in2="effect1_dropShadow_1709_1269" result="shape"/>
</filter>
</defs>
</svg>
