<svg width="112" height="108" viewBox="0 0 112 108" fill="none" xmlns="http://www.w3.org/2000/svg">
<g filter="url(#filter0_d_2007_2139)">
<path d="M9.40039 33.4004C9.40039 20.1456 20.1456 9.40039 33.4004 9.40039H70.4004C83.6552 9.40039 94.4004 20.1456 94.4004 33.4004V66.4004C94.4004 79.6552 83.6552 90.4004 70.4004 90.4004H33.4004C20.1456 90.4004 9.40039 79.6552 9.40039 66.4004V33.4004Z" fill="white" shape-rendering="crispEdges"/>
<path d="M34.1006 56.9374H49.9026V34.1255C49.9026 34.1255 49.4273 30.7988 45.2689 30.7988H34.1006V56.9374Z" fill="#942C56"/>
<path d="M69.5659 56.9374H53.7637V34.1255C53.7637 34.1255 54.2389 30.7988 58.3973 30.7988H69.5657L69.5659 56.9374Z" fill="#942C56"/>
<path d="M29.2699 32.1885C29.2699 32.1885 25.1299 32.7294 25.1299 34.6898V63.2938C25.1424 63.6386 25.2732 63.9686 25.5004 64.2283C25.7276 64.4879 26.0373 64.6614 26.3774 64.7196H46.1596C46.3577 65.9538 47.003 67.0719 47.9727 67.8607C48.9423 68.6496 50.1683 69.054 51.417 68.9968V63.2938C51.417 63.2938 47.7041 63.5314 47.7041 61.8087H30.5659C30.5659 61.8087 29.0808 62.0759 29.0808 60.3531L29.2699 32.1885Z" fill="#942C56" stroke="#5D285E" stroke-miterlimit="10"/>
<path d="M74.5303 32.1885C74.5303 32.1885 78.6703 32.7294 78.6703 34.6898V63.2938C78.6578 63.6386 78.5269 63.9685 78.2997 64.2281C78.0726 64.4878 77.7629 64.6614 77.4229 64.7196H57.6403C57.4422 65.9538 56.7968 67.0719 55.8272 67.8607C54.8576 68.6496 53.6315 69.054 52.3828 68.9968V63.2938C52.3828 63.2938 56.0956 63.5314 56.0956 61.8087H73.2338C73.2338 61.8087 74.7191 62.0759 74.7191 60.3531L74.5303 32.1885Z" fill="#942C56" stroke="#5D285E" stroke-miterlimit="10"/>
</g>
<defs>
<filter id="filter0_d_2007_2139" x="0.000391006" y="0.000391006" width="111.8" height="107.8" filterUnits="userSpaceOnUse" color-interpolation-filters="sRGB">
<feFlood flood-opacity="0" result="BackgroundImageFix"/>
<feColorMatrix in="SourceAlpha" type="matrix" values="0 0 0 0 0 0 0 0 0 0 0 0 0 0 0 0 0 0 127 0" result="hardAlpha"/>
<feMorphology radius="4" operator="dilate" in="SourceAlpha" result="effect1_dropShadow_2007_2139"/>
<feOffset dx="4" dy="4"/>
<feGaussianBlur stdDeviation="4.7"/>
<feComposite in2="hardAlpha" operator="out"/>
<feColorMatrix type="matrix" values="0 0 0 0 0.742582 0 0 0 0 0.742582 0 0 0 0 0.742582 0 0 0 0.25 0"/>
<feBlend mode="normal" in2="BackgroundImageFix" result="effect1_dropShadow_2007_2139"/>
<feBlend mode="normal" in="SourceGraphic" in2="effect1_dropShadow_2007_2139" result="shape"/>
</filter>
</defs>
</svg>
