<svg width="112" height="108" viewBox="0 0 112 108" fill="none" xmlns="http://www.w3.org/2000/svg">
<g filter="url(#filter0_d_1709_1372)">
<path d="M9.40039 33.4004C9.40039 20.1456 20.1456 9.40039 33.4004 9.40039H70.4004C83.6552 9.40039 94.4004 20.1456 94.4004 33.4004V66.4004C94.4004 79.6552 83.6552 90.4004 70.4004 90.4004H33.4004C20.1456 90.4004 9.40039 79.6552 9.40039 66.4004V33.4004Z" fill="white" shape-rendering="crispEdges"/>
<path d="M64.5109 47.3979L53.2509 58.658C53.0141 58.899 52.7305 59.089 52.4174 59.2163C52.1044 59.3436 51.7687 59.4054 51.4309 59.3979C51.0902 59.4046 50.7516 59.3425 50.4355 59.2153C50.1194 59.0882 49.8321 58.8986 49.5909 58.658L38.3309 47.3979C38.0979 47.1668 37.913 46.8919 37.7868 46.589C37.6607 46.2861 37.5957 45.9611 37.5957 45.6329C37.5957 45.3048 37.6607 44.9799 37.7868 44.677C37.913 44.3741 38.0979 44.099 38.3309 43.8679C38.5606 43.6349 38.8347 43.4502 39.137 43.3248C39.4393 43.1994 39.7636 43.1359 40.0909 43.1379C40.4195 43.1367 40.7451 43.2006 41.0489 43.3259C41.3527 43.4512 41.6286 43.6354 41.8609 43.8679L48.9909 50.9979V32.4979C48.9909 31.8362 49.2537 31.2017 49.7216 30.7338C50.1895 30.2659 50.8242 30.0029 51.4859 30.0029C52.1476 30.0029 52.7822 30.2659 53.2501 30.7338C53.718 31.2017 53.9809 31.8362 53.9809 32.4979V50.8679L60.9909 43.8679C61.2219 43.6365 61.4962 43.453 61.7982 43.3278C62.1002 43.2025 62.4239 43.1381 62.7509 43.1381C63.0778 43.1381 63.4016 43.2025 63.7036 43.3278C64.0056 43.453 64.2799 43.6365 64.5109 43.8679C64.7438 44.0991 64.9287 44.3741 65.0548 44.677C65.181 44.9799 65.2459 45.3048 65.2459 45.6329C65.2459 45.9611 65.181 46.2859 65.0548 46.5889C64.9287 46.8918 64.7438 47.1668 64.5109 47.3979Z" fill="#942C56"/>
<path d="M75.7805 58.4579V67.3079C75.7813 67.6351 75.7175 67.9592 75.5926 68.2617C75.4678 68.5642 75.2844 68.8389 75.053 69.0703C74.8216 69.3017 74.5468 69.4851 74.2444 69.61C73.9419 69.7348 73.6177 69.7987 73.2905 69.7979H30.5205C30.1928 69.7989 29.868 69.7352 29.5649 69.6106C29.2618 69.4859 28.9862 69.3027 28.754 69.0714C28.5218 68.8401 28.3375 68.5653 28.2116 68.2627C28.0857 67.9601 28.0208 67.6356 28.0205 67.3079V58.4579C28.0205 57.7962 28.2834 57.1615 28.7513 56.6936C29.2192 56.2257 29.8538 55.9629 30.5155 55.9629C31.1772 55.9629 31.8118 56.2257 32.2797 56.6936C32.7476 57.1615 33.0105 57.7962 33.0105 58.4579V64.8079H70.7905V58.4579C70.7875 58.1284 70.8499 57.8015 70.974 57.4962C71.098 57.1909 71.2813 56.9131 71.5133 56.6791C71.7453 56.445 72.0213 56.2592 72.3255 56.1324C72.6297 56.0057 72.956 55.9404 73.2855 55.9404C73.615 55.9404 73.9413 56.0057 74.2455 56.1324C74.5497 56.2592 74.8257 56.445 75.0577 56.6791C75.2897 56.9131 75.473 57.1909 75.597 57.4962C75.7211 57.8015 75.7835 58.1284 75.7805 58.4579Z" fill="#942C56"/>
</g>
<defs>
<filter id="filter0_d_1709_1372" x="0.000391006" y="0.000391006" width="111.8" height="107.8" filterUnits="userSpaceOnUse" color-interpolation-filters="sRGB">
<feFlood flood-opacity="0" result="BackgroundImageFix"/>
<feColorMatrix in="SourceAlpha" type="matrix" values="0 0 0 0 0 0 0 0 0 0 0 0 0 0 0 0 0 0 127 0" result="hardAlpha"/>
<feMorphology radius="4" operator="dilate" in="SourceAlpha" result="effect1_dropShadow_1709_1372"/>
<feOffset dx="4" dy="4"/>
<feGaussianBlur stdDeviation="4.7"/>
<feComposite in2="hardAlpha" operator="out"/>
<feColorMatrix type="matrix" values="0 0 0 0 0.742582 0 0 0 0 0.742582 0 0 0 0 0.742582 0 0 0 0.25 0"/>
<feBlend mode="normal" in2="BackgroundImageFix" result="effect1_dropShadow_1709_1372"/>
<feBlend mode="normal" in="SourceGraphic" in2="effect1_dropShadow_1709_1372" result="shape"/>
</filter>
</defs>
</svg>
