<svg width="112" height="108" viewBox="0 0 112 108" fill="none" xmlns="http://www.w3.org/2000/svg">
<g filter="url(#filter0_d_1709_1381)">
<path d="M9.40039 33.4004C9.40039 20.1456 20.1456 9.40039 33.4004 9.40039H70.4004C83.6552 9.40039 94.4004 20.1456 94.4004 33.4004V66.4004C94.4004 79.6552 83.6552 90.4004 70.4004 90.4004H33.4004C20.1456 90.4004 9.40039 79.6552 9.40039 66.4004V33.4004Z" fill="white" shape-rendering="crispEdges"/>
<path d="M62.9206 49.7853C62.921 51.5178 62.501 53.2245 61.6966 54.7589C60.8921 56.2933 59.7273 57.6095 58.3021 58.5946V62.3811H45.823V58.3846C44.355 57.2948 43.1904 55.8475 42.44 54.1803C41.6896 52.5132 41.3784 50.6817 41.536 48.8602C41.6935 47.0388 42.3147 45.2879 43.3403 43.7744C44.3659 42.2609 45.7617 41.0351 47.3951 40.2136C49.0284 39.3921 50.8448 39.0023 52.6713 39.0813C54.4979 39.1603 56.2738 39.7055 57.8301 40.665C59.3863 41.6245 60.6712 42.9663 61.5622 44.5627C62.4533 46.1592 62.9209 47.9571 62.9206 49.7853Z" fill="#942C56" stroke="#5D285E" stroke-width="3" stroke-miterlimit="10"/>
<path d="M58.4379 65.249H45.6088C45.0094 65.249 44.5234 65.735 44.5234 66.3344C44.5234 66.9339 45.0094 67.4198 45.6088 67.4198H58.4379C59.0374 67.4198 59.5234 66.9339 59.5234 66.3344C59.5234 65.735 59.0374 65.249 58.4379 65.249Z" fill="#942C56"/>
<path d="M58.3687 69.5908H45.6781C45.0404 69.5908 44.5234 70.1078 44.5234 70.7455V70.7456C44.5234 71.3833 45.0404 71.9003 45.6781 71.9003H58.3687C59.0064 71.9003 59.5234 71.3833 59.5234 70.7456V70.7455C59.5234 70.1078 59.0064 69.5908 58.3687 69.5908Z" fill="#942C56"/>
<path d="M37.8878 48.7197H30.2666" stroke="#5D285E" stroke-width="3" stroke-miterlimit="10"/>
<path d="M41.8988 39.0707L36.5098 33.6816" stroke="#5D285E" stroke-width="3" stroke-miterlimit="10"/>
<path d="M52.0254 35.5216V27.9004" stroke="#5D285E" stroke-width="3" stroke-miterlimit="10"/>
<path d="M65.9121 48.918H73.5333" stroke="#5D285E" stroke-width="3" stroke-miterlimit="10"/>
<path d="M61.9004 39.2689L67.2894 33.8799" stroke="#5D285E" stroke-width="3" stroke-miterlimit="10"/>
</g>
<defs>
<filter id="filter0_d_1709_1381" x="0.000391006" y="0.000391006" width="111.8" height="107.8" filterUnits="userSpaceOnUse" color-interpolation-filters="sRGB">
<feFlood flood-opacity="0" result="BackgroundImageFix"/>
<feColorMatrix in="SourceAlpha" type="matrix" values="0 0 0 0 0 0 0 0 0 0 0 0 0 0 0 0 0 0 127 0" result="hardAlpha"/>
<feMorphology radius="4" operator="dilate" in="SourceAlpha" result="effect1_dropShadow_1709_1381"/>
<feOffset dx="4" dy="4"/>
<feGaussianBlur stdDeviation="4.7"/>
<feComposite in2="hardAlpha" operator="out"/>
<feColorMatrix type="matrix" values="0 0 0 0 0.742582 0 0 0 0 0.742582 0 0 0 0 0.742582 0 0 0 0.25 0"/>
<feBlend mode="normal" in2="BackgroundImageFix" result="effect1_dropShadow_1709_1381"/>
<feBlend mode="normal" in="SourceGraphic" in2="effect1_dropShadow_1709_1381" result="shape"/>
</filter>
</defs>
</svg>
