<svg width="75" height="72" viewBox="0 0 75 72" fill="none" xmlns="http://www.w3.org/2000/svg">
<g filter="url(#filter0_d_1709_1524)">
<path d="M9.40039 31.9004C9.40039 19.474 19.474 9.40039 31.9004 9.40039H34.9004C47.3268 9.40039 57.4004 19.474 57.4004 31.9004C57.4004 44.3268 47.3268 54.4004 34.9004 54.4004H31.9004C19.474 54.4004 9.40039 44.3268 9.40039 31.9004Z" fill="white" shape-rendering="crispEdges"/>
<path d="M33.4004 41.9004C38.9233 41.9004 43.4005 37.4233 43.4005 31.9004C43.4005 26.3776 38.9233 21.9004 33.4004 21.9004C27.8775 21.9004 23.4004 26.3776 23.4004 31.9004C23.4004 37.4233 27.8775 41.9004 33.4004 41.9004Z" stroke="#942C56" stroke-width="2" stroke-miterlimit="10"/>
<path d="M33.4004 26.2949V31.9001L38.6171 34.5084" stroke="#942C56" stroke-width="2" stroke-miterlimit="10"/>
</g>
<defs>
<filter id="filter0_d_1709_1524" x="0.000391006" y="0.000391006" width="74.8" height="71.8" filterUnits="userSpaceOnUse" color-interpolation-filters="sRGB">
<feFlood flood-opacity="0" result="BackgroundImageFix"/>
<feColorMatrix in="SourceAlpha" type="matrix" values="0 0 0 0 0 0 0 0 0 0 0 0 0 0 0 0 0 0 127 0" result="hardAlpha"/>
<feMorphology radius="4" operator="dilate" in="SourceAlpha" result="effect1_dropShadow_1709_1524"/>
<feOffset dx="4" dy="4"/>
<feGaussianBlur stdDeviation="4.7"/>
<feComposite in2="hardAlpha" operator="out"/>
<feColorMatrix type="matrix" values="0 0 0 0 0.742582 0 0 0 0 0.742582 0 0 0 0 0.742582 0 0 0 0.25 0"/>
<feBlend mode="normal" in2="BackgroundImageFix" result="effect1_dropShadow_1709_1524"/>
<feBlend mode="normal" in="SourceGraphic" in2="effect1_dropShadow_1709_1524" result="shape"/>
</filter>
</defs>
</svg>
